<?xml version="1.0" encoding="UTF-8"?>
<svg version="1.1" xmlns="http://www.w3.org/2000/svg" width="512" height="512">
<path d="M0 0 C0.64420898 0.21962402 1.28841797 0.43924805 1.95214844 0.66552734 C27.73722794 9.66165508 49.8936251 28.32744602 61.99609375 52.9453125 C64.47611522 58.28262209 66.75243315 63.50920543 67.9765625 69.28515625 C69.35966741 76.5202016 69.35966741 76.5202016 73.56689453 82.31152344 C76.81602565 84.28251954 80.24551007 85.69505703 83.7578125 87.125 C88.15315559 88.93355264 91.67995335 91.4157955 95.375 94.375 C96.18614258 95.01961182 96.18614258 95.01961182 97.01367188 95.67724609 C99.10767754 97.37100682 101.0947215 99.0947215 103 101 C103.33 90.11 103.66 79.22 104 68 C108.34304262 69.44768087 111.97110608 70.86321921 116.00537109 72.88916016 C117.16612152 73.4696109 118.32687195 74.05006165 119.52279663 74.64810181 C120.77305375 75.27833575 122.02326635 75.90865803 123.2734375 76.5390625 C124.56506088 77.18674137 125.85686259 77.83406471 127.14883423 78.48104858 C130.53387031 80.17736819 133.9164752 81.87848057 137.29858398 83.58062744 C140.75618474 85.31969289 144.21608028 87.05418011 147.67578125 88.7890625 C154.45276562 92.18825034 161.22718627 95.59250847 168 99 C168 99.66 168 100.32 168 101 C161.48830996 104.28113124 154.97353493 107.55607238 148.45654297 110.82666016 C146.23837323 111.9407841 144.02092252 113.05634076 141.80419922 114.17333984 C138.62393638 115.77555541 135.44115143 117.37265674 132.2578125 118.96875 C131.26194122 119.47184692 130.26606995 119.97494385 129.24002075 120.49328613 C128.31921722 120.95376343 127.3984137 121.41424072 126.44970703 121.88867188 C125.6369632 122.2972644 124.82421936 122.70585693 123.98684692 123.12683105 C122 124 122 124 120 124 C120.20681396 124.57854736 120.41362793 125.15709473 120.62670898 125.75317383 C121.57690436 128.43512096 122.50721216 131.12358583 123.4375 133.8125 C123.76298828 134.72193359 124.08847656 135.63136719 124.42382812 136.56835938 C126.64869079 143.05945354 127.68175135 149.14892928 128 156 C128.5576001 155.97905273 129.1152002 155.95810547 129.68969727 155.93652344 C152.15352059 155.20734335 171.72438779 159.9261815 189 175 C189.96808594 175.77214844 190.93617188 176.54429687 191.93359375 177.33984375 C201.53413081 185.35382589 207.57843272 196.50996134 212 208 C212.43441406 209.11246094 212.86882812 210.22492188 213.31640625 211.37109375 C219.83449162 231.37957183 217.24480722 253.72722185 208.1875 272.375 C205.07915425 278.46302518 201.48205254 283.82429648 197 289 C196.40316406 289.79277344 195.80632812 290.58554687 195.19140625 291.40234375 C183.55276639 305.19859243 164.49273253 314.46992586 146.63788795 316.233284 C140.27101037 316.60075603 133.89837039 316.54515901 127.5234375 316.51757812 C125.39780195 316.52300942 123.27217017 316.5301377 121.14654541 316.53881836 C115.41510906 316.55693471 109.6839632 316.5500327 103.95252228 316.53730202 C97.92976651 316.52711345 91.90703418 316.53658386 85.88427734 316.54284668 C75.77371801 316.55010611 65.66327588 316.5405802 55.55273438 316.52148438 C43.89479618 316.49971903 32.23713789 316.50677161 20.57920647 316.52879 C10.53626563 316.54699265 0.49340864 316.54947857 -9.54954338 316.53903532 C-15.5330145 316.5328271 -21.51635442 316.5318908 -27.49981689 316.54518127 C-33.12743358 316.55681017 -38.75469243 316.54858625 -44.38227081 316.52560425 C-46.43682514 316.52035457 -48.49141004 316.52176602 -50.54595184 316.53065491 C-65.47505921 316.58924708 -78.93842264 315.34827838 -92.375 308.1875 C-93.03999512 307.84420654 -93.70499023 307.50091309 -94.39013672 307.1472168 C-99.73323943 304.31264668 -104.441544 300.97747632 -109 297 C-109.96808594 296.22785156 -110.93617188 295.45570313 -111.93359375 294.66015625 C-125.41476231 283.40684371 -134.47264642 264.08798507 -136.22357178 246.79144287 C-136.37748948 244.53591667 -136.49852033 242.28183932 -136.6015625 240.0234375 C-136.64192627 239.24701904 -136.68229004 238.47060059 -136.72387695 237.6706543 C-136.82135682 235.78070888 -136.91145924 233.89038529 -137 232 C-137.5902446 232.15033691 -138.1804892 232.30067383 -138.78862 232.45556641 C-144.93500582 234.01982823 -151.08345065 235.57578744 -157.2331543 237.12695312 C-159.52763808 237.70685799 -161.82158934 238.2888741 -164.11499023 238.87304688 C-167.41251945 239.71259967 -170.71189232 240.54452874 -174.01171875 241.375 C-175.03585373 241.63748535 -176.05998871 241.8999707 -177.11515808 242.17041016 C-178.07577652 242.41065918 -179.03639496 242.6509082 -180.02612305 242.8984375 C-180.86773483 243.11161621 -181.70934662 243.32479492 -182.57646179 243.54443359 C-185.10525977 244.01978628 -187.43300018 244.08073148 -190 244 C-184.28311537 229.45627744 -178.22858818 215.08122274 -172 200.75 C-171.12083821 198.7214649 -170.24193077 196.69281954 -169.36328125 194.6640625 C-167.24510258 189.77477343 -165.1238471 184.88682925 -163 180 C-159.91368231 181.47090745 -157.90375649 182.89414748 -155.57421875 185.4140625 C-154.94193359 186.09339844 -154.30964844 186.77273438 -153.65820312 187.47265625 C-152.68270508 188.53806641 -152.68270508 188.53806641 -151.6875 189.625 C-150.7294043 190.65560547 -150.7294043 190.65560547 -149.75195312 191.70703125 C-145.94062582 195.8234192 -142.21573888 200.0068861 -138.54785156 204.25146484 C-136.46132535 206.60851544 -134.25936713 208.80909854 -132 211 C-131.90460938 210.15566406 -131.80921875 209.31132812 -131.7109375 208.44140625 C-130.91180361 204.57307133 -129.47987335 201.38484999 -127.625 197.9375 C-127.27920898 197.29135742 -126.93341797 196.64521484 -126.57714844 195.97949219 C-122.00685315 187.79454516 -115.81099763 179.32899838 -108 174 C-109.33271149 171.04485712 -110.81072315 169.00315704 -113.0625 166.6875 C-121.89367863 156.75242404 -127.8317751 144.53038463 -132 132 C-132.41378906 130.78957031 -132.82757813 129.57914063 -133.25390625 128.33203125 C-138.96111198 109.55750749 -138.35306647 86.52813813 -132 68 C-131.78037598 67.35579102 -131.56075195 66.71158203 -131.33447266 66.04785156 C-122.3230147 40.21883195 -103.63364332 18.09055862 -78.984375 5.96875 C-54.90771532 -5.27263747 -25.46001927 -8.72992168 0 0 Z " fill="#5ED2F1" transform="translate(280,180)"/>
<path d="M0 0 C4.34304262 1.44768087 7.97110608 2.86321921 12.00537109 4.88916016 C13.16612152 5.4696109 14.32687195 6.05006165 15.52279663 6.64810181 C16.77305375 7.27833575 18.02326635 7.90865803 19.2734375 8.5390625 C20.56506088 9.18674137 21.85686259 9.83406471 23.14883423 10.48104858 C26.53387031 12.17736819 29.9164752 13.87848057 33.29858398 15.58062744 C36.75618474 17.31969289 40.21608028 19.05418011 43.67578125 20.7890625 C50.45276562 24.18825034 57.22718627 27.59250847 64 31 C64 31.66 64 32.32 64 33 C57.48830996 36.28113124 50.97353493 39.55607238 44.45654297 42.82666016 C42.23837323 43.9407841 40.02092252 45.05634076 37.80419922 46.17333984 C34.62393638 47.77555541 31.44115143 49.37265674 28.2578125 50.96875 C27.26194122 51.47184692 26.26606995 51.97494385 25.24002075 52.49328613 C24.31921722 52.95376343 23.3984137 53.41424072 22.44970703 53.88867188 C21.23059128 54.50156067 21.23059128 54.50156067 19.98684692 55.12683105 C18 56 18 56 16 56 C16.20681396 56.57854736 16.41362793 57.15709473 16.62670898 57.75317383 C17.57690436 60.43512096 18.50721216 63.12358583 19.4375 65.8125 C19.76298828 66.72193359 20.08847656 67.63136719 20.42382812 68.56835938 C22.64869079 75.05945354 23.68175135 81.14892928 24 88 C24.5576001 87.97905273 25.1152002 87.95810547 25.68969727 87.93652344 C48.15352059 87.20734335 67.72438779 91.9261815 85 107 C85.96808594 107.77214844 86.93617188 108.54429687 87.93359375 109.33984375 C97.53413081 117.35382589 103.57843272 128.50996134 108 140 C108.65162109 141.66869141 108.65162109 141.66869141 109.31640625 143.37109375 C115.83449162 163.37957183 113.24480722 185.72722185 104.1875 204.375 C101.07915425 210.46302518 97.48205254 215.82429648 93 221 C92.40316406 221.79277344 91.80632812 222.58554687 91.19140625 223.40234375 C79.47917909 237.28582157 60.43767615 246.41381236 42.50439262 248.25641823 C35.72759055 248.6988089 28.94131889 248.73835428 22.15234375 248.77734375 C19.9652954 248.79787 17.7782481 248.81850707 15.59120178 248.83924866 C11.03169927 248.87650803 6.47248032 248.89607661 1.9128418 248.90600586 C-3.89690399 248.92239715 -9.70342221 249.00832681 -15.51220036 249.11069393 C-20.02076849 249.17802424 -24.52856781 249.19534869 -29.03759575 249.19940376 C-31.17811972 249.20958053 -33.3186449 249.2377859 -35.45866585 249.28529167 C-48.22372614 249.54762048 -56.83698458 248.81416692 -66.3130188 239.72975159 C-67.1997226 238.82893356 -68.08642639 237.92811554 -69 237 C-70.4348989 235.73955118 -71.87642525 234.48647777 -73.33203125 233.25 C-74.49950462 232.17455611 -75.65991462 231.0913847 -76.8125 230 C-77.43793701 229.41025391 -78.06337402 228.82050781 -78.70776367 228.21289062 C-83.97015987 223.17188973 -88.63677042 217.8418796 -93 212 C-93.40025391 211.48002441 -93.80050781 210.96004883 -94.21289062 210.42431641 C-101.06626833 201.5049243 -106.38973374 192.25177629 -111 182 C-111.28359375 181.37480469 -111.5671875 180.74960937 -111.859375 180.10546875 C-125.56872364 149.38876778 -125.8337788 114.40417134 -114.19360352 83.0769043 C-108.72314635 69.06557807 -101.45705522 56.73153685 -92 45 C-91.55140625 44.443125 -91.1028125 43.88625 -90.640625 43.3125 C-83.43724722 34.44680428 -75.7490728 26.35323794 -67 19 C-66.41395996 18.5035498 -65.82791992 18.00709961 -65.22412109 17.49560547 C-54.05730989 8.22464651 -54.05730989 8.22464651 -48.125 8.5625 C-45.75390625 9.1171875 -45.75390625 9.1171875 -43 10 C-41.75089844 10.33257812 -40.50179687 10.66515625 -39.21484375 11.0078125 C-24.6984574 15.01816932 -11.70463448 22.29536552 -1 33 C-0.67 22.11 -0.34 11.22 0 0 Z " fill="#74E1FB" transform="translate(384,248)"/>
<path d="M0 0 C0.64420898 0.21962402 1.28841797 0.43924805 1.95214844 0.66552734 C27.87015071 9.70803036 49.70771098 28.3588818 62.03125 52.9453125 C66.31423453 61.98127082 68.91170955 71.24599741 71 81 C70.16082031 80.81824219 70.16082031 80.81824219 69.3046875 80.6328125 C44.35548663 75.4183493 21.9618743 74.73522377 -1 87 C-1.87011719 87.46277344 -2.74023438 87.92554688 -3.63671875 88.40234375 C-23.27908266 99.53404449 -37.38454546 117.45112969 -44 139 C-44.95956888 142.96789469 -45.70992935 146.96128718 -46.421875 150.98046875 C-47 154 -47 154 -48 156 C-49.70542969 156.05607422 -49.70542969 156.05607422 -51.4453125 156.11328125 C-71.06905033 156.88660948 -89.08750375 160.93302368 -105 173 C-117.02173838 167.7720034 -124.45936708 151.1160452 -129.3125 139.625 C-130.27007937 137.1023972 -131.14838589 134.56009516 -132 132 C-132.41378906 130.78957031 -132.82757813 129.57914063 -133.25390625 128.33203125 C-138.96111198 109.55750749 -138.35306647 86.52813813 -132 68 C-131.78037598 67.35579102 -131.56075195 66.71158203 -131.33447266 66.04785156 C-122.3230147 40.21883195 -103.63364332 18.09055862 -78.984375 5.96875 C-54.90771532 -5.27263747 -25.46001927 -8.72992168 0 0 Z " fill="#F5B840" transform="translate(280,180)"/>
<path d="M0 0 C51.7132023 -0.09122378 103.4263944 -0.16202497 155.13966137 -0.20426132 C161.24301006 -0.20926423 167.34635858 -0.21444151 173.44970703 -0.21972656 C175.27232962 -0.22130043 175.27232962 -0.22130043 177.13177288 -0.22290608 C196.81373294 -0.24031773 216.49564633 -0.27185962 236.17757869 -0.30861118 C256.36867598 -0.34599944 276.5597488 -0.36823138 296.75087929 -0.37635398 C309.21281459 -0.38184613 321.67461799 -0.39920111 334.1365127 -0.43166587 C342.67872117 -0.45278761 351.22086131 -0.45920534 359.76309401 -0.45400551 C364.69367438 -0.4514401 369.62402403 -0.45541012 374.55456352 -0.4768219 C379.06890315 -0.49628324 383.58285685 -0.49727269 388.09721422 -0.48359558 C389.72992418 -0.48190512 391.3626582 -0.48698288 392.9953208 -0.49953273 C402.45263994 -0.56799888 409.80421239 -0.55310308 417.2421875 5.96484375 C417.78101563 6.61582031 418.31984375 7.26679688 418.875 7.9375 C419.42929687 8.58589844 419.98359375 9.23429687 420.5546875 9.90234375 C425.03412097 16.40357557 424.67463728 23.37140917 424 31 C422.31914417 37.65959333 417.53621678 42.18547447 412 46 C408.21351658 47.80097517 405.21992088 48.2513168 401.0419693 48.2561264 C399.84029287 48.2623585 398.63861644 48.26859059 397.40052557 48.27501154 C396.08390511 48.27171257 394.76728465 48.26841359 393.4107666 48.26501465 C391.99520585 48.26858565 390.57964709 48.27303637 389.16409159 48.27829123 C385.27427819 48.2902188 381.38454896 48.28977249 377.49472165 48.28735614 C373.29970478 48.28693693 369.104717 48.29803217 364.90971375 48.30781555 C357.64046585 48.32327568 350.37123738 48.33168123 343.10197449 48.33552551 C332.58637382 48.34127083 322.07082543 48.35985386 311.55524784 48.38196605 C294.48752403 48.4176919 277.41979726 48.446003 260.35205078 48.46826172 C258.81958807 48.47026421 258.81958807 48.47026421 257.25616652 48.47230715 C248.96638619 48.48308411 240.67660541 48.49350308 232.38682461 48.5039072 C225.14053259 48.51301687 217.89424078 48.52226947 210.64794922 48.53173828 C209.62755037 48.53306902 208.60715152 48.53439977 207.55583149 48.53577083 C190.55233737 48.55818738 173.5488656 48.58837576 156.54539442 48.62413073 C146.0539513 48.64581309 135.56254296 48.66042118 125.07107866 48.66596949 C117.88526945 48.67021136 110.69949337 48.68143508 103.51370251 48.69819343 C99.3652856 48.70761326 95.21693068 48.71370714 91.06850243 48.71113014 C87.27255385 48.70882259 83.4767356 48.71561766 79.68081349 48.72970897 C77.65370631 48.73482271 75.6265817 48.73006766 73.59947443 48.72498846 C72.397798 48.73122056 71.19612157 48.73745265 69.9580307 48.7438736 C68.40201527 48.74566486 68.40201527 48.74566486 66.81456518 48.74749231 C63.82866334 49.01537141 61.66936181 49.64834027 59 51 C57.60064987 53.79870027 57.74734595 55.90498792 58 59 C59.85342775 61.55949546 60.93756393 61.97918798 64 63 C65.50478551 63.09222022 67.01331293 63.12894841 68.5209198 63.13130188 C69.91072052 63.13731415 69.91072052 63.13731415 71.32859802 63.14344788 C72.34317581 63.14291916 73.3577536 63.14239044 74.40307617 63.1418457 C75.47331024 63.14532013 76.54354431 63.14879456 77.64620972 63.15237427 C79.97393968 63.15973362 82.30167668 63.16507804 84.62941551 63.16866493 C88.31585262 63.1758257 92.00215626 63.19149016 95.68855286 63.21000671 C106.17133743 63.26248999 116.6540498 63.31044337 127.13696289 63.32592773 C133.5466624 63.33601696 139.95602753 63.36536783 146.36559486 63.40724754 C148.80674013 63.41955074 151.24793264 63.42468006 153.68910789 63.42244911 C157.10975095 63.42009263 160.5294375 63.44229143 163.94995117 63.4699707 C164.95440781 63.46336929 165.95886444 63.45676788 166.99375916 63.44996643 C174.30850265 63.54691995 179.68676671 65.09659173 185.2421875 69.96484375 C185.78101563 70.61582031 186.31984375 71.26679687 186.875 71.9375 C187.70644531 72.91009766 187.70644531 72.91009766 188.5546875 73.90234375 C193.03412097 80.40357557 192.67463728 87.37140917 192 95 C190.31914417 101.65959333 185.53621678 106.18547447 180 110 C175.82864362 112.05916191 172.38064799 112.24714071 167.75505066 112.24050903 C167.03615687 112.24221788 166.31726308 112.24392673 165.57658464 112.24568737 C163.17359421 112.24897521 160.77088452 112.23799034 158.36791992 112.22705078 C156.64306647 112.22648651 154.91821254 112.22680353 153.19335938 112.22793579 C148.51401052 112.2285097 143.83476417 112.21674916 139.15543914 112.20278788 C134.2640572 112.19028692 129.37267292 112.18911052 124.48127747 112.18673706 C115.22014587 112.18052043 105.95906147 112.16410712 96.69795066 112.14403808 C86.15390651 112.1216848 75.60986011 112.11068708 65.06579816 112.10064721 C43.37717171 112.07974107 21.68859049 112.04415872 0 112 C0 106.72 0 101.44 0 96 C2.09361374 95.99191315 4.18722748 95.98382629 6.34428406 95.97549438 C26.04770351 95.89844774 45.75105267 95.81050065 65.45437908 95.71247292 C75.58472367 95.66233552 85.71506011 95.6158927 95.84545898 95.578125 C104.67435714 95.54520015 113.50319235 95.50536616 122.33202106 95.45720994 C127.00748953 95.4319499 131.68291627 95.41016711 136.35843468 95.39665604 C140.75870347 95.38383125 145.15882912 95.36177225 149.55901909 95.33261681 C151.17429813 95.32354432 152.78960022 95.31785156 154.40490341 95.31578636 C156.61036416 95.31246149 158.81541963 95.29697829 161.02079773 95.2784729 C162.87221894 95.27017676 162.87221894 95.27017676 164.76104259 95.26171303 C167.95341209 95.00376438 170.16921598 94.47456318 173 93 C174.39935013 90.20129973 174.25265405 88.09501208 174 85 C172.14657225 82.44050454 171.06243607 82.02081202 168 81 C166.49521449 80.90777978 164.98668707 80.87105159 163.4790802 80.86869812 C162.55254639 80.86468994 161.62601257 80.86068176 160.67140198 80.85655212 C159.65682419 80.85708084 158.6422464 80.85760956 157.59692383 80.8581543 C156.52668976 80.85467987 155.45645569 80.85120544 154.35379028 80.84762573 C152.02606032 80.84026638 149.69832332 80.83492196 147.37058449 80.83133507 C143.68414738 80.8241743 139.99784374 80.80850984 136.31144714 80.78999329 C125.82866257 80.73751001 115.3459502 80.68955663 104.86303711 80.67407227 C98.4533376 80.66398304 92.04397247 80.63463217 85.63440514 80.59275246 C83.19325987 80.58044926 80.75206736 80.57531994 78.31089211 80.57755089 C74.89024905 80.57990737 71.4705625 80.55770857 68.05004883 80.5300293 C67.04559219 80.53663071 66.04113556 80.54323212 65.00624084 80.55003357 C57.69149735 80.45308005 52.31323329 78.90340827 46.7578125 74.03515625 C46.21898437 73.38417969 45.68015625 72.73320313 45.125 72.0625 C44.57070313 71.41410156 44.01640625 70.76570313 43.4453125 70.09765625 C38.96587903 63.59642443 39.32536272 56.62859083 40 49 C41.68085583 42.34040667 46.46378322 37.81452553 52 34 C55.78648342 32.19902483 58.78007912 31.7486832 62.9580307 31.7438736 C64.76054535 31.73452545 64.76054535 31.73452545 66.59947443 31.72498846 C67.91609489 31.72828743 69.23271535 31.73158641 70.5892334 31.73498535 C72.00479415 31.73141435 73.42035291 31.72696363 74.83590841 31.72170877 C78.72572181 31.7097812 82.61545104 31.71022751 86.50527835 31.71264386 C90.70029522 31.71306307 94.895283 31.70196783 99.09028625 31.69218445 C106.35953415 31.67672432 113.62876262 31.66831877 120.89802551 31.66447449 C131.41362618 31.65872917 141.92917457 31.64014614 152.44475216 31.61803395 C169.51247597 31.5823081 186.58020274 31.553997 203.64794922 31.53173828 C204.66959103 31.53040329 205.69123283 31.5290683 206.74383348 31.52769285 C215.03361381 31.51691589 223.32339459 31.50649692 231.61317539 31.4960928 C238.85946741 31.48698313 246.10575922 31.47773053 253.35205078 31.46826172 C254.37244963 31.46693098 255.39284848 31.46560023 256.44416851 31.46422917 C273.44766263 31.44181262 290.4511344 31.41162424 307.45460558 31.37586927 C317.9460487 31.35418691 328.43745704 31.33957882 338.92892134 31.33403051 C346.11473055 31.32978864 353.30050663 31.31856492 360.48629749 31.30180657 C364.6347144 31.29238674 368.78306932 31.28629286 372.93149757 31.28886986 C376.72744615 31.29117741 380.5232644 31.28438234 384.31918651 31.27029103 C386.34629369 31.26517729 388.3734183 31.26993234 390.40052557 31.27501154 C392.20304022 31.2656634 392.20304022 31.2656634 394.0419693 31.2561264 C395.07931292 31.25493223 396.11665654 31.25373805 397.18543482 31.25250769 C400.17133666 30.98462859 402.33063819 30.35165973 405 29 C406.39935013 26.20129973 406.25265405 24.09501208 406 21 C404.14657225 18.44050454 403.06243607 18.02081202 400 17 C397.79632913 16.90201474 395.58975122 16.86616461 393.38390827 16.8613348 C392.70509726 16.85849258 392.02628626 16.85565036 391.32690522 16.85272202 C389.03582125 16.84435216 386.74478769 16.84310502 384.45368958 16.84178162 C382.80117904 16.83721782 381.14866966 16.83221807 379.49616164 16.82681805 C374.94231269 16.81320672 370.38847124 16.80580993 365.83460724 16.79939139 C360.92867472 16.79140058 356.02275784 16.77769828 351.11683655 16.76467896 C342.61270957 16.74289746 334.10858102 16.7247591 325.60444069 16.70907402 C313.30878208 16.68639062 301.01314078 16.65824568 288.71749683 16.62875474 C268.7700869 16.58106005 248.82266991 16.53780096 228.87524414 16.49731445 C209.49470469 16.45796907 190.11417152 16.41654515 170.73364258 16.37231445 C169.53963252 16.36959018 168.34562246 16.36686591 167.11543027 16.36405908 C161.1256136 16.35037976 155.13579701 16.33665946 149.14598048 16.32291877 C99.43066673 16.20892451 49.71533929 16.10219531 0 16 C0 10.72 0 5.44 0 0 Z " fill="#E2E7F6" transform="translate(16,8)"/>
<path d="M0 0 C-1.48263872 3.43879034 -3.45383886 5.64862911 -6.0625 8.3125 C-23.60952221 27.63394018 -31.05938252 53.8986064 -30.34765625 79.62109375 C-28.82736717 109.73807489 -15.1534367 134.23257492 6 155 C5.16339844 155.08636719 4.32679688 155.17273438 3.46484375 155.26171875 C-12.6246347 157.20385956 -26.70875917 162.66020914 -40 172 C-52.02173838 166.7720034 -59.45936708 150.1160452 -64.3125 138.625 C-65.27007937 136.1023972 -66.14838589 133.56009516 -67 131 C-67.41378906 129.78957031 -67.82757813 128.57914063 -68.25390625 127.33203125 C-73.96111198 108.55750749 -73.35306647 85.52813813 -67 67 C-66.78037598 66.35579102 -66.56075195 65.71158203 -66.33447266 65.04785156 C-57.62842474 40.09421103 -39.60823598 17.8811527 -15.80859375 5.89648438 C-3.41196298 0 -3.41196298 0 0 0 Z " fill="#F3A93C" transform="translate(215,181)"/>
<path d="M0 0 C63.36 0 126.72 0 192 0 C192 5.28 192 10.56 192 16 C128.64 16 65.28 16 0 16 C0 10.72 0 5.44 0 0 Z " fill="#E2E7F6" transform="translate(304,72)"/>
<path d="M0 0 C0 21.12 0 42.24 0 64 C-4.34304262 62.55231913 -7.97110608 61.13678079 -12.00537109 59.11083984 C-13.16612152 58.5303891 -14.32687195 57.94993835 -15.52279663 57.35189819 C-16.77305375 56.72166425 -18.02326635 56.09134197 -19.2734375 55.4609375 C-20.56506088 54.81325863 -21.85686259 54.16593529 -23.14883423 53.51895142 C-26.53387031 51.82263181 -29.9164752 50.12151943 -33.29858398 48.41937256 C-36.75618474 46.68030711 -40.21608028 44.94581989 -43.67578125 43.2109375 C-50.45276562 39.81174966 -57.22718627 36.40749153 -64 33 C-64 32.34 -64 31.68 -64 31 C-55.95309507 26.95341007 -47.90405636 22.9111059 -39.85223579 18.87430573 C-36.11380181 16.99986299 -32.37612887 15.12393444 -28.64013672 13.24462891 C-25.03684687 11.43214418 -21.43163506 9.62353836 -17.82503891 7.81764221 C-16.44718667 7.12686382 -15.07004106 6.43467417 -13.69360733 5.74107361 C-11.77039079 4.77224043 -9.84475674 3.80838805 -7.91845703 2.84570312 C-6.82147491 2.29499146 -5.7244928 1.74427979 -4.5942688 1.17687988 C-2 0 -2 0 0 0 Z " fill="#FAD75D" transform="translate(112,248)"/>
<path d="M0 0 C0.66 0 1.32 0 2 0 C6.04658993 8.04690493 10.0888941 16.09594364 14.12569427 24.14776421 C16.00013701 27.88619819 17.87606556 31.62387113 19.75537109 35.35986328 C21.56785582 38.96315313 23.37646164 42.56836494 25.18235779 46.17496109 C25.87313618 47.55281333 26.56532583 48.92995894 27.25892639 50.30639267 C28.22775957 52.22960921 29.19161195 54.15524326 30.15429688 56.08154297 C30.70500854 57.17852509 31.25572021 58.2755072 31.82312012 59.4057312 C33 62 33 62 33 64 C11.88 64 -9.24 64 -31 64 C-29.55231913 59.65695738 -28.13678079 56.02889392 -26.11083984 51.99462891 C-25.5303891 50.83387848 -24.94993835 49.67312805 -24.35189819 48.47720337 C-23.72166425 47.22694625 -23.09134197 45.97673365 -22.4609375 44.7265625 C-21.81325863 43.43493912 -21.16593529 42.14313741 -20.51895142 40.85116577 C-18.82263181 37.46612969 -17.12151943 34.0835248 -15.41937256 30.70141602 C-13.68030711 27.24381526 -11.94581989 23.78391972 -10.2109375 20.32421875 C-6.81174966 13.54723438 -3.40749153 6.77281373 0 0 Z " fill="#FAD75C" transform="translate(247,80)"/>
<path d="M0 0 C-5.71688463 14.54372256 -11.77141182 28.91877726 -18 43.25 C-18.87916179 45.2785351 -19.75806923 47.30718046 -20.63671875 49.3359375 C-22.75489742 54.22522657 -24.8761529 59.11317075 -27 64 C-30.08631769 62.52909255 -32.09624351 61.10585252 -34.42578125 58.5859375 C-35.05806641 57.90660156 -35.69035156 57.22726563 -36.34179688 56.52734375 C-36.99212891 55.81707031 -37.64246094 55.10679687 -38.3125 54.375 C-38.95123047 53.68792969 -39.58996094 53.00085938 -40.24804688 52.29296875 C-44.02609982 48.21251846 -47.71364567 44.06133295 -51.36352539 39.86621094 C-53.71853529 37.1805932 -56.13750296 34.56016783 -58.5625 31.9375 C-59.50706384 30.90675688 -60.45107771 29.87550949 -61.39453125 28.84375 C-62.94694353 27.14936298 -64.50486412 25.45995703 -66.07421875 23.78125 C-67.75 21.9375 -67.75 21.9375 -70 19 C-69.505 17.515 -69.505 17.515 -69 16 C-66.48370361 15.03181458 -66.48370361 15.03181458 -63.09082031 14.19067383 C-61.82570618 13.87056839 -60.56059204 13.55046295 -59.25714111 13.22065735 C-57.86424406 12.88233572 -56.47123581 12.54447161 -55.078125 12.20703125 C-53.65639736 11.85355572 -52.23491154 11.49910622 -50.81365967 11.14372253 C-47.82950482 10.40040239 -44.84338807 9.66578184 -41.85546875 8.93774414 C-38.03122724 8.00567785 -34.21127646 7.05731259 -30.39253616 6.10298634 C-27.45458745 5.36981304 -24.51512039 4.64289784 -21.57509613 3.91809654 C-20.16660236 3.57057134 -18.75844073 3.22169709 -17.35062408 2.87143898 C-15.37746911 2.38205316 -13.40215102 1.90141408 -11.42675781 1.42114258 C-10.30392395 1.14595291 -9.18109009 0.87076324 -8.02423096 0.5872345 C-5.25266097 0.04906082 -2.81205186 -0.11903309 0 0 Z " fill="#FAD85C" transform="translate(414,136)"/>
<path d="M0 0 C7.90472683 0.62984386 15.33118215 2.42162383 23.00390625 4.37890625 C24.33612785 4.71429786 25.66848198 5.04916344 27.0009613 5.38352966 C30.47921023 6.25782631 33.95563224 7.1391785 37.43170166 8.02209473 C40.99048556 8.92466047 44.55097938 9.82042792 48.11132812 10.71679688 C55.07589417 12.47127687 62.03854121 14.2332264 69 16 C69 20.49846947 69 20.49846947 66.40234375 23.171875 C65.85175293 23.74953613 65.30116211 24.32719727 64.73388672 24.92236328 C64.1410791 25.5254834 63.54827148 26.12860352 62.9375 26.75 C61.72967884 28.01226547 60.52264003 29.27528003 59.31640625 30.5390625 C58.73648926 31.14137695 58.15657227 31.74369141 57.55908203 32.36425781 C55.77364026 34.23748986 54.06074558 36.16174839 52.375 38.125 C49.02117003 42.01277305 45.54571076 45.78586797 42.06176758 49.55664062 C38.78293072 53.11434617 35.61365083 56.74457675 32.53515625 60.4765625 C30.82639766 62.17227713 29.16082135 62.97320119 27 64 C24.43655357 58.10168229 21.87773152 52.20137285 19.32177734 46.29980469 C18.45592202 44.30197227 17.5890961 42.30456017 16.72119141 40.30761719 C10.92004515 26.95758652 5.32517444 13.54721403 0 0 Z " fill="#FAD85C" transform="translate(90,136)"/>
<path d="M0 0 C3.08631769 1.47090745 5.09624351 2.89414748 7.42578125 5.4140625 C8.05806641 6.09339844 8.69035156 6.77273438 9.34179688 7.47265625 C9.99212891 8.18292969 10.64246094 8.89320313 11.3125 9.625 C11.95123047 10.31207031 12.58996094 10.99914062 13.24804688 11.70703125 C17.07745776 15.8429502 20.81651374 20.04787947 24.49487305 24.31860352 C26.10246406 26.16750657 26.10246406 26.16750657 28.5 28.3125 C30.9805766 32.7568664 29.73626695 37.11882282 29 42 C28.852835 43.52070505 28.70682629 45.04152291 28.5625 46.5625 C28 50 28 50 26 52 C23.97087097 52.69607544 23.97087097 52.69607544 21.44604492 53.32861328 C20.50133835 53.56871124 19.55663177 53.8088092 18.58329773 54.05618286 C17.55936417 54.30834564 16.5354306 54.56050842 15.48046875 54.8203125 C14.42974686 55.08383514 13.37902496 55.34735779 12.29646301 55.61886597 C10.07048572 56.17528546 7.84362417 56.72817743 5.6159668 57.27783203 C2.2095793 58.11954424 -1.19316018 58.97492657 -4.59570312 59.83203125 C-6.75760711 60.37061678 -8.91971028 60.90840352 -11.08203125 61.4453125 C-12.09989212 61.70152374 -13.11775299 61.95773499 -14.16645813 62.22171021 C-15.59770271 62.57240067 -15.59770271 62.57240067 -17.05786133 62.93017578 C-17.8934407 63.13732208 -18.72902008 63.34446838 -19.58992004 63.55789185 C-22.11113771 64.02038724 -24.44246647 64.07804559 -27 64 C-21.28311537 49.45627744 -15.22858818 35.08122274 -9 20.75 C-8.12083821 18.7214649 -7.24193077 16.69281954 -6.36328125 14.6640625 C-4.24510258 9.77477343 -2.1238471 4.88682925 0 0 Z " fill="#F9D85D" transform="translate(117,360)"/>
<path d="M0 0 C4.20976414 1.31430006 8.06599303 2.91086986 12.00537109 4.88916016 C13.74649673 5.75983627 13.74649673 5.75983627 15.52279663 6.64810181 C16.77305375 7.27833575 18.02326635 7.90865803 19.2734375 8.5390625 C20.56506088 9.18674137 21.85686259 9.83406471 23.14883423 10.48104858 C26.53387031 12.17736819 29.9164752 13.87848057 33.29858398 15.58062744 C36.75618474 17.31969289 40.21608028 19.05418011 43.67578125 20.7890625 C50.45276562 24.18825034 57.22718627 27.59250847 64 31 C64 31.66 64 32.32 64 33 C48.16 40.92 32.32 48.84 16 57 C12.61795165 53.61795165 10.47790529 50.05444509 8.01171875 45.984375 C6.38884845 43.57685479 4.91191036 41.88572772 2.91088867 39.84838867 C-0.58212533 35.79199603 -0.80057627 32.64889184 -0.5859375 27.44140625 C-0.57744781 26.65225327 -0.56895813 25.86310028 -0.56021118 25.05003357 C-0.52687457 22.55274384 -0.451646 20.05879751 -0.375 17.5625 C-0.34487428 15.860073 -0.31750305 14.15759489 -0.29296875 12.45507812 C-0.22714991 8.30211574 -0.12377745 4.15162274 0 0 Z " fill="#F9D85D" transform="translate(384,248)"/>
</svg>
