<?xml version="1.0" encoding="UTF-8"?>
<svg version="1.1" xmlns="http://www.w3.org/2000/svg" width="512" height="512">
<path d="M0 0 C7.43302896 4.52925544 12.77559127 11.76274196 18.14453125 18.453125 C20.88553781 21.82003069 23.71734209 25.09636302 26.5625 28.375 C31.69758889 34.32433612 36.54209068 40.44469032 41.27392578 46.71923828 C42.74214591 48.65440229 44.22701189 50.57597095 45.71484375 52.49609375 C53.30280419 62.30555941 60.60543479 72.27594482 67.625 82.5 C68.18864258 83.32016602 68.75228516 84.14033203 69.33300781 84.98535156 C77.67587128 97.17947613 85.4878229 109.562566 92.625 122.5 C93.09035156 123.33499023 93.55570312 124.16998047 94.03515625 125.03027344 C101.10767993 137.79261351 106.95269136 150.6748278 111.625 164.5 C111.89602539 165.26425293 112.16705078 166.02850586 112.44628906 166.81591797 C122.13876783 194.67421269 117.14599852 226.54543716 104.80615234 252.79174805 C98.33502282 265.95183136 89.76069869 276.98440256 79.625 287.5 C78.66013672 288.55960937 78.66013672 288.55960937 77.67578125 289.640625 C58.17606628 310.45160063 27.77806758 323.18316297 -0.375 324.5 C-0.045 325.49 0.285 326.48 0.625 327.5 C3.67873859 363.23084755 -7.6140292 400.47229474 -28.375 429.5 C-28.76848633 430.05429687 -29.16197266 430.60859375 -29.56738281 431.1796875 C-44.13551075 451.39573074 -62.69423839 467.40380943 -84.375 479.5 C-85.47199219 480.11746094 -86.56898438 480.73492187 -87.69921875 481.37109375 C-110.57186923 493.52472696 -136.57301448 498.94084236 -162.3125 498.875 C-163.07857574 498.87478851 -163.84465149 498.87457703 -164.63394165 498.87435913 C-177.54953733 498.83890581 -189.8367 497.79446117 -202.375 494.5 C-203.0959082 494.31276367 -203.81681641 494.12552734 -204.55957031 493.93261719 C-209.24866105 492.67276404 -213.81689724 491.1690835 -218.375 489.5 C-219.04273438 489.25942871 -219.71046875 489.01885742 -220.3984375 488.77099609 C-259.78689444 474.3254653 -292.48083624 444.04908492 -310.46191406 406.21289062 C-315.01530002 396.26396935 -318.59935266 386.20248555 -321.46484375 375.6484375 C-322.05421729 372.65980891 -322.05421729 372.65980891 -323.375 371.5 C-325.6408449 371.05700787 -327.9130345 370.64636076 -330.1875 370.25 C-350.71093208 366.35657345 -368.95221133 354.27843309 -381.375 337.5 C-393.93519503 318.89129457 -398.6290669 296.70433548 -394.60546875 274.5859375 C-386.7413546 239.23291509 -364.52382281 205.70611082 -345.375 175.5 C-344.83633301 174.64825195 -344.29766602 173.79650391 -343.74267578 172.91894531 C-342.1761985 170.45713502 -340.59200497 168.00786217 -339 165.5625 C-338.5366626 164.83538818 -338.0733252 164.10827637 -337.59594727 163.35913086 C-333.58259978 157.28079481 -328.6740769 151.44409225 -321.375 149.5 C-314.01117051 148.5831405 -307.18004339 148.87805956 -300.6875 152.67578125 C-295.87319809 156.47354982 -292.67976326 161.40451342 -289.375 166.5 C-288.82730957 167.33966309 -288.27961914 168.17932617 -287.71533203 169.04443359 C-281.41282781 178.74964229 -275.28779203 188.55251781 -269.375 198.5 C-266.75131106 195.9787659 -264.52665552 193.48179126 -262.484375 190.47265625 C-261.6797583 189.30041504 -261.6797583 189.30041504 -260.85888672 188.10449219 C-260.2867041 187.26563477 -259.71452148 186.42677734 -259.125 185.5625 C-252.13342833 175.43984752 -244.73435562 165.67227791 -237.23095703 155.92626953 C-235.00966563 153.02240292 -232.82622575 150.09194556 -230.64794922 147.15576172 C-224.5856685 138.98556661 -218.23676569 131.08033057 -211.77929688 123.22021484 C-209.95084246 120.98042176 -208.16280165 118.70981093 -206.375 116.4375 C-202.47343664 111.53786229 -198.36220453 106.82768461 -194.23364258 102.11938477 C-191.6960634 99.21723845 -189.19058194 96.31064957 -186.8203125 93.26953125 C-181.71925781 86.72994383 -176.82039442 81.14172153 -168.375 79.5 C-160.20926615 78.58689877 -154.19775412 79.88495289 -147.375 84.5 C-142.16940011 88.70158481 -138.15967878 94.12526991 -133.98828125 99.3125 C-130.35052381 103.79681577 -126.52492402 108.12181706 -122.71630859 112.4609375 C-122.18215332 113.07195312 -121.64799805 113.68296875 -121.09765625 114.3125 C-120.62078369 114.85519531 -120.14391113 115.39789063 -119.65258789 115.95703125 C-118.375 117.5 -118.375 117.5 -116.375 120.5 C-115.715 120.5 -115.055 120.5 -114.375 120.5 C-112.871679 118.51419262 -112.871679 118.51419262 -111.35546875 115.91796875 C-110.7519458 114.93256104 -110.14842285 113.94715332 -109.52661133 112.93188477 C-108.87845459 111.86123779 -108.23029785 110.79059082 -107.5625 109.6875 C-101.2888369 99.48610933 -94.78167757 89.51524364 -87.91601562 79.70410156 C-86.39936865 77.53485427 -84.8943018 75.35793868 -83.390625 73.1796875 C-76.59457839 63.38637554 -69.40605666 53.94388608 -62.01953125 44.58984375 C-60.50224167 42.66169666 -58.99817675 40.72426354 -57.5 38.78125 C-51.23299298 30.67504941 -44.65482652 22.88308173 -37.87353516 15.20263672 C-36.4932936 13.63440528 -35.12683627 12.05407042 -33.76171875 10.47265625 C-24.98226765 0.42424246 -13.69028807 -6.20298481 0 0 Z M-12.375 59.5 C-33.80442467 84.19322482 -52.6691606 111.13260364 -69.12402344 139.37744141 C-70.6139382 141.90541153 -72.14061741 144.41007014 -73.6640625 146.91796875 C-74.79784728 148.81973319 -75.93066484 150.7220746 -77.0625 152.625 C-77.61687744 153.52661865 -78.17125488 154.4282373 -78.74243164 155.35717773 C-79.24379639 156.21126221 -79.74516113 157.06534668 -80.26171875 157.9453125 C-80.94560669 159.08250732 -80.94560669 159.08250732 -81.64331055 160.24267578 C-82.61860673 162.54286439 -82.61860673 162.54286439 -81.65698242 165.07495117 C-80.54419498 167.17994405 -79.44275888 168.98849688 -77.9765625 170.85546875 C-77.50347656 171.46817627 -77.03039062 172.08088379 -76.54296875 172.7121582 C-76.03378906 173.364021 -75.52460938 174.01588379 -75 174.6875 C-68.36968277 183.35969005 -62.31029774 192.34224057 -56.375 201.5 C-55.88531738 202.25120117 -55.39563477 203.00240234 -54.89111328 203.77636719 C-42.85116269 222.29875738 -32.23564069 241.56943339 -22.12890625 261.203125 C-19.30067831 266.68480852 -16.35028503 272.09701246 -13.375 277.5 C7.66326332 276.90316983 26.91975585 270.949893 42.625 256.5 C43.46546875 255.75105469 44.3059375 255.00210938 45.171875 254.23046875 C60.79874303 239.5743607 69.20130834 218.86990829 70.125 197.625 C69.1643124 165.77998511 44.89256495 134.72183677 27.625 109.5 C27.109375 108.74589844 26.59375 107.99179688 26.0625 107.21484375 C18.8571734 96.72583967 11.20002828 86.63564346 3.31347656 76.65136719 C1.65859252 74.5428018 0.02538515 72.41923117 -1.6015625 70.2890625 C-2.10292725 69.63703857 -2.60429199 68.98501465 -3.12084961 68.31323242 C-4.05643977 67.09593535 -4.98724386 65.87493909 -5.91235352 64.6496582 C-8.01512791 61.93277393 -9.03845442 60.61218186 -12.375 59.5 Z M-163.375 139.5 C-164.08462891 140.39138672 -164.08462891 140.39138672 -164.80859375 141.30078125 C-168.42369422 145.83198905 -172.0611055 150.34111272 -175.75 154.8125 C-180.33330142 160.40208372 -184.73878329 166.11863079 -189.12207031 171.86474609 C-190.33143856 173.44314604 -191.55223663 175.01276824 -192.7734375 176.58203125 C-199.87651929 185.71949084 -206.65318489 195.0795006 -213.375 204.5 C-213.9097998 205.24926758 -214.44459961 205.99853516 -214.99560547 206.77050781 C-232.65090206 227.82573667 -232.65090206 227.82573667 -241.15234375 251.859375 C-240.34673396 255.63238166 -239.23914751 259.11929182 -237.9375 262.75 C-231.86836228 280.51444211 -231.1016471 298.66722308 -237.375 316.5 C-237.73722656 317.54542969 -238.09945312 318.59085938 -238.47265625 319.66796875 C-245.7166776 338.64976028 -258.83148313 350.58570358 -275.375 361.5 C-269.93900832 388.83527244 -252.67446707 414.10255848 -230.0625 430.25 C-203.09723571 447.95996574 -172.0764862 456.18116498 -139.9375 449.875 C-110.53021112 443.48248772 -83.21609355 426.382251 -66.53515625 401.04296875 C-52.01380959 377.59461925 -42.0073025 349.21068358 -48.375 321.5 C-54.64120102 295.43889618 -68.18083343 271.05544832 -82.375 248.5 C-83.25961914 247.09113525 -83.25961914 247.09113525 -84.16210938 245.65380859 C-91.5141611 233.97798113 -98.89272908 222.35860729 -107.08837891 211.25341797 C-108.55614489 209.25313423 -110.00354162 207.23896032 -111.44921875 205.22265625 C-124.36761114 187.21408923 -137.70751528 169.58521602 -151.75 152.4375 C-152.33313965 151.72279541 -152.9162793 151.00809082 -153.51708984 150.27172852 C-156.64017933 146.47927696 -159.83155991 142.90409132 -163.375 139.5 Z M-314.375 216.5 C-339.78756608 253.91494462 -339.78756608 253.91494462 -347.9140625 295.85546875 C-345.04460268 306.74253688 -338.93795547 313.90593117 -329.875 320.25 C-321.82180985 324.27659508 -312.9080392 324.95606295 -304.18359375 322.66015625 C-294.65397325 319.04547261 -287.82088386 313.7158795 -282.875 304.75 C-277.80960023 293.47311838 -279.3152981 284.82286302 -283.375 273.5 C-285.08007033 269.40124817 -286.97363935 265.41786745 -288.9375 261.4375 C-289.45981201 260.3647583 -289.98212402 259.2920166 -290.52026367 258.18676758 C-295.4761535 248.10548558 -300.81252574 238.25727376 -306.375 228.5 C-306.75092285 227.83500488 -307.1268457 227.17000977 -307.51416016 226.48486328 C-310.34721376 221.43387779 -310.34721376 221.43387779 -313.375 216.5 C-313.705 216.5 -314.035 216.5 -314.375 216.5 Z " fill="#000000" transform="translate(395.375,7.5)"/>
<path d="M0 0 C4.18921109 1.3142623 6.20370255 2.83444162 8.25 6.625 C16.78658527 26.28394118 13.60692465 51.52222079 6 71 C2.16038744 79.77447253 -2.74602022 87.73305167 -9 95 C-9.54914063 95.66902344 -10.09828125 96.33804688 -10.6640625 97.02734375 C-16.21452649 103.7125085 -16.21452649 103.7125085 -20.3046875 104.37109375 C-27.24515642 104.55040678 -27.24515642 104.55040678 -31 101.8125 C-33.81316813 97.85648232 -35.08689206 95.62777785 -34.82421875 90.70703125 C-33.85637148 86.35401199 -32.33007682 84.42318849 -29.4375 81.0625 C-15.62962114 64.17181608 -11.22620402 45.58423218 -13 24 C-13.44157243 21.6136545 -13.97696687 19.27410223 -14.55737305 16.91821289 C-15.44015953 13.09248017 -15.29598828 9.70084353 -14 6 C-10.28093597 0.90854896 -6.33669333 -1.03691345 0 0 Z " fill="#000000" transform="translate(314,308)"/>
<path d="M0 0 C5.21527282 2.88702603 8.50038965 6.58842989 12.125 11.1875 C12.68050537 11.88222412 13.23601074 12.57694824 13.80834961 13.29272461 C34.33333745 39.25002932 34.33333745 39.25002932 35.5 47.5625 C34.90244849 51.67066662 33.60509401 53.79945593 31 57 C27.89727468 59.06848355 26.84031783 59.36619934 23.25 59.5 C22.43015625 59.5515625 21.6103125 59.603125 20.765625 59.65625 C13.48065275 57.92761252 9.175761 50.88796929 5.25 45 C1.35646425 39.3039702 -2.66163683 33.80224563 -7 28.4375 C-16 17.1479986 -16 17.1479986 -16 10.3125 C-14.6888789 5.96941137 -12.86202865 3.34836557 -9.1875 0.6875 C-5.93315587 -0.33529387 -3.39535546 -0.35124367 0 0 Z " fill="#000000" transform="translate(390,98)"/>
<path d="M0 0 C5.05214421 4.58914447 5.05214421 4.58914447 5.38671875 9.69140625 C5.33091083 13.54215254 4.59122431 15.8107743 2.13671875 18.87890625 C-4.63061222 24.78904197 -15.19730439 25.3942957 -23.86328125 25.87890625 C-24.64703125 25.94335938 -25.43078125 26.0078125 -26.23828125 26.07421875 C-31.98831805 26.36560575 -35.16676199 25.23356287 -39.86328125 21.87890625 C-42.70657479 17.61396594 -42.60259192 13.88287213 -41.86328125 8.87890625 C-40.5690541 5.92325262 -39.47419629 5.05466879 -36.86328125 2.87890625 C-30.75204946 1.05637704 -24.54176594 0.10021832 -18.23828125 -0.80859375 C-16.86542969 -1.02225586 -16.86542969 -1.02225586 -15.46484375 -1.24023438 C-4.66752359 -2.80834229 -4.66752359 -2.80834229 0 0 Z " fill="#000000" transform="translate(262.86328125,411.12109375)"/>
<path d="M0 0 C0.86367188 0.13664063 1.72734375 0.27328125 2.6171875 0.4140625 C8.57680152 2.69765292 11.27839394 9.80248954 13.9140625 15.234375 C15.65002047 19.73666599 16.14950762 23.64316397 15.125 28.375 C13.08186327 31.87752011 11.02712767 34.14861702 7.125 35.375 C1.83219262 35.86507476 -1.39817389 35.23120356 -5.875 32.375 C-7.65254254 30.07483995 -8.91260907 27.60510257 -10.1875 25 C-10.53361328 24.34 -10.87972656 23.68 -11.23632812 23 C-13.42089342 18.72455448 -15.29012656 14.92506317 -14.4921875 10.0234375 C-12.47448262 3.84288888 -12.47448262 3.84288888 -9.3125 1.375 C-8.508125 1.045 -7.70375 0.715 -6.875 0.375 C-4.24735174 -0.93882413 -2.87429201 -0.50321433 0 0 Z " fill="#000000" transform="translate(429.875,157.625)"/>
</svg>
