<?xml version="1.0" encoding="UTF-8"?>
<svg version="1.1" xmlns="http://www.w3.org/2000/svg" width="512" height="512">
<path d="M0 0 C1.56929239 0.65713206 3.13895241 1.3133869 4.70898438 1.96875 C8.49778596 3.55246207 12.28147665 5.14781177 16.0625 6.75 C16.0625 7.41 16.0625 8.07 16.0625 8.75 C15.25208252 9.07685791 14.44166504 9.40371582 13.60668945 9.74047852 C10.53082476 10.98522643 7.45785852 12.23668841 4.38647461 13.49243164 C3.06982768 14.02922215 1.75215384 14.56350238 0.43334961 15.0949707 C-12.74827978 20.41087389 -25.2361534 26.16974685 -35.9375 35.75 C-36.83210938 36.53890625 -37.72671875 37.3278125 -38.6484375 38.140625 C-55.234948 53.65853679 -65.09896388 75.70638412 -66.21875 98.38671875 C-66.93950948 123.16783101 -59.00602177 147.13440344 -41.95263672 165.39135742 C-25.88467595 181.74156315 -4.96863611 189.62433378 16.0625 197.75 C16.0625 198.41 16.0625 199.07 16.0625 199.75 C-20.76263092 215.67778016 -20.76263092 215.67778016 -38.9375 218.75 C-39.63746094 218.87262207 -40.33742188 218.99524414 -41.05859375 219.12158203 C-44.67568674 219.74554793 -48.29507566 220.29723111 -51.9375 220.75 C-51.59976562 221.50023437 -51.26203125 222.25046875 -50.9140625 223.0234375 C-43.30851167 240.47663795 -42.04950096 259.74773702 -48.9375 277.75 C-56.02978621 293.6582673 -66.32666231 305.0664449 -81.75 313.0625 C-82.36488281 313.38814941 -82.97976563 313.71379883 -83.61328125 314.04931641 C-97.16499095 320.72450538 -111.41172669 320.18141537 -126.13061523 320.13818359 C-128.46446986 320.1422544 -130.79832255 320.14759913 -133.13217163 320.15411377 C-139.4400404 320.16773326 -145.74776116 320.16251068 -152.05563235 320.15297651 C-158.003181 320.14612554 -163.9507118 320.15136994 -169.89826096 320.1557581 C-182.39670327 320.16429108 -194.89507933 320.15451119 -207.39351077 320.138357 C-218.09025453 320.12495885 -228.78690058 320.12728181 -239.48364258 320.14111328 C-251.93914443 320.15721165 -264.39458834 320.16346401 -276.85009915 320.15427649 C-283.43102395 320.14961461 -290.01188163 320.14893407 -296.59280205 320.15888596 C-302.78255617 320.16759333 -308.97212696 320.16146498 -315.16186142 320.14420319 C-317.42485691 320.14025827 -319.68786801 320.1413379 -321.95085716 320.14799118 C-347.19255505 320.21532377 -369.39429294 315.54589393 -388.33984375 297.47265625 C-403.36534758 281.72412066 -412.13464626 261.63323431 -411.9375 239.75 C-410.95390894 216.05439713 -402.06980313 196.04683953 -384.75 179.5625 C-367.68825821 165.08227392 -347.66193193 160.70768957 -325.9375 159.75 C-325.68097656 159.05777344 -325.42445313 158.36554688 -325.16015625 157.65234375 C-319.33329489 142.76147584 -311.271052 130.93476891 -299.9375 119.75 C-298.60912109 118.40615234 -298.60912109 118.40615234 -297.25390625 117.03515625 C-276.67096926 97.18623187 -249.94166483 90.24107627 -221.9765625 90.53515625 C-204.42550738 90.97352421 -186.5479414 97.00970574 -171.9375 106.75 C-171.98390625 105.59886719 -172.0303125 104.44773437 -172.078125 103.26171875 C-172.95379339 71.75102582 -160.70407295 44.29676078 -139.37890625 21.19140625 C-100.62681107 -17.56068893 -48.2849991 -20.47859017 0 0 Z " fill="#B4D0CE" transform="translate(454.9375,107.25)"/>
<path d="M0 0 C1.56929239 0.65713206 3.13895241 1.3133869 4.70898438 1.96875 C8.49778596 3.55246207 12.28147665 5.14781177 16.0625 6.75 C16.0625 7.41 16.0625 8.07 16.0625 8.75 C15.25208252 9.07685791 14.44166504 9.40371582 13.60668945 9.74047852 C10.53082476 10.98522643 7.45785852 12.23668841 4.38647461 13.49243164 C3.06982768 14.02922215 1.75215384 14.56350238 0.43334961 15.0949707 C-12.74827978 20.41087389 -25.2361534 26.16974685 -35.9375 35.75 C-36.83210937 36.53890625 -37.72671875 37.3278125 -38.6484375 38.140625 C-55.234948 53.65853679 -65.09896388 75.70638412 -66.21875 98.38671875 C-66.93950948 123.16783101 -59.00602177 147.13440344 -41.95263672 165.39135742 C-25.88467595 181.74156315 -4.96863611 189.62433378 16.0625 197.75 C16.0625 198.41 16.0625 199.07 16.0625 199.75 C-21.10905154 215.82761565 -21.10905154 215.82761565 -36.74902344 218.38916016 C-38.21310531 218.63056054 -39.67262461 218.90138778 -41.12597656 219.20068359 C-45.5322736 220.10192575 -49.46546137 220.68613923 -53.9375 219.75 C-57.51471294 216.61333052 -59.54256145 212.81618915 -61.9375 208.75 C-71.8026173 196.53512051 -86.66028181 189.45515219 -101.9375 186.75 C-103.76341266 186.62010376 -105.59231593 186.52827875 -107.421875 186.46875 C-108.94748047 186.41267578 -108.94748047 186.41267578 -110.50390625 186.35546875 C-112.64191002 186.28463918 -114.77993122 186.21433417 -116.91796875 186.14453125 C-117.92988281 186.10714844 -118.94179688 186.06976563 -119.984375 186.03125 C-120.91088867 186.00095703 -121.83740234 185.97066406 -122.79199219 185.93945312 C-124.9375 185.75 -124.9375 185.75 -125.9375 184.75 C-126.24235617 183.02650623 -126.50504187 181.29552152 -126.75 179.5625 C-131.1644978 152.66264652 -145.41273644 128.604296 -166.9375 111.75 C-167.83597656 111.38003906 -168.73445313 111.01007813 -169.66015625 110.62890625 C-171.9375 108.75 -171.9375 108.75 -172.3984375 106.85327148 C-172.58319618 104.2991439 -172.57632424 101.80983284 -172.5 99.25 C-172.48340332 98.31526855 -172.46680664 97.38053711 -172.44970703 96.41748047 C-171.48356281 66.74734154 -157.78273155 39.59523155 -136.9375 18.75 C-97.33197249 -17.37849903 -47.74292245 -20.24868511 0 0 Z " fill="#FDAD00" transform="translate(454.9375,107.25)"/>
</svg>
