<?xml version="1.0" encoding="UTF-8"?>
<svg version="1.1" xmlns="http://www.w3.org/2000/svg" width="512" height="512">
<path d="M0 0 C2 2.9375 2 2.9375 1.98046875 6.26953125 C0.79693504 10.69717331 -1.27408992 12.74326094 -4.6875 15.5625 C-5.20505859 16.01367188 -5.72261719 16.46484375 -6.25585938 16.9296875 C-8.33168307 18.72890704 -10.43719696 20.48555211 -12.57910156 22.20556641 C-17.88029889 26.49453384 -21.83062393 31.5799229 -26 36.9375 C-26.67289063 37.79472656 -27.34578125 38.65195313 -28.0390625 39.53515625 C-41.5214218 57.34153915 -50.59494677 78.0745253 -55 99.9375 C-55.22429687 100.97777344 -55.44859375 102.01804687 -55.6796875 103.08984375 C-62.2892262 139.71393148 -53.16801076 179.26340792 -32.50512695 209.98413086 C-26.94794089 217.88858578 -20.74012358 225.02427533 -14 231.9375 C-13.43410156 232.56527344 -12.86820313 233.19304687 -12.28515625 233.83984375 C11.24696791 259.28806962 49.86873852 272.78242339 83.69921875 274.15625 C117.58788834 275.0408267 150.75886094 264.87139956 177.81640625 244.28515625 C180.2758352 242.76726182 182.12882284 242.20447732 185 241.9375 C187.2831838 243.0790919 189.19012683 244.12762683 191 245.9375 C191.60667241 252.75680504 189.9834005 257.33325339 187.0625 263.4375 C186.65572021 264.30971191 186.24894043 265.18192383 185.82983398 266.08056641 C163.76690646 312.68855392 125.9137047 348.58627175 77.203125 366.15234375 C27.45861895 383.49674193 -25.63687848 379.64248205 -72.99902344 356.95800781 C-76.15457372 355.41508175 -79.06947557 353.89118295 -82 351.9375 C-84.94239937 351.62815805 -84.94239937 351.62815805 -88.33227539 351.66625977 C-89.64116226 351.65607315 -90.95004913 351.64588654 -92.29859924 351.63539124 C-92.99855074 351.63445024 -93.69850224 351.63350925 -94.41966438 351.63253975 C-96.61975521 351.62886938 -98.81939788 351.61212061 -101.01939392 351.59178162 C-107.27448126 351.53646387 -113.52963684 351.50583973 -119.78491211 351.48120117 C-123.61404943 351.46521157 -127.44287442 351.43486502 -131.27184868 351.39643669 C-132.72328784 351.38487531 -134.17478319 351.37885712 -135.62626839 351.37875557 C-147.90311563 351.37758615 -158.37004488 350.12849631 -168 341.9375 C-174.42836715 335.03191782 -177.57147509 327.9460311 -177.4375 318.5625 C-177.42920166 317.81299072 -177.42090332 317.06348145 -177.41235352 316.29125977 C-177.06457412 304.89374939 -171.55479335 298.34611457 -163.625 290.625 C-159.67117149 288.0832531 -154.77488875 285.9375 -150 285.9375 C-150.49028687 285.04164185 -150.49028687 285.04164185 -150.99047852 284.12768555 C-175.9498235 238.2247861 -184.59240092 187.84881348 -171.0625 136.7734375 C-170.02932946 134.01578377 -169.38623152 132.62503346 -167 130.9375 C-163.8125 130.75 -163.8125 130.75 -161 130.9375 C-160.75636719 129.65488281 -160.51273438 128.37226563 -160.26171875 127.05078125 C-159.08000088 121.75324669 -157.08630904 117.03650372 -154.8125 112.125 C-154.41756348 111.25423828 -154.02262695 110.38347656 -153.61572266 109.48632812 C-150.83511829 103.457396 -147.75424046 97.81064986 -144.1171875 92.25 C-142.78671648 90.04187185 -142.78671648 90.04187185 -143.29296875 87.828125 C-143.52628906 87.20421875 -143.75960937 86.5803125 -144 85.9375 C-144.65597473 81.06454487 -144.03450048 78.50791402 -141.1875 74.625 C-139.19619776 72.12235102 -137.71108219 70.74488813 -135 68.9375 C-133.93652344 69.05222656 -132.87304688 69.16695313 -131.77734375 69.28515625 C-126.13705215 68.76603944 -124.09820947 65.54221729 -120.5625 61.375 C-110.74138376 50.15819743 -110.74138376 50.15819743 -105 45.9375 C-104.34 45.9375 -103.68 45.9375 -103 45.9375 C-103.4021875 44.1121875 -103.4021875 44.1121875 -103.8125 42.25 C-104.20203907 38.88579894 -104.23061536 38.2635424 -102.1875 35.375 C-101.15216157 34.52816068 -100.08496907 33.71974332 -99 32.9375 C-98.34 32.42832031 -97.68 31.91914062 -97 31.39453125 C-79.34168386 18.3595918 -21.3488481 -14.67733307 0 0 Z " fill="#4A3422" transform="translate(246,67.0625)"/>
<path d="M0 0 C-0.928125 0.845625 -1.85625 1.69125 -2.8125 2.5625 C-25.80038308 25.68970358 -38.1903565 58.34734616 -43 90 C-43.185625 91.08925781 -43.37125 92.17851562 -43.5625 93.30078125 C-48.30518193 133.40185074 -35.87950378 176.60369427 -11.23193359 208.46142578 C-8.64730674 211.68939218 -5.89699052 214.74970735 -3.07421875 217.76953125 C-1.17519913 219.81160319 0.59837655 221.91451582 2.375 224.0625 C26.53316933 251.64814415 65.39803752 267.01666875 101 271 C105.96249073 271.26017529 110.90659335 271.28738741 115.875 271.25 C116.8669487 271.24435028 116.8669487 271.24435028 117.87893677 271.23858643 C143.84191438 271.06536143 169.24662891 265.32722336 192.14453125 252.78515625 C192.75683594 252.52605469 193.36914062 252.26695312 194 252 C194.66 252.33 195.32 252.66 196 253 C187.50223378 267.84030188 177.77130395 280.61859798 166 293 C165.38125 293.68320312 164.7625 294.36640625 164.125 295.0703125 C153.38571424 306.52874686 139.6797343 315.45669714 126 323 C125.41557129 323.33306152 124.83114258 323.66612305 124.22900391 324.00927734 C106.56296958 334.0033166 86.13270394 340.58579996 66 343 C64.70320312 343.18046875 63.40640625 343.3609375 62.0703125 343.546875 C54.91108158 344.31953047 47.69292356 344.24339876 40.5 344.25 C39.7392215 344.25100708 38.97844299 344.25201416 38.1946106 344.25305176 C27.13872588 344.24314309 16.76748351 343.68615565 6 341 C4.52437988 340.6792275 3.04776339 340.3630129 1.5703125 340.05078125 C-6.23256732 338.36385374 -13.72371979 336.36103361 -21 333 C-21 332.67 -21 332.34 -21 332 C-19.30641357 331.98598145 -19.30641357 331.98598145 -17.57861328 331.97167969 C-13.3475958 331.93149108 -9.11728359 331.86565536 -4.88671875 331.79248047 C-3.06356946 331.76443698 -1.24030234 331.74314064 0.58300781 331.72900391 C13.46892376 331.62315027 24.33937634 331.34778594 34.2421875 322.06640625 C40.7766771 314.3847507 42.36892915 306.11140424 42.28125 296.32421875 C41.87776193 291.55521395 40.42593312 288.07524738 38 284 C37.49146484 283.06220703 37.49146484 283.06220703 36.97265625 282.10546875 C33.64155725 276.66427857 28.66187683 273.73112969 23 271 C21.2984375 270.690625 21.2984375 270.690625 19.5625 270.375 C17 269 17 269 16.18359375 266.60546875 C15.71209965 264.50664645 15.26013313 262.40337455 14.82421875 260.296875 C12.01224808 249.04899231 4.24357912 239.64395096 -5.1875 233.1875 C-17.74815527 225.79887925 -32.03916726 223.69654282 -46.30859375 226.6953125 C-49.02180556 227.61126202 -51.46257294 228.67594679 -54 230 C-54.87011719 230.44730469 -55.74023438 230.89460937 -56.63671875 231.35546875 C-61.729514 234.19494951 -65.56732649 237.23213362 -69.234375 241.77734375 C-71 243 -71 243 -73.77734375 242.7109375 C-74.84082031 242.47632813 -75.90429688 242.24171875 -77 242 C-89.19367059 241.12800245 -96.73446948 242.99267341 -106.17578125 250.6328125 C-108.03637647 252.02726288 -109.89451349 253.02394665 -112 254 C-131.55448236 216.23106325 -142.26891722 170.50585518 -129.421875 128.5546875 C-129.16374023 127.77206543 -128.90560547 126.98944336 -128.63964844 126.18310547 C-127.7009176 122.97923861 -127.52898338 120.29711632 -128 117 C-129.86124923 115.01760473 -129.86124923 115.01760473 -132 114 C-131.46507277 107.75918233 -129.44127813 102.64746191 -126.9375 96.9375 C-126.54062988 96.01590088 -126.14375977 95.09430176 -125.73486328 94.14477539 C-122.74302924 87.33689917 -119.3090175 80.99413685 -115.3359375 74.71484375 C-113.77886717 72.17409987 -113.77886717 72.17409987 -114.26171875 69.83203125 C-114.62716797 68.92517578 -114.62716797 68.92517578 -115 68 C-115.65597473 63.12704487 -115.03450048 60.57041402 -112.1875 56.6875 C-110.19619776 54.18485102 -108.71108219 52.80738813 -106 51 C-104.93394531 51.1134375 -103.86789063 51.226875 -102.76953125 51.34375 C-97.15488888 50.83174116 -95.1930578 47.65337865 -91.6875 43.5 C-90.38284188 42.02659549 -89.07295177 40.55780681 -87.7578125 39.09375 C-86.80503418 38.03220703 -86.80503418 38.03220703 -85.83300781 36.94921875 C-82.26687827 33.15700001 -78.23016352 30.02581109 -74 27 C-73.2265625 27.5259375 -73.2265625 27.5259375 -72.4375 28.0625 C-68.92935492 29.41178657 -66.6247652 28.87073164 -63 28 C-60.19603238 26.3768512 -60.19603238 26.3768512 -57.5 24.1875 C-43.62998622 13.96427984 -27.3721521 6.26789153 -11 1 C-9.1746875 0.40058594 -9.1746875 0.40058594 -7.3125 -0.2109375 C-4.24388134 -0.94190562 -2.86631276 -1.1465251 0 0 Z " fill="#FAC945" transform="translate(217,85)"/>
<path d="M0 0 C8.73494672 5.96641276 14.67677374 14.67849095 17 25 C17.28050292 27.35622451 17.49178991 29.68411543 17.59375 32.0546875 C18.12730685 34.60960395 18.9054858 35.460324 21 37 C23.29632816 37.64450741 23.29632816 37.64450741 25.8125 37.9375 C32.11083121 39.0818189 36.06071143 41.36699273 39.875 46.5625 C42.74688284 51.53485379 42.91791501 56.40672347 42 62 C39.64465564 66.89186906 36.2826542 69.81078942 32 73 C28.88403558 74.03865481 26.7094535 74.13330012 23.44059753 74.14717102 C22.28399124 74.15432632 21.12738495 74.16148163 19.93572998 74.16885376 C18.03044525 74.17288712 18.03044525 74.17288712 16.08666992 74.17700195 C14.73637213 74.18326798 13.38607605 74.18991491 12.03578186 74.19691467 C7.60068967 74.2179393 3.16559719 74.22831492 -1.26953125 74.23828125 C-2.7970602 74.24232927 -4.32458896 74.24644621 -5.85211754 74.25063133 C-13.02821578 74.26967877 -20.20430376 74.28391125 -27.38042241 74.2922433 C-35.66139709 74.30201726 -43.94210457 74.32834256 -52.22298509 74.36874419 C-58.62563644 74.3989093 -65.0282112 74.4137125 -71.43093222 74.41702431 C-75.25416814 74.41937419 -79.07711846 74.42832627 -82.90027809 74.45348549 C-86.49793618 74.47677872 -90.09512088 74.48099478 -93.69283485 74.47072411 C-95.63831257 74.46999331 -97.58376632 74.48907538 -99.52914429 74.50878906 C-110.17341243 74.44534899 -110.17341243 74.44534899 -115 70 C-119.76434345 64.70628505 -121.53566028 60.68684483 -121.37890625 53.6015625 C-120.53098536 47.77975512 -117.40454344 44.09554388 -112.875 40.5625 C-107.83666692 37.8242755 -103.53705551 37.77642455 -97.91015625 37.57421875 C-94.3267107 36.86714963 -93.14348121 35.9297582 -91 33 C-90.35102162 30.46762628 -90.35102162 30.46762628 -90.1875 27.75 C-89.24493329 21.51070888 -86.71853844 18.07873661 -82 14 C-76.82567306 10.23685314 -71.18227647 10.26886251 -65 11 C-62.98473831 11.96887581 -60.98166034 12.9641321 -59 14 C-55.4769504 14.48582895 -55.4769504 14.48582895 -52 13 C-50.10643049 10.89554572 -48.51839586 8.66249104 -46.87890625 6.35546875 C-43.85823597 2.56864094 -40.21131509 0.30514089 -36 -2 C-35.40960938 -2.3403125 -34.81921875 -2.680625 -34.2109375 -3.03125 C-23.57844021 -8.08988307 -9.73598448 -5.73987145 0 0 Z " fill="#09ADB1" transform="translate(204,329)"/>
<path d="M0 0 C3.07914194 0.62268362 4.0951784 2.03051071 6.10546875 4.42578125 C7.39697266 7.64624023 7.39697266 7.64624023 8.58203125 11.421875 C13.13769439 25.81971418 13.13769439 25.81971418 22.99072266 36.50720215 C31.94787802 40.09949399 42.12503041 40.21931315 51.65478516 40.23168945 C55.01503223 40.42069444 57.16377829 40.82741185 60.10546875 42.42578125 C62.62519546 46.20537132 62.69204202 47.94563132 62.10546875 52.42578125 C60.23768952 54.76330477 58.60247175 56.4768498 56.3828125 58.41015625 C55.19272277 59.52145407 54.00328975 60.63345549 52.81445312 61.74609375 C50.9326616 63.46667299 49.04251286 65.17618729 47.13842773 66.87207031 C39.73186397 73.05079032 39.73186397 73.05079032 35.4453125 81.29199219 C35.67654143 84.17512787 36.27942685 86.65656464 37.10546875 89.42578125 C37.45803379 91.37597333 37.79370232 93.32928801 38.11328125 95.28515625 C38.6685063 98.25029429 39.23760207 101.21201472 39.8203125 104.171875 C40.82637927 109.59305492 41.4399948 114.03718149 40.10546875 119.42578125 C37.92348362 121.93102344 36.68168138 122.3687392 33.38525391 122.69506836 C29.35948538 122.36453221 26.87026114 121.08864212 23.31640625 119.1796875 C22.69069733 118.8491185 22.0649884 118.5185495 21.4203186 118.17796326 C19.43398428 117.12623865 17.45701607 116.05826827 15.48046875 114.98828125 C13.49541817 113.9247237 11.50857074 112.86475726 9.51919556 111.80931091 C7.7178751 110.85197137 5.92201651 109.88437577 4.12646484 108.91625977 C0.74472207 107.09760245 0.74472207 107.09760245 -2.89453125 106.42578125 C-5.34350756 107.46145606 -7.54388859 108.54263593 -9.85546875 109.828125 C-10.52365631 110.18467667 -11.19184387 110.54122833 -11.88027954 110.90858459 C-14.73571815 112.4326749 -17.57566583 113.98471598 -20.41699219 115.53491211 C-22.4953759 116.66360717 -24.58129394 117.7773544 -26.66796875 118.890625 C-27.30253998 119.24374252 -27.93711121 119.59686005 -28.59091187 119.9606781 C-32.52505495 122.05679784 -35.44356333 122.94518172 -39.89453125 122.42578125 C-42.26953125 120.92578125 -42.26953125 120.92578125 -43.89453125 118.42578125 C-44.57190143 110.05469905 -42.49971746 101.86762087 -40.95532227 93.67822266 C-40.59354993 91.74639169 -40.24194758 89.81266491 -39.890625 87.87890625 C-39.56856079 86.16429199 -39.56856079 86.16429199 -39.23999023 84.41503906 C-38.81870599 80.76966505 -38.89116709 78.71037246 -41.16625977 75.79760742 C-41.69662842 75.27658447 -42.22699707 74.75556152 -42.7734375 74.21875 C-43.65539795 73.34379883 -43.65539795 73.34379883 -44.55517578 72.45117188 C-45.18278809 71.84466797 -45.81040039 71.23816406 -46.45703125 70.61328125 C-47.09237793 69.98744141 -47.72772461 69.36160156 -48.38232422 68.71679688 C-51.66861112 65.50175058 -55.00553346 62.39300898 -58.51953125 59.42578125 C-61.65715178 56.73350041 -64.05021237 54.19460679 -65.89453125 50.42578125 C-65.83333109 47.30457323 -65.58261916 45.39186498 -63.76269531 42.83666992 C-61.02089137 40.76598448 -58.44476783 40.56761829 -55.06640625 40.0390625 C-54.39917542 39.93232712 -53.73194458 39.82559174 -53.04449463 39.71562195 C-51.63326931 39.49236499 -50.22109512 39.27503613 -48.80810547 39.06323242 C-46.66399559 38.74120464 -44.52350153 38.40060068 -42.3828125 38.05664062 C-36.1728629 37.08506415 -30.20034034 36.29765969 -23.89453125 36.42578125 C-23.6205249 35.55252197 -23.34651855 34.6792627 -23.06420898 33.77954102 C-21.96264489 30.62108016 -20.67935358 27.75193435 -19.1796875 24.765625 C-18.65826172 23.72470703 -18.13683594 22.68378906 -17.59960938 21.61132812 C-17.05755859 20.53947266 -16.51550781 19.46761719 -15.95703125 18.36328125 C-15.41884766 17.28755859 -14.88066406 16.21183594 -14.32617188 15.10351562 C-6.92162787 0.37659889 -6.92162787 0.37659889 0 0 Z " fill="#493322" transform="translate(310.89453125,68.57421875)"/>
<path d="M0 0 C3.80259407 1.10939405 5.33595668 4.34630603 7.19311523 7.65966797 C8.429511 10.01588002 9.61428846 12.39184065 10.78515625 14.78125 C11.40197266 16.01004883 11.40197266 16.01004883 12.03125 17.26367188 C15.03515625 23.32637303 15.03515625 23.32637303 15.03515625 25.59375 C15.91816406 25.64273438 16.80117188 25.69171875 17.7109375 25.7421875 C39.3176377 27.08825475 39.3176377 27.08825475 44.03515625 31.59375 C44.80764136 35.73707923 45.00520025 38.05222993 42.7421875 41.6484375 C39.13530398 45.89085884 34.98189203 49.56016181 30.734375 53.1484375 C28.93897359 54.63627706 28.93897359 54.63627706 27.03515625 56.59375 C26.93954006 58.72880309 26.93954006 58.72880309 27.28515625 61.21875 C27.43791016 62.68054688 27.43791016 62.68054688 27.59375 64.171875 C27.91931728 66.69574173 28.28644398 69.19291655 28.6953125 71.703125 C28.85628418 72.76152588 28.85628418 72.76152588 29.02050781 73.84130859 C29.23530392 75.23812445 29.46975443 76.632087 29.72558594 78.02197266 C30.24949924 81.4875303 30.1298704 83.40025889 28.578125 86.5703125 C25.74316194 88.82608956 23.89564106 89.32370942 20.27832031 89.09082031 C15.00677712 87.92268123 10.49943743 84.72691776 5.92578125 81.97265625 C1.21759742 79.16256873 1.21759742 79.16256873 -4.08984375 79.03125 C-5.03859375 79.546875 -5.98734375 80.0625 -6.96484375 80.59375 C-7.5376709 80.90199707 -8.11049805 81.21024414 -8.70068359 81.52783203 C-11.23959519 82.91555595 -13.74115781 84.35978685 -16.22265625 85.84765625 C-21.03896069 88.56429078 -24.43597379 89.09691268 -29.96484375 88.59375 C-31.96484375 87.15625 -31.96484375 87.15625 -32.96484375 84.59375 C-33.416805 79.9712855 -33.18986216 75.78631111 -31.7109375 71.375 C-30.22361561 66.73489908 -28.94518081 62.46296009 -29.96484375 57.59375 C-33.80497962 51.36609998 -39.60464354 46.65557192 -45.24316406 42.09570312 C-47.64568667 39.99979855 -47.93032189 38.91135114 -48.27734375 35.71875 C-47.96484375 32.59375 -47.96484375 32.59375 -46.28955078 30.43139648 C-43.45456963 28.19038587 -42.03168886 28.11456691 -38.45703125 28.06640625 C-26.69625042 27.85571715 -26.69625042 27.85571715 -16.86523438 22.40917969 C-13.59771082 17.23975058 -11.53096074 11.65339086 -9.82666016 5.79858398 C-7.84531376 0.72959267 -5.29611615 0.24490711 0 0 Z " fill="#493322" transform="translate(398.96484375,197.40625)"/>
<path d="M0 0 C2.14353014 2.69998307 3.72271152 5.29412381 5.12109375 8.44140625 C5.68860352 9.68760742 5.68860352 9.68760742 6.26757812 10.95898438 C7.04833308 12.69645741 7.82437066 14.43605786 8.59570312 16.17773438 C8.97533203 17.00724609 9.35496094 17.83675781 9.74609375 18.69140625 C10.08310303 19.44623291 10.4201123 20.20105957 10.76733398 20.97875977 C12.24538711 23.40236876 13.55680354 24.5576376 16 26 C18.44815727 26.64351318 18.44815727 26.64351318 21.09765625 26.87890625 C22.06380859 26.99556641 23.02996094 27.11222656 24.02539062 27.23242188 C25.52875977 27.39581055 25.52875977 27.39581055 27.0625 27.5625 C29.05420387 27.78578519 31.04515111 28.0159564 33.03515625 28.25390625 C34.35592163 28.39807983 34.35592163 28.39807983 35.70336914 28.54516602 C38 29 38 29 41 31 C40.18208984 31.75506836 40.18208984 31.75506836 39.34765625 32.52539062 C36.87741166 34.82884092 34.43901524 37.16352594 32 39.5 C31.14148438 40.29148438 30.28296875 41.08296875 29.3984375 41.8984375 C24.44711984 46.58512404 24.44711984 46.58512404 22.34375 52.875 C22.51763142 54.25639126 22.74140947 55.63193293 23 57 C23.21966909 58.86447528 23.43834886 60.72906728 23.65625 62.59375 C23.93198421 64.56328009 24.21332753 66.53203226 24.5 68.5 C24.64308594 69.51320313 24.78617187 70.52640625 24.93359375 71.5703125 C25.28415582 74.04761782 25.63972847 76.52409137 26 79 C23.4778714 77.75256064 20.95729922 76.50212931 18.4375 75.25 C17.73302734 74.90195313 17.02855469 74.55390625 16.30273438 74.1953125 C15.60341797 73.84726563 14.90410156 73.49921875 14.18359375 73.140625 C13.47960449 72.79193359 12.77561523 72.44324219 12.05029297 72.08398438 C10.08633285 71.04564395 8.27156815 69.88124633 6.41015625 68.671875 C2.14863592 66.5826073 0.53779526 66.68350892 -4 68 C-7.37010365 69.5179422 -10.58717511 71.26018548 -13.8125 73.0625 C-15.50460005 73.99436276 -17.19852335 74.92292495 -18.89453125 75.84765625 C-20.00598511 76.4665271 -20.00598511 76.4665271 -21.13989258 77.09790039 C-23 78 -23 78 -25 78 C-24.27028167 66.6509596 -24.27028167 66.6509596 -22.9375 61.1875 C-22.0346909 57.26592296 -21.33820186 54.04432195 -22 50 C-26.6399356 42.60460776 -34.52787548 36.78133948 -41 31 C-38.07017235 29.04678157 -36.89003299 28.64828225 -33.54296875 28.18359375 C-32.67736328 28.05919922 -31.81175781 27.93480469 -30.91992188 27.80664062 C-30.01822266 27.68482422 -29.11652344 27.56300781 -28.1875 27.4375 C-25.56228127 27.06681379 -22.93733732 26.69556339 -20.31396484 26.31201172 C-18.37966356 26.05119329 -16.43402883 25.87632486 -14.48828125 25.72265625 C-11.85245047 25.27314677 -11.85245047 25.27314677 -10.91015625 23.046875 C-10.60980469 22.04140625 -10.30945313 21.0359375 -10 20 C-9.31080726 18.45426393 -8.59866263 16.91867283 -7.87109375 15.390625 C-7.27844727 14.13572266 -7.27844727 14.13572266 -6.67382812 12.85546875 C-6.26583984 11.99566406 -5.85785156 11.13585937 -5.4375 10.25 C-5.02564453 9.37472656 -4.61378906 8.49945313 -4.18945312 7.59765625 C-3.79564453 6.76621094 -3.40183594 5.93476562 -2.99609375 5.078125 C-2.63700928 4.31918945 -2.2779248 3.56025391 -1.90795898 2.77832031 C-1 1 -1 1 0 0 Z " fill="#F49D62" transform="translate(309,92)"/>
<path d="M0 0 C2.5315144 3.20562872 4.19291456 6.38315361 5.83984375 10.09765625 C7.30675799 12.50300047 8.55418885 13.58334618 11 15 C14.26269913 15.78939158 14.26269913 15.78939158 17.75 16.1875 C18.92046875 16.34605469 20.0909375 16.50460938 21.296875 16.66796875 C22.63492188 16.83232422 22.63492188 16.83232422 24 17 C23.08552154 18.08518111 22.16829593 19.16804738 21.25 20.25 C20.73953125 20.85328125 20.2290625 21.4565625 19.703125 22.078125 C18 24 18 24 15.8125 25.71875 C13.18036651 29.03160767 13.56477524 32.21779946 13.75 36.25 C13.76804687 36.99507813 13.78609375 37.74015625 13.8046875 38.5078125 C13.85164351 40.33909701 13.92338348 42.16971649 14 44 C10.7748447 42.97422144 7.95952931 41.97723524 5 40.3125 C1.23781944 38.66654601 -0.08173889 38.7943812 -4 40 C-7.39542673 41.55496269 -10.70828531 43.23704609 -14 45 C-13.84660156 43.9378125 -13.69320313 42.875625 -13.53515625 41.78125 C-12.3805114 33.82652734 -12.3805114 33.82652734 -14.38671875 26.296875 C-16.15578082 24.35350283 -17.99903396 22.6982989 -20 21 C-21.03093268 19.69043687 -22.04025741 18.3625975 -23 17 C-22.10796875 16.90203125 -21.2159375 16.8040625 -20.296875 16.703125 C-19.12640625 16.55359375 -17.9559375 16.4040625 -16.75 16.25 C-15.58984375 16.11078125 -14.4296875 15.9715625 -13.234375 15.828125 C-8.42237481 14.59606698 -6.8209987 12.34824557 -4.296875 8.203125 C-3.78640625 7.22859375 -3.2759375 6.2540625 -2.75 5.25 C-2.22921875 4.26515625 -1.7084375 3.2803125 -1.171875 2.265625 C-0.78515625 1.51796875 -0.3984375 0.7703125 0 0 Z " fill="#F39C61" transform="translate(397,221)"/>
<path d="M0 0 C3.4375 0.875 3.4375 0.875 4.875 2.5625 C5.89620548 6.76078922 6.2950693 9.32477857 4.1171875 13.26171875 C2.37419153 15.7511547 0.70505613 17.84961006 -1.5625 19.875 C-5.59357198 20.54684533 -7.73117574 20.15210809 -11.5625 18.875 C-13.16995059 15.66009882 -12.96555242 13.4448929 -12.5625 9.875 C-9.61198827 4.69293035 -6.39710107 -0.22445969 0 0 Z " fill="#4A3422" transform="translate(114.5625,136.125)"/>
</svg>
