<?xml version="1.0" encoding="UTF-8"?>
<svg version="1.1" xmlns="http://www.w3.org/2000/svg" width="2048" height="1814">
<path d="M0 0 C1.15532227 0.01353516 1.15532227 0.01353516 2.33398438 0.02734375 C4.20196243 0.05054845 6.06977662 0.08640181 7.9375 0.125 C7.9375 0.785 7.9375 1.445 7.9375 2.125 C9.9175 3.115 9.9175 3.115 11.9375 4.125 C11.9375 4.785 11.9375 5.445 11.9375 6.125 C12.5975 6.125 13.2575 6.125 13.9375 6.125 C15.04551849 11.49992201 14.59606429 15.22068196 12.875 20.3125 C6.1769272 42.21953253 3.22991731 66.31662533 1.9375 89.125 C1.85508057 90.54425781 1.85508057 90.54425781 1.77099609 91.9921875 C1.3979258 98.70084969 1.13326136 105.40897775 0.9375 112.125 C0.91413574 112.8277002 0.89077148 113.53040039 0.86669922 114.25439453 C-0.14303406 147.91499892 4.32194881 182.07103072 11.54199219 214.85205078 C11.9375 217.125 11.9375 217.125 11.9375 221.125 C12.5975 221.125 13.2575 221.125 13.9375 221.125 C14.11289307 221.80264404 14.28828613 222.48028809 14.46899414 223.1784668 C17.57275276 235.10385748 20.72951938 246.99248014 24.625 258.6875 C24.89771729 259.51145264 25.17043457 260.33540527 25.45141602 261.18432617 C27.03576509 265.84190192 28.85175254 270.32492769 30.89086914 274.80102539 C32.00079758 277.2655481 33.04824065 279.75034052 34.0859375 282.24609375 C39.17979674 295.93570091 39.17979674 295.93570091 46.9375 308.125 C47.9275 308.125 48.9175 308.125 49.9375 308.125 C49.9375 307.465 49.9375 306.805 49.9375 306.125 C65.35256815 301.13059983 80.6804137 296.81691322 96.56689453 293.62011719 C99.63016371 292.98033244 102.65529659 292.20988977 105.6875 291.4375 C121.01083629 287.93571103 136.77314531 287.77716377 152.41479492 287.80932617 C155.60435447 287.81247959 158.79297633 287.78894015 161.98242188 287.76367188 C179.52748265 287.70988112 196.83328852 289.07789746 213.9375 293.125 C215.08919678 293.38055664 216.24089355 293.63611328 217.42749023 293.89941406 C236.87940449 298.24400405 255.6552645 302.99483241 273.9375 311.125 C274.73075684 311.47530273 275.52401367 311.82560547 276.34130859 312.18652344 C279.06322739 313.38996093 281.78221929 314.59974763 284.5 315.8125 C285.38220215 316.20542236 286.2644043 316.59834473 287.17333984 317.00317383 C288.00430176 317.37724365 288.83526367 317.75131348 289.69140625 318.13671875 C290.43720947 318.47147217 291.1830127 318.80622559 291.95141602 319.15112305 C293.9375 320.125 293.9375 320.125 296.9375 322.125 C298.25181172 320.33466193 299.5638953 318.54268797 300.875 316.75 C301.60589844 315.75226563 302.33679688 314.75453125 303.08984375 313.7265625 C304.9154569 311.29682891 304.9154569 311.29682891 305.9375 309.125 C306.5975 309.125 307.2575 309.125 307.9375 309.125 C308.21464844 308.54878906 308.49179687 307.97257812 308.77734375 307.37890625 C313.00160912 299.17216848 319.01593783 292.14046908 324.9375 285.125 C325.41558105 284.55523437 325.89366211 283.98546875 326.38623047 283.3984375 C331.76577249 276.99496333 337.15776671 270.71721598 343.16796875 264.890625 C344.90111586 263.16130382 346.48095925 261.36802332 348.0625 259.5 C356.05729877 250.24574663 364.84830462 241.70715449 374.4375 234.125 C376.79155886 232.24175292 379.02290018 230.28059101 381.25 228.25 C387.2212916 222.88650058 393.57979076 218.01716764 399.9375 213.125 C400.49469727 212.69445312 401.05189453 212.26390625 401.62597656 211.8203125 C411.34328603 204.33024991 411.34328603 204.33024991 415.6875 201.9375 C418.20798533 200.53184472 420.1972699 199.19904845 422.4375 197.4375 C428.55340173 192.75021624 435.29498264 189.00462508 441.9375 185.125 C443.01773438 184.48691406 444.09796875 183.84882813 445.2109375 183.19140625 C460.39645474 174.3485082 475.91273615 166.17385027 492.125 159.375 C493.1464209 158.94461426 494.1678418 158.51422852 495.22021484 158.07080078 C502.42200914 155.125 502.42200914 155.125 506.9375 155.125 C506.9375 154.465 506.9375 153.805 506.9375 153.125 C534.14985558 143.85728727 534.14985558 143.85728727 546.11474609 140.71020508 C549.54419597 139.80724505 552.89247 138.81218311 556.2421875 137.64453125 C561.39181658 135.90198554 566.61490989 134.76876127 571.9375 133.6875 C572.98292969 133.47432129 574.02835938 133.26114258 575.10546875 133.04150391 C593.81440887 129.2946866 612.47697358 126.6898707 631.47851562 125.07568359 C632.78111328 124.96434082 634.08371094 124.85299805 635.42578125 124.73828125 C636.58634033 124.64329346 637.74689941 124.54830566 638.94262695 124.45043945 C641.77506892 124.22241432 641.77506892 124.22241432 643.81141663 123.61274719 C646.25044224 123.05320757 648.44726697 122.99788516 650.94970703 122.99560547 C652.44112717 122.99087723 652.44112717 122.99087723 653.962677 122.98605347 C655.02944672 122.9880777 656.09621643 122.99010193 657.1953125 122.9921875 C658.29471161 122.99123077 659.39411072 122.99027405 660.52682495 122.98928833 C662.84845029 122.98860827 665.17007754 122.99045044 667.49169922 122.99462891 C671.05570717 122.99998978 674.61958967 122.99467276 678.18359375 122.98828125 C680.43750028 122.98894186 682.69140673 122.99022267 684.9453125 122.9921875 C686.55153976 122.98915115 686.55153976 122.98915115 688.19021606 122.98605347 C689.17819183 122.98920563 690.1661676 122.99235779 691.18408203 122.99560547 C692.05582062 122.99640106 692.9275592 122.99719666 693.82571411 122.99801636 C695.9375 123.125 695.9375 123.125 697.9375 124.125 C699.34988363 124.28768675 700.76833125 124.39920138 702.1875 124.484375 C731.11438495 126.44043269 759.82713721 130.99657418 787.9375 138.125 C787.9375 138.785 787.9375 139.445 787.9375 140.125 C788.96488281 140.20363281 789.99226563 140.28226563 791.05078125 140.36328125 C797.61159476 141.1896928 803.83529463 143.34273579 810.125 145.3125 C811.36314453 145.68697266 812.60128906 146.06144531 813.87695312 146.44726562 C821.20753672 148.72439295 828.12532335 151.40320598 835.04077148 154.73754883 C841.11663362 157.64771524 847.38077533 160.15364579 853.671875 162.55859375 C860.18652721 165.06530256 866.2832808 167.71050614 872.19140625 171.4765625 C878.21543678 175.09269463 884.63227253 178.03502097 890.9375 181.125 C892.27167402 181.78998263 893.60553558 182.4556025 894.9375 183.125 C894.9375 183.785 894.9375 184.445 894.9375 185.125 C895.73542969 185.33769531 896.53335937 185.55039063 897.35546875 185.76953125 C902.05987207 187.5497144 906.03232574 190.09794187 910.25 192.8125 C911.09723633 193.35197266 911.94447266 193.89144531 912.81738281 194.44726562 C917.80385506 197.65354226 922.5815407 200.98677698 927.16796875 204.75 C928.88545336 206.08455758 930.58304749 207.10489223 932.5 208.125 C936.08970682 210.21355669 938.86123577 212.58278474 941.92578125 215.35546875 C943.74765239 216.95800783 945.59763982 218.39227057 947.5625 219.8125 C956.22286166 226.20184706 964.23629984 233.50946573 972.1875 240.75 C972.98353638 241.45225708 972.98353638 241.45225708 973.7956543 242.16870117 C977.15996401 245.21189251 979.97075005 248.3865419 982.734375 251.98828125 C989.86180478 261.14370826 989.86180478 261.14370826 1000.12792969 265.63037109 C1007.59505311 265.5761073 1014.84339358 264.09100761 1022.16064453 262.71826172 C1028.19454634 261.77046719 1034.15404404 261.74223693 1040.25 261.8125 C1041.40773926 261.8232959 1042.56547852 261.8340918 1043.75830078 261.84521484 C1071.87177299 262.30881967 1099.22963418 266.22237806 1125.9375 275.125 C1125.9375 275.785 1125.9375 276.445 1125.9375 277.125 C1126.89785156 277.21265625 1127.85820313 277.3003125 1128.84765625 277.390625 C1133.68187216 278.09281514 1137.92045809 279.9322144 1142.375 281.875 C1143.27299316 282.26333008 1144.17098633 282.65166016 1145.09619141 283.05175781 C1158.70825446 289.08339447 1173.23596552 295.80288618 1184.9375 305.125 C1184.9375 305.785 1184.9375 306.445 1184.9375 307.125 C1185.77539062 307.33769531 1186.61328125 307.55039062 1187.4765625 307.76953125 C1191.79211533 309.45970826 1194.78546888 311.85743168 1198.3125 314.8125 C1199.00150391 315.38121826 1199.69050781 315.94993652 1200.40039062 316.53588867 C1208.21971422 323.06941914 1215.60638524 330.0539307 1222.9375 337.125 C1223.75089844 337.89714844 1224.56429688 338.66929687 1225.40234375 339.46484375 C1234.69954273 348.46747801 1243.11724837 359.10767045 1249.9375 370.125 C1249.9375 370.785 1249.9375 371.445 1249.9375 372.125 C1250.9275 372.455 1251.9175 372.785 1252.9375 373.125 C1254.32326923 374.74832967 1255.66391268 376.41224465 1256.9375 378.125 C1257.91589844 377.66609375 1258.89429688 377.2071875 1259.90234375 376.734375 C1263.3011021 375.14165506 1266.70488568 373.5599159 1270.109375 371.97949219 C1271.53645408 371.31245469 1272.95705843 370.63155986 1274.375 369.9453125 C1291.10466591 362.03793135 1310.64699163 358.03736183 1329.07421875 357.921875 C1329.82764053 357.91486069 1330.58106232 357.90784637 1331.35731506 357.90061951 C1333.7799381 357.88319616 1336.20231658 357.87676598 1338.625 357.875 C1339.86679016 357.87398788 1339.86679016 357.87398788 1341.13366699 357.87295532 C1353.92885559 357.88952459 1366.40467969 358.30097895 1378.9375 361.125 C1379.65631348 361.28597168 1380.37512695 361.44694336 1381.11572266 361.61279297 C1397.61020486 365.50550573 1412.9658956 373.36532699 1427.9375 381.125 C1427.9375 381.785 1427.9375 382.445 1427.9375 383.125 C1428.97197266 383.48271484 1428.97197266 383.48271484 1430.02734375 383.84765625 C1433.4893369 385.36721566 1436.44870974 387.36178502 1439.5 389.5625 C1440.41809448 390.22294312 1440.41809448 390.22294312 1441.35473633 390.89672852 C1447.66251572 395.52373886 1453.31786226 400.69676681 1458.9375 406.125 C1459.86304688 406.98738281 1460.78859375 407.84976562 1461.7421875 408.73828125 C1489.03227315 434.83007702 1507.80396393 475.12961164 1509.06689453 513.00561523 C1509.07340401 514.39825999 1509.07431481 515.79093953 1509.0703125 517.18359375 C1509.07126923 517.9315773 1509.07222595 518.67956085 1509.07321167 519.45021057 C1509.07388814 521.02255335 1509.07207132 522.59489901 1509.06787109 524.16723633 C1509.06252285 526.55231101 1509.06783039 528.93719677 1509.07421875 531.32226562 C1509.07355773 532.85937541 1509.07227606 534.39648508 1509.0703125 535.93359375 C1509.07334885 536.98709267 1509.07334885 536.98709267 1509.07644653 538.06187439 C1509.05428408 542.82549156 1508.60257319 547.40707516 1507.9375 552.125 C1509.79568359 552.25648438 1509.79568359 552.25648438 1511.69140625 552.390625 C1517.6931837 553.06205404 1523.18222956 554.92605908 1528.875 556.875 C1529.89529297 557.21015625 1530.91558594 557.5453125 1531.96679688 557.890625 C1538.60547572 560.12752508 1544.75039823 562.85282679 1550.9375 566.125 C1552.19181938 566.75567735 1553.44695441 567.3847367 1554.703125 568.01171875 C1580.25460054 581.2171338 1601.42679383 600.70012941 1617.9375 624.125 C1618.6903125 625.17816406 1619.443125 626.23132813 1620.21875 627.31640625 C1625.25641241 634.59195331 1629.12110545 642.16509138 1632.9375 650.125 C1633.2571875 650.73682129 1633.576875 651.34864258 1633.90625 651.97900391 C1636.60831241 657.16878242 1638.60865632 662.4466548 1640.4375 668 C1640.89032349 669.36342529 1640.89032349 669.36342529 1641.35229492 670.75439453 C1643.75168675 678.1632012 1645.5707299 685.61412691 1647.11328125 693.2421875 C1647.83687749 697.02508917 1647.83687749 697.02508917 1648.97460938 700.18408203 C1650.3871324 705.087349 1650.20466303 709.9974034 1650.16796875 715.0625 C1650.16728142 716.62085571 1650.16728142 716.62085571 1650.1665802 718.21069336 C1650.16356975 720.39926298 1650.15571977 722.58783068 1650.14331055 724.77636719 C1650.12506009 728.11401011 1650.1228011 731.45137487 1650.12304688 734.7890625 C1650.11813057 736.92187738 1650.11230176 739.0546904 1650.10546875 741.1875 C1650.10379951 742.67527954 1650.10379951 742.67527954 1650.10209656 744.19311523 C1650.04932922 751.95020533 1649.14992869 758.65415806 1646.9375 766.125 C1646.49823199 767.84067685 1646.06657949 769.55831315 1645.640625 771.27734375 C1641.52235014 787.77752771 1636.57002515 802.46857105 1628.5625 817.5 C1628.03325928 818.49894287 1627.50401855 819.49788574 1626.95874023 820.52709961 C1623.23379746 827.32683184 1618.88563703 833.17567327 1613.9375 839.125 C1613.08982246 840.2382224 1612.2508882 841.35822823 1611.42578125 842.48828125 C1599.71281824 858.36491873 1584.98248276 872.0840551 1567.9375 882.125 C1567.2775 882.125 1566.6175 882.125 1565.9375 882.125 C1565.6075 883.115 1565.2775 884.105 1564.9375 885.125 C1562.88720703 886.39599609 1562.88720703 886.39599609 1560.1953125 887.6484375 C1559.21046875 888.1125 1558.225625 888.5765625 1557.2109375 889.0546875 C1556.17195313 889.53164063 1555.13296875 890.00859375 1554.0625 890.5 C1553.0621875 890.96921875 1552.061875 891.4384375 1551.03125 891.921875 C1548.00618752 893.3366975 1544.97244599 894.73152763 1541.9375 896.125 C1540.96748047 896.5789917 1539.99746094 897.0329834 1538.99804688 897.50073242 C1518.99797557 906.7857414 1495.52854368 911.34785514 1473.48022461 911.23852539 C1472.68887115 911.23867142 1471.8975177 911.23881744 1471.08218384 911.2389679 C1468.5013746 911.23827869 1465.92064017 911.23053343 1463.33984375 911.22265625 C1461.53666727 911.22078854 1459.73349028 911.2193663 1457.93031311 911.21836853 C1453.21052624 911.21457117 1448.49077069 911.20476496 1443.77099609 911.19366455 C1438.94434025 911.18339031 1434.11767928 911.17885808 1429.29101562 911.17382812 C1419.83983007 911.16313992 1410.38866765 911.14609732 1400.9375 911.125 C1401.05507156 911.8280275 1401.17264313 912.53105499 1401.29377747 913.25538635 C1403.87090006 928.91253322 1405.71919561 944.18843004 1405.625 960.0625 C1405.62363037 961.02325439 1405.62226074 961.98400879 1405.62084961 962.97387695 C1405.46557587 997.53781172 1399.9291417 1035.35215261 1386.16064453 1067.27978516 C1385.02918232 1069.91173338 1383.96979412 1072.55837309 1382.9375 1075.23046875 C1375.86278215 1093.32148253 1367.67573798 1111.44066377 1356.1171875 1127.1484375 C1354.02434177 1130.00640962 1352.08793137 1132.92274709 1350.16210938 1135.89355469 C1346.39652066 1141.69050423 1342.5321253 1147.02906779 1337.79296875 1152.08984375 C1335.90384814 1154.16191078 1334.23866498 1156.31589193 1332.5625 1158.5625 C1329.16153315 1163.02189132 1325.29384189 1166.86539863 1321.28515625 1170.77734375 C1319.3377676 1172.7247324 1317.55749297 1174.68712709 1315.8125 1176.8125 C1313.16137522 1179.99087929 1310.21187258 1182.63824661 1307.0625 1185.31640625 C1304.88059478 1187.1734322 1302.75272118 1189.08125143 1300.625 1191 C1288.8932574 1201.39723198 1276.46095025 1211.14355913 1262.9375 1219.125 C1261.6631066 1220.01576157 1260.39231665 1220.91169856 1259.125 1221.8125 C1253.05256722 1225.88768745 1246.49329857 1228.95203447 1239.92919922 1232.14013672 C1238.12566822 1233.03195384 1236.34446925 1233.96858639 1234.56640625 1234.91015625 C1226.47079291 1239.17663195 1218.20932904 1242.36209801 1209.57568359 1245.37304688 C1208.22337646 1245.84581055 1208.22337646 1245.84581055 1206.84375 1246.328125 C1206.04259766 1246.60301758 1205.24144531 1246.87791016 1204.41601562 1247.16113281 C1201.82598538 1248.11799698 1201.82598538 1248.11799698 1199.04785156 1249.6184082 C1195.80366798 1251.18982554 1192.75411314 1252.13064798 1189.265625 1253.02734375 C1188.6338887 1253.19000229 1188.0021524 1253.35266083 1187.35127258 1253.52024841 C1185.29892614 1254.04375205 1183.24370087 1254.55436098 1181.1875 1255.0625 C1180.48374237 1255.23863831 1179.77998474 1255.41477661 1179.05490112 1255.59625244 C1166.42224076 1258.7419495 1153.75901874 1261.02134268 1140.83813477 1262.65771484 C1138.43892092 1263.04422232 1136.17117666 1263.55713058 1133.81639731 1264.13839284 C1129.14703972 1265.17966373 1124.7442864 1265.40565124 1119.97450829 1265.37799966 C1118.68277765 1265.38257931 1118.68277765 1265.38257931 1117.36495145 1265.38725147 C1114.48382143 1265.39503543 1111.60290217 1265.38862584 1108.72177124 1265.38226891 C1106.62458051 1265.38496271 1104.52739076 1265.38853078 1102.43020284 1265.39289337 C1096.64904594 1265.40236302 1090.86795195 1265.39934691 1085.08679193 1265.39433783 C1078.80391983 1265.39107561 1072.52106131 1265.3993501 1066.23819351 1265.40615618 C1055.22015698 1265.41647354 1044.20214149 1265.41936644 1033.1841011 1265.41724396 C1021.36136016 1265.41499515 1009.53863181 1265.41706289 997.71589279 1265.42438889 C996.96913922 1265.42484819 996.22238565 1265.4253075 995.45300319 1265.42578072 C992.41155704 1265.42766401 989.37011091 1265.42957538 986.3286648 1265.4315231 C954.59520516 1265.45181514 922.86175258 1265.45793525 891.1282872 1265.45910732 C887.71196421 1265.45923682 884.29564122 1265.4593727 880.87931824 1265.45951414 C880.03153622 1265.45954815 879.1837542 1265.45958216 878.31028181 1265.4596172 C859.5221437 1265.46043417 840.73400694 1265.46481425 821.94586954 1265.46982583 C814.2089107 1265.47188258 806.47195184 1265.47386264 798.73499298 1265.47585833 C797.8801062 1265.47607951 797.02521942 1265.47630069 796.14442698 1265.47652857 C747.14950759 1265.48917816 698.15458908 1265.49742668 649.15966797 1265.49651146 C647.32590252 1265.4964799 645.49213707 1265.49644843 643.65837163 1265.49641704 C635.37915004 1265.49627028 627.09992846 1265.49609394 618.82070687 1265.49590927 C615.12883259 1265.49582703 611.43695831 1265.49574673 607.74508403 1265.49566665 C605.89723261 1265.49562586 604.04938118 1265.49558382 602.20152976 1265.49554053 C543.79677771 1265.49418065 485.39204993 1265.50880341 426.98730469 1265.53662109 C412.27767952 1265.54362336 397.56805432 1265.55056238 382.85842896 1265.55714989 C381.95265244 1265.55755564 381.04687593 1265.55796138 380.11365165 1265.55837943 C352.18472591 1265.57081465 324.25580217 1265.5783416 296.32687378 1265.58086586 C295.01103767 1265.58098571 295.01103767 1265.58098571 293.66861901 1265.58110799 C274.40864437 1265.58281477 255.14866986 1265.58333685 235.88869516 1265.58276723 C228.99645654 1265.58257427 222.10421791 1265.58247018 215.21197929 1265.58240977 C213.49740689 1265.58239395 211.78283448 1265.58237354 210.06826208 1265.58234853 C182.77562588 1265.58199624 155.48301048 1265.59337779 128.19038023 1265.61065616 C100.6873848 1265.62797911 73.18441812 1265.63231897 45.68141952 1265.61913352 C41.8747878 1265.6173091 38.06815602 1265.6156225 34.2615242 1265.61401749 C33.51536898 1265.61369731 32.76921377 1265.61337714 32.00044779 1265.61304726 C20.21996513 1265.60835441 8.43953246 1265.61702587 -3.3409408 1265.63135986 C-14.94533335 1265.64519665 -26.5496372 1265.64425741 -38.15403006 1265.62897559 C-44.35308438 1265.62121964 -50.55196262 1265.6196407 -56.75100446 1265.63589029 C-103.18564943 1265.74982834 -103.18564943 1265.74982834 -121.82878542 1261.61247952 C-125.39342839 1260.83454197 -128.9857875 1260.24642234 -132.58203125 1259.6328125 C-135.01434567 1259.17891792 -137.4453844 1258.71812579 -139.875 1258.25 C-140.51762787 1258.12627014 -141.16025574 1258.00254028 -141.82235718 1257.87506104 C-155.83977407 1255.15257683 -169.30535604 1251.5170338 -182.53344727 1246.13378906 C-184.97154804 1245.16127894 -187.42316927 1244.25520704 -189.89453125 1243.37109375 C-202.09969174 1238.96627872 -213.39305595 1233.55549221 -224.77587891 1227.34667969 C-228.8039125 1225.19461049 -232.93477088 1223.26326999 -237.078125 1221.34375 C-239.0625 1220.125 -239.0625 1220.125 -240.0625 1217.125 C-242.05495256 1216.43610433 -244.05677873 1215.77425082 -246.0625 1215.125 C-248.48863786 1213.67987779 -250.80214668 1212.21794427 -253.125 1210.625 C-254.0996521 1209.96504028 -254.0996521 1209.96504028 -255.09399414 1209.29174805 C-264.56019544 1202.81402523 -273.52633568 1195.78857863 -282.0625 1188.125 C-283.22624093 1187.12159671 -284.3928766 1186.12154012 -285.5625 1185.125 C-286.12839844 1184.63902344 -286.69429688 1184.15304687 -287.27734375 1183.65234375 C-288.53528933 1182.57607083 -289.79885371 1181.50634805 -291.06640625 1180.44140625 C-294.93196866 1177.14797642 -298.28693831 1173.79031914 -301.50390625 1169.8671875 C-303.20806635 1167.96228674 -305.03690607 1166.38528362 -307 1164.75 C-310.65174381 1161.6456713 -313.43187241 1158.26688272 -316.2890625 1154.43359375 C-318.07143408 1152.11336995 -319.96292485 1149.97048431 -321.9375 1147.8125 C-326.69490379 1142.53058554 -330.88789455 1136.87264519 -335.0625 1131.125 C-335.6709375 1130.2896875 -336.279375 1129.454375 -336.90625 1128.59375 C-340.92173279 1122.97207409 -344.58599389 1117.16642389 -348.1640625 1111.2578125 C-349.28536931 1109.40742554 -350.42047711 1107.56508709 -351.5859375 1105.7421875 C-355.60345436 1099.37187071 -358.7527686 1092.63990512 -361.90405273 1085.81201172 C-362.26958252 1085.02197754 -362.6351123 1084.23194336 -363.01171875 1083.41796875 C-363.49644653 1082.35872192 -363.49644653 1082.35872192 -363.9909668 1081.27807617 C-365.06454388 1079.04173802 -365.06454388 1079.04173802 -366.55102539 1076.6965332 C-368.09006138 1074.0781087 -369.20406624 1071.51918055 -370.296875 1068.6875 C-370.90547363 1067.11476318 -370.90547363 1067.11476318 -371.52636719 1065.51025391 C-373.72527179 1059.72247654 -375.91179393 1053.9308887 -378.0625 1048.125 C-378.40925781 1047.19461914 -378.75601562 1046.26423828 -379.11328125 1045.30566406 C-382.98332288 1034.79045835 -385.91603719 1024.19604633 -388.3125 1013.25 C-388.54678711 1012.18861816 -388.78107422 1011.12723633 -389.02246094 1010.03369141 C-389.775664 1006.40869903 -390.43945812 1002.77405544 -391.0625 999.125 C-391.19560577 998.36952881 -391.32871155 997.61405762 -391.46585083 996.83569336 C-394.39713969 979.64107517 -394.56148807 962.49673271 -394.50854492 945.11132812 C-394.4993695 941.96066683 -394.50626734 938.81074786 -394.52905273 935.66015625 C-394.67183085 915.78837813 -393.82789494 896.71855432 -390.0625 877.125 C-389.91469086 876.34298218 -389.76688171 875.56096436 -389.61459351 874.75524902 C-388.81614192 870.60465337 -387.9103695 866.48781868 -386.9375 862.375 C-386.68613281 861.26769531 -386.43476563 860.16039062 -386.17578125 859.01953125 C-384.94987411 853.6730357 -383.6387198 848.37906599 -382.0625 843.125 C-381.4025 843.125 -380.7425 843.125 -380.0625 843.125 C-379.97613281 842.56482178 -379.88976562 842.00464355 -379.80078125 841.42749023 C-378.44201749 833.66835707 -375.87344608 826.52831949 -373.0625 819.1875 C-372.82084106 818.55248566 -372.57918213 817.91747131 -372.3302002 817.26321411 C-368.05559945 806.07985748 -363.03920483 795.50137216 -357.0625 785.125 C-356.15757812 783.51238281 -356.15757812 783.51238281 -355.234375 781.8671875 C-350.4406348 773.46694181 -345.26275849 765.27868433 -340.0625 757.125 C-339.38574219 756.06023438 -338.70898438 754.99546875 -338.01171875 753.8984375 C-336.19761887 751.3172533 -334.28626355 749.34448708 -332.0625 747.125 C-330.52961665 744.99506969 -329.03714246 742.8564795 -327.5625 740.6875 C-323.54636641 734.90387112 -319.16157522 729.70596677 -314.26171875 724.65258789 C-310.78321694 721.04116099 -307.90403239 717.26049068 -305.0625 713.125 C-305.48660156 712.59132813 -305.91070312 712.05765625 -306.34765625 711.5078125 C-319.0625 695.35576923 -319.0625 695.35576923 -319.0625 692.125 C-319.7225 692.125 -320.3825 692.125 -321.0625 692.125 C-322.37524414 690.35253906 -322.37524414 690.35253906 -323.84765625 687.890625 C-324.37810547 687.00632812 -324.90855469 686.12203125 -325.45507812 685.2109375 C-326.00615234 684.27507813 -326.55722656 683.33921875 -327.125 682.375 C-327.95741211 680.99441406 -327.95741211 680.99441406 -328.80664062 679.5859375 C-332.95980438 672.60498016 -332.95980438 672.60498016 -333.54077148 669.88964844 C-333.71294189 669.30731445 -333.8851123 668.72498047 -334.0625 668.125 C-335.0525 667.795 -336.0425 667.465 -337.0625 667.125 C-338.46948242 664.97045898 -338.46948242 664.97045898 -339.91796875 662.12109375 C-340.72210205 660.55681641 -340.72210205 660.55681641 -341.54248047 658.9609375 C-342.10596191 657.83945312 -342.66944336 656.71796875 -343.25 655.5625 C-343.83152832 654.42167969 -344.41305664 653.28085937 -345.01220703 652.10546875 C-346.17476298 649.82105763 -347.33303826 647.53446249 -348.48681641 645.24560547 C-349.79367453 642.65740272 -351.11498014 640.07804336 -352.44921875 637.50390625 C-356.22797017 630.16456367 -359.59407566 622.73529583 -362.63037109 615.05664062 C-363.93015246 611.78192927 -365.29420337 608.64251128 -366.95703125 605.53515625 C-370.03099438 599.50336728 -371.91573636 592.98439305 -374 586.5625 C-374.42065238 585.28041128 -374.84187354 583.99850904 -375.26367188 582.71679688 C-375.89760155 580.78998251 -376.53005483 578.86275851 -377.15745544 576.93380737 C-378.20657147 573.70991238 -379.2740171 570.49465218 -380.38500977 567.29150391 C-383.1942409 559.15600035 -385.40441245 551.05806308 -387.125 542.625 C-387.37540039 541.42520508 -387.62580078 540.22541016 -387.88378906 538.98925781 C-391.09818436 523.38768063 -393.94199037 507.75435002 -395.66796875 491.9140625 C-395.76354652 489.22358758 -395.76354652 489.22358758 -397.0625 488.125 C-398.52816373 479.07540528 -398.20926571 469.79140148 -398.1953125 460.65234375 C-398.19598797 459.07776372 -398.19696001 457.5031838 -398.19821167 455.92860413 C-398.19967679 452.6466471 -398.19757222 449.36471749 -398.19287109 446.08276367 C-398.18716981 441.90158122 -398.19046293 437.72046292 -398.19644356 433.5392828 C-398.20007731 430.29370144 -398.19889779 427.04813501 -398.19631577 423.80255318 C-398.19565451 422.26176508 -398.19644648 420.72097558 -398.19879532 419.18018913 C-398.21154227 408.47363638 -397.79718843 398.24043435 -395.58447266 387.75097656 C-394.61339698 382.86562111 -393.96730758 377.92775367 -393.25 373 C-386.80327748 330.01979936 -386.80327748 330.01979936 -380.671875 315.92919922 C-378.96469113 312.0010612 -377.62959509 307.99302461 -376.3203125 303.91796875 C-375.80625276 302.34561706 -375.29192127 300.77335419 -374.77734375 299.20117188 C-373.98226097 296.76039006 -373.18956485 294.31890438 -372.40185547 291.87573242 C-367.19733367 275.76580082 -367.19733367 275.76580082 -363.29101562 268.47583008 C-360.82011168 263.74762377 -358.85040841 258.77595296 -356.75 253.875 C-353.19386817 245.68272594 -349.48596516 237.81814756 -344.8828125 230.16796875 C-343.0252221 227.06268351 -341.35336223 223.89912742 -339.6875 220.6875 C-335.96630238 213.70598703 -331.58009258 207.24751445 -327.1328125 200.71826172 C-325.84596439 198.80266619 -324.63242427 196.84904719 -323.4375 194.875 C-320.89697675 190.74776398 -318.0309836 186.87178186 -315.15625 182.97265625 C-313.80715543 181.13778696 -312.47258367 179.29210583 -311.15625 177.43359375 C-305.8542469 169.96950333 -300.04978797 163.03964235 -294.0625 156.125 C-293.42183594 155.3825 -292.78117187 154.64 -292.12109375 153.875 C-285.95679819 146.7810543 -279.7454759 139.73600539 -273.0625 133.125 C-272.2375 132.3 -271.4125 131.475 -270.5625 130.625 C-268.0625 128.125 -265.5625 125.625 -263.0625 123.125 C-261.89267578 121.94357422 -261.89267578 121.94357422 -260.69921875 120.73828125 C-252.73602445 112.84587089 -244.59371374 105.0508053 -235.71875 98.1875 C-233.60793057 96.5485108 -231.53394254 94.88267888 -229.46875 93.1875 C-223.28864658 88.13353144 -217.29311538 83.26864291 -210.2109375 79.50390625 C-207.88592106 78.1258884 -207.88592106 78.1258884 -205.70703125 75.70703125 C-202.79436651 72.86320349 -199.95129139 71.1803163 -196.375 69.25 C-192.12029265 66.91338937 -188.09103127 64.52779575 -184.1875 61.625 C-179.45616284 58.20447592 -174.44946613 55.70476357 -169.21166992 53.17138672 C-164.84283204 51.04974282 -160.66709326 48.754287 -156.5 46.25 C-147.66785581 41.10299184 -138.24805531 37.28466084 -128.83935547 33.32617188 C-126.14056798 32.15876951 -123.49454863 30.9083468 -120.83984375 29.64453125 C-113.88041177 26.45848704 -106.60734368 24.26677887 -99.3125 22 C-97.24632581 21.35392677 -95.18086625 20.7057628 -93.11663818 20.05349731 C-91.25528442 19.46588446 -89.39186536 18.88482524 -87.52832031 18.30419922 C-84.01117995 17.15985501 -84.01117995 17.15985501 -80.50927734 15.58398438 C-77.27809232 14.21625795 -74.24363251 13.28514114 -70.8359375 12.4765625 C-69.06126099 12.05540161 -69.06126099 12.05540161 -67.25073242 11.62573242 C-65.36318237 11.19224487 -65.36318237 11.19224487 -63.4375 10.75 C-62.78842682 10.59914948 -62.13935364 10.44829895 -61.47061157 10.2928772 C-48.06868652 7.18776501 -34.58425037 4.84513873 -21.00512695 2.64550781 C-18.40493351 2.1855715 -15.86806988 1.62453946 -13.3046875 0.99609375 C-8.8389081 -0.03887838 -4.56627648 -0.10405187 0 0 Z " fill="#EEF4FD" transform="translate(398.0625,-0.12499999999999999)"/>
<path d="M0 0 C0 0.66 0 1.32 0 2 C0.96035156 2.08765625 1.92070313 2.1753125 2.91015625 2.265625 C7.74437216 2.96781514 11.98295809 4.8072144 16.4375 6.75 C17.33549316 7.13833008 18.23348633 7.52666016 19.15869141 7.92675781 C32.77075446 13.95839447 47.29846552 20.67788618 59 30 C59 30.66 59 31.32 59 32 C59.83789062 32.21269531 60.67578125 32.42539062 61.5390625 32.64453125 C65.85461533 34.33470826 68.84796888 36.73243168 72.375 39.6875 C73.06400391 40.25621826 73.75300781 40.82493652 74.46289062 41.41088867 C82.28221422 47.94441914 89.66888524 54.9289307 97 62 C97.81339844 62.77214844 98.62679688 63.54429687 99.46484375 64.33984375 C108.76204273 73.34247801 117.17974837 83.98267045 124 95 C124 95.66 124 96.32 124 97 C124.99 97.33 125.98 97.66 127 98 C128.38576923 99.62332967 129.72641268 101.28724465 131 103 C132.46759766 102.31164062 132.46759766 102.31164062 133.96484375 101.609375 C137.3636021 100.01665506 140.76738568 98.4349159 144.171875 96.85449219 C145.59895408 96.18745469 147.01955843 95.50655986 148.4375 94.8203125 C165.16716591 86.91293135 184.70949163 82.91236183 203.13671875 82.796875 C203.89014053 82.78986069 204.64356232 82.78284637 205.41981506 82.77561951 C207.8424381 82.75819616 210.26481658 82.75176598 212.6875 82.75 C213.92929016 82.74898788 213.92929016 82.74898788 215.19616699 82.74795532 C227.99135559 82.76452459 240.46717969 83.17597895 253 86 C253.71881348 86.16097168 254.43762695 86.32194336 255.17822266 86.48779297 C271.67270486 90.38050573 287.0283956 98.24032699 302 106 C302 106.66 302 107.32 302 108 C302.68964844 108.23847656 303.37929687 108.47695313 304.08984375 108.72265625 C307.5518369 110.24221566 310.51120974 112.23678502 313.5625 114.4375 C314.48059448 115.09794312 314.48059448 115.09794312 315.41723633 115.77172852 C321.72501572 120.39873886 327.38036226 125.57176681 333 131 C333.92554688 131.86238281 334.85109375 132.72476563 335.8046875 133.61328125 C363.09477315 159.70507702 381.86646393 200.00461164 383.12939453 237.88061523 C383.13590401 239.27325999 383.13681481 240.66593953 383.1328125 242.05859375 C383.13376923 242.8065773 383.13472595 243.55456085 383.13571167 244.32521057 C383.13638814 245.89755335 383.13457132 247.46989901 383.13037109 249.04223633 C383.12502285 251.42731101 383.13033039 253.81219677 383.13671875 256.19726562 C383.13605773 257.73437541 383.13477606 259.27148508 383.1328125 260.80859375 C383.13483673 261.51092636 383.13686096 262.21325897 383.13894653 262.93687439 C383.11678408 267.70049156 382.66507319 272.28207516 382 277 C383.85818359 277.13148438 383.85818359 277.13148438 385.75390625 277.265625 C391.7556837 277.93705404 397.24472956 279.80105908 402.9375 281.75 C404.46793945 282.25273438 404.46793945 282.25273438 406.02929688 282.765625 C412.66797572 285.00252508 418.81289823 287.72782679 425 291 C426.25431938 291.63067735 427.50945441 292.2597367 428.765625 292.88671875 C454.31710054 306.0921338 475.48929383 325.57512941 492 349 C492.7528125 350.05316406 493.505625 351.10632813 494.28125 352.19140625 C499.31891241 359.46695331 503.18360545 367.04009138 507 375 C507.47953125 375.91773193 507.47953125 375.91773193 507.96875 376.85400391 C510.67081241 382.04378242 512.67115632 387.3216548 514.5 392.875 C514.80188232 393.7839502 515.10376465 394.69290039 515.41479492 395.62939453 C517.81418675 403.0382012 519.6332299 410.48912691 521.17578125 418.1171875 C521.89937749 421.90008917 521.89937749 421.90008917 523.03710938 425.05908203 C524.4496324 429.962349 524.26716303 434.8724034 524.23046875 439.9375 C524.22978142 441.49585571 524.22978142 441.49585571 524.2290802 443.08569336 C524.22606975 445.27426298 524.21821977 447.46283068 524.20581055 449.65136719 C524.18756009 452.98901011 524.1853011 456.32637487 524.18554688 459.6640625 C524.18063057 461.79687738 524.17480176 463.9296904 524.16796875 466.0625 C524.16685593 467.05435303 524.1657431 468.04620605 524.16459656 469.06811523 C524.11182922 476.82520533 523.21242869 483.52915806 521 491 C520.56073199 492.71567685 520.12907949 494.43331315 519.703125 496.15234375 C515.58485014 512.65252771 510.63252515 527.34357105 502.625 542.375 C501.83113892 543.87341431 501.83113892 543.87341431 501.02124023 545.40209961 C497.29629746 552.20183184 492.94813703 558.05067327 488 564 C487.15232246 565.1132224 486.3133882 566.23322823 485.48828125 567.36328125 C473.77531824 583.23991873 459.04498276 596.9590551 442 607 C441.34 607 440.68 607 440 607 C439.67 607.99 439.34 608.98 439 610 C436.94970703 611.27099609 436.94970703 611.27099609 434.2578125 612.5234375 C433.27296875 612.9875 432.288125 613.4515625 431.2734375 613.9296875 C429.71496094 614.64511719 429.71496094 614.64511719 428.125 615.375 C427.1246875 615.84421875 426.124375 616.3134375 425.09375 616.796875 C422.06868752 618.2116975 419.03494599 619.60652763 416 621 C415.02998047 621.4539917 414.05996094 621.9079834 413.06054688 622.37573242 C393.01842491 631.68026337 369.55512411 636.19040698 347.46679688 636.12939453 C346.26754578 636.13202301 346.26754578 636.13202301 345.04406738 636.13470459 C342.43560535 636.13906038 339.82721256 636.13620973 337.21875 636.1328125 C335.39554837 636.13348681 333.57234683 636.1344579 331.74914551 636.13571167 C327.94668717 636.13717966 324.14425245 636.13506108 320.34179688 636.13037109 C315.4579254 636.12464173 310.57410849 636.12797861 305.69023895 636.13394356 C301.93460676 636.1375458 298.17898767 636.13641271 294.4233551 636.13381577 C292.62113946 636.13314724 290.81892264 636.13397234 289.01670837 636.13629532 C286.51045541 636.13881981 284.00429305 636.13498567 281.49804688 636.12939453 C280.749021 636.13141876 279.99999512 636.13344299 279.22827148 636.13552856 C274.11426957 636.11426957 274.11426957 636.11426957 273 635 C272.67039695 633.57072133 272.38738754 632.13063148 272.125 630.6875 C270.97498472 624.72756678 269.51780077 618.87577808 268 613 C267.62369124 611.51302252 267.24738963 610.02604324 266.87109375 608.5390625 C257.00730295 569.91801323 239.48915653 533.5195364 215 502 C214.30519531 501.09378906 213.61039063 500.18757812 212.89453125 499.25390625 C208.70079348 493.88826572 204.21225255 488.83521491 199.58984375 483.8359375 C197.57597176 481.63070211 195.62336579 479.39856095 193.6796875 477.1328125 C190.07328128 472.99993428 186.20736922 469.22731153 182.1875 465.5 C181.1353833 464.51954712 181.1353833 464.51954712 180.06201172 463.51928711 C174.89965527 458.74621727 169.57242004 454.28721473 164 450 C163.24074219 449.37222656 162.48148438 448.74445313 161.69921875 448.09765625 C148.47122985 437.1645394 133.40256015 427.57107286 118 420 C118 419.34 118 418.68 118 418 C117.46632813 417.83056885 116.93265625 417.6611377 116.3828125 417.48657227 C110.46830735 415.5673 104.73067978 413.34688877 99 410.9375 C98.14277344 410.58623047 97.28554687 410.23496094 96.40234375 409.87304688 C95.18224609 409.36161133 95.18224609 409.36161133 93.9375 408.83984375 C92.83728516 408.38146118 92.83728516 408.38146118 91.71484375 407.91381836 C90 407 90 407 89 405 C85.67538266 403.49007143 82.15414243 402.45135301 78.6875 401.3125 C77.63691406 400.96380859 76.58632812 400.61511719 75.50390625 400.25585938 C62.84502285 396.15728647 49.94625932 393.04889604 37 390 C37 389.34 37 388.68 37 388 C36.03578125 387.93941406 35.0715625 387.87882812 34.078125 387.81640625 C32.81484375 387.73261719 31.5515625 387.64882813 30.25 387.5625 C28.99703125 387.48128906 27.7440625 387.40007812 26.453125 387.31640625 C23 387 23 387 21.046875 386.49609375 C17.74900698 385.69680131 14.37785379 385.66522111 11 385.5 C3.53593405 385.13490982 3.53593405 385.13490982 1.02246094 384.50219727 C-1.059203 383.9852993 -2.96971451 383.79706059 -5.109375 383.68359375 C-5.86347656 383.64169922 -6.61757812 383.59980469 -7.39453125 383.55664062 C-8.56048828 383.49766602 -8.56048828 383.49766602 -9.75 383.4375 C-10.54277344 383.39431641 -11.33554688 383.35113281 -12.15234375 383.30664062 C-14.10137815 383.20097009 -16.05066748 383.10002034 -18 383 C-17.4517216 378.65797035 -16.9002838 374.31635704 -16.34594727 369.97509766 C-16.15790868 368.4989705 -15.97072558 367.02273409 -15.78442383 365.54638672 C-15.51609904 363.42125443 -15.2446746 361.29653727 -14.97265625 359.171875 C-14.72914429 357.2552002 -14.72914429 357.2552002 -14.48071289 355.29980469 C-14.11435716 352.78499307 -13.64483 350.44766576 -13 348 C-11.43461216 331.78084261 -11.41422789 315.3271454 -11.04681396 299.04278564 C-11.00354287 297.15459758 -10.95629444 295.26650179 -10.90869141 293.37841797 C-10.58700384 279.31636829 -11.18235784 265.44190494 -12.375 251.4375 C-12.43812378 250.68783966 -12.50124756 249.93817932 -12.56628418 249.165802 C-13.20492657 241.73764641 -13.9476626 234.41223672 -15.54931641 227.11743164 C-16.22663235 223.93522082 -16.6070345 220.72793088 -17 217.5 C-18.18276928 206.93515809 -18.18276928 206.93515809 -21.41796875 196.90234375 C-23.51759776 192.14199448 -24.36599041 187.14323908 -25.375 182.0625 C-27.1418302 173.50358386 -29.29091673 165.26325007 -32.08203125 156.984375 C-33 154 -33 154 -33 151 C-33.66 151 -34.32 151 -35 151 C-35.21092285 150.41734375 -35.4218457 149.8346875 -35.63916016 149.234375 C-37.37045602 144.45475843 -39.10733022 139.67725584 -40.8515625 134.90234375 C-42.1150413 131.44244936 -43.36455308 127.97886466 -44.5859375 124.50390625 C-47.42076103 116.53700794 -50.8225986 109.18883103 -54.92578125 101.796875 C-57.11305972 97.84845138 -59.08533843 93.80651568 -61.0625 89.75 C-63.87689244 84.01294273 -67.01433211 78.65707672 -70.54296875 73.3203125 C-71.79037221 71.33383085 -72.75467342 69.48102322 -73.625 67.3125 C-75.08279906 63.80052953 -76.91096435 60.8534488 -79.01171875 57.69921875 C-80 56 -80 56 -80 54 C-80.66 54 -81.32 54 -82 54 C-83.1574707 52.42700195 -83.1574707 52.42700195 -84.42578125 50.23828125 C-84.89306641 49.44873047 -85.36035156 48.65917969 -85.84179688 47.84570312 C-86.81083071 46.17659704 -87.77958751 44.50733009 -88.74804688 42.83789062 C-91.44675983 38.27850553 -94.1041136 34.6523935 -98 31 C-99.44921875 29 -99.44921875 29 -100.6875 27 C-107.5626205 16.46162085 -115.4200023 7.21087268 -124.17358398 -1.79516602 C-124.79950439 -2.44412842 -125.4254248 -3.09309082 -126.0703125 -3.76171875 C-126.63508301 -4.33881592 -127.19985352 -4.91591309 -127.78173828 -5.51049805 C-129 -7 -129 -7 -129 -9 C-88.47980593 -20.00891117 -39.22915484 -13.07638495 0 0 Z " fill="#8E95A2" transform="translate(1524,275)"/>
<path d="M0 0 C1.15532227 0.01353516 1.15532227 0.01353516 2.33398438 0.02734375 C4.20196243 0.05054845 6.06977662 0.08640181 7.9375 0.125 C7.9375 0.785 7.9375 1.445 7.9375 2.125 C9.9175 3.115 9.9175 3.115 11.9375 4.125 C11.9375 4.785 11.9375 5.445 11.9375 6.125 C12.5975 6.125 13.2575 6.125 13.9375 6.125 C15.04551849 11.49992201 14.59606429 15.22068196 12.875 20.3125 C6.1769272 42.21953253 3.22991731 66.31662533 1.9375 89.125 C1.85508057 90.54425781 1.85508057 90.54425781 1.77099609 91.9921875 C1.3979258 98.70084969 1.13326136 105.40897775 0.9375 112.125 C0.91413574 112.8277002 0.89077148 113.53040039 0.86669922 114.25439453 C-0.14303406 147.91499892 4.32194881 182.07103072 11.54199219 214.85205078 C11.9375 217.125 11.9375 217.125 11.9375 221.125 C12.5975 221.125 13.2575 221.125 13.9375 221.125 C14.11289307 221.80264404 14.28828613 222.48028809 14.46899414 223.1784668 C17.57275276 235.10385748 20.72951938 246.99248014 24.625 258.6875 C24.89771729 259.51145264 25.17043457 260.33540527 25.45141602 261.18432617 C27.03504251 265.83977771 28.84871201 270.32233869 30.88647461 274.79663086 C32.00547838 277.27559462 33.06785857 279.77366928 34.12109375 282.28125 C34.49169922 283.15910156 34.86230469 284.03695313 35.24414062 284.94140625 C35.99745912 286.72907397 36.74746688 288.51814047 37.49414062 290.30859375 C39.7077091 295.53368953 42.12813651 300.35554437 45.19946289 305.13476562 C45.9375 307.125 45.9375 307.125 45.20751953 309.29858398 C43.42860416 311.85684347 41.61746461 312.47914966 38.75 313.6875 C37.58855469 314.19796875 36.42710937 314.7084375 35.23046875 315.234375 C34.56192871 315.52634766 33.89338867 315.81832031 33.20458984 316.11914062 C19.29979658 322.28840061 5.73378521 328.88358298 -7.0625 337.125 C-8.1040625 337.79144531 -9.145625 338.45789063 -10.21875 339.14453125 C-35.20427783 355.46883874 -59.87178246 376.32809149 -78.0625 400.125 C-79.33241776 401.66742094 -80.60327979 403.20906483 -81.875 404.75 C-90.15692235 415.12676154 -97.35704811 426.27856305 -104.0625 437.72265625 C-105.78862048 440.65908386 -107.57199367 443.54818236 -109.375 446.4375 C-111.82493722 450.50031255 -113.63657664 454.65587105 -115.30078125 459.09375 C-116.0625 461.125 -116.0625 461.125 -117.0625 463.125 C-117.7225 463.125 -118.3825 463.125 -119.0625 463.125 C-119.15917969 463.78113281 -119.25585938 464.43726563 -119.35546875 465.11328125 C-120.27864369 469.04570047 -121.80048511 472.60137742 -123.375 476.3125 C-124.01436006 477.84894288 -124.65368324 479.3854011 -125.29296875 480.921875 C-126.26102065 483.23057978 -127.23970065 485.53238489 -128.23828125 487.828125 C-134.2697063 502.02555351 -137.03163286 517.33091966 -139.93359375 532.3984375 C-140.7568489 536.65409674 -141.69096894 540.85830635 -142.75 545.0625 C-146.84140761 562.72979956 -146.30664454 580.72995047 -146.1875 598.75 C-146.17628701 601.4140591 -146.16832424 604.07811589 -146.16015625 606.7421875 C-146.13834703 613.20320691 -146.10506507 619.66408569 -146.0625 626.125 C-147.14966309 626.40380005 -147.14966309 626.40380005 -148.25878906 626.68823242 C-151.6124571 627.55385864 -154.96241761 628.43310337 -158.3125 629.3125 C-160.02179688 629.75045898 -160.02179688 629.75045898 -161.765625 630.19726562 C-169.51602089 632.24495545 -176.72473593 634.91814407 -184.0625 638.125 C-186.77840632 639.18349652 -189.51128942 640.1897489 -192.25 641.1875 C-197.38906553 643.0790679 -202.43014956 645.07675205 -207.36328125 647.4609375 C-209.0625 648.125 -209.0625 648.125 -212.0625 648.125 C-212.3925 649.115 -212.7225 650.105 -213.0625 651.125 C-214.78515625 651.9765625 -214.78515625 651.9765625 -217.125 652.75 C-242.64596843 662.441507 -266.5885766 681.07716421 -286.37109375 699.6171875 C-288.70912267 701.79572824 -291.08170007 703.9116737 -293.5 706 C-296.49126093 708.5915935 -299.30758726 711.28399624 -302.0625 714.125 C-305.9817472 712.61491143 -307.63129278 710.33811928 -310 706.9375 C-310.68964844 705.95523438 -311.37929688 704.97296875 -312.08984375 703.9609375 C-312.74082031 703.02507813 -313.39179688 702.08921875 -314.0625 701.125 C-315.06099756 699.76972513 -316.06071078 698.41534357 -317.0625 697.0625 C-319.0625 694.125 -319.0625 694.125 -319.0625 692.125 C-319.7225 692.125 -320.3825 692.125 -321.0625 692.125 C-322.37524414 690.35253906 -322.37524414 690.35253906 -323.84765625 687.890625 C-324.37810547 687.00632812 -324.90855469 686.12203125 -325.45507812 685.2109375 C-326.00615234 684.27507813 -326.55722656 683.33921875 -327.125 682.375 C-327.95741211 680.99441406 -327.95741211 680.99441406 -328.80664062 679.5859375 C-332.95980438 672.60498016 -332.95980438 672.60498016 -333.54077148 669.88964844 C-333.71294189 669.30731445 -333.8851123 668.72498047 -334.0625 668.125 C-335.0525 667.795 -336.0425 667.465 -337.0625 667.125 C-338.46948242 664.97045898 -338.46948242 664.97045898 -339.91796875 662.12109375 C-340.72210205 660.55681641 -340.72210205 660.55681641 -341.54248047 658.9609375 C-342.10596191 657.83945312 -342.66944336 656.71796875 -343.25 655.5625 C-343.83152832 654.42167969 -344.41305664 653.28085937 -345.01220703 652.10546875 C-346.17476298 649.82105763 -347.33303826 647.53446249 -348.48681641 645.24560547 C-349.79367453 642.65740272 -351.11498014 640.07804336 -352.44921875 637.50390625 C-356.22797017 630.16456367 -359.59407566 622.73529583 -362.63037109 615.05664062 C-363.93015246 611.78192927 -365.29420337 608.64251128 -366.95703125 605.53515625 C-370.03099438 599.50336728 -371.91573636 592.98439305 -374 586.5625 C-374.42065238 585.28041128 -374.84187354 583.99850904 -375.26367188 582.71679688 C-375.89760155 580.78998251 -376.53005483 578.86275851 -377.15745544 576.93380737 C-378.20657147 573.70991238 -379.2740171 570.49465218 -380.38500977 567.29150391 C-383.1942409 559.15600035 -385.40441245 551.05806308 -387.125 542.625 C-387.37540039 541.42520508 -387.62580078 540.22541016 -387.88378906 538.98925781 C-391.09818436 523.38768063 -393.94199037 507.75435002 -395.66796875 491.9140625 C-395.76354652 489.22358758 -395.76354652 489.22358758 -397.0625 488.125 C-398.52816373 479.07540528 -398.20926571 469.79140148 -398.1953125 460.65234375 C-398.19598797 459.07776372 -398.19696001 457.5031838 -398.19821167 455.92860413 C-398.19967679 452.6466471 -398.19757222 449.36471749 -398.19287109 446.08276367 C-398.18716981 441.90158122 -398.19046293 437.72046292 -398.19644356 433.5392828 C-398.20007731 430.29370144 -398.19889779 427.04813501 -398.19631577 423.80255318 C-398.19565451 422.26176508 -398.19644648 420.72097558 -398.19879532 419.18018913 C-398.21154227 408.47363638 -397.79718843 398.24043435 -395.58447266 387.75097656 C-394.61339698 382.86562111 -393.96730758 377.92775367 -393.25 373 C-386.80327748 330.01979936 -386.80327748 330.01979936 -380.671875 315.92919922 C-378.96469113 312.0010612 -377.62959509 307.99302461 -376.3203125 303.91796875 C-375.80625276 302.34561706 -375.29192127 300.77335419 -374.77734375 299.20117188 C-373.98226097 296.76039006 -373.18956485 294.31890438 -372.40185547 291.87573242 C-367.19733367 275.76580082 -367.19733367 275.76580082 -363.29101562 268.47583008 C-360.82011168 263.74762377 -358.85040841 258.77595296 -356.75 253.875 C-353.19386817 245.68272594 -349.48596516 237.81814756 -344.8828125 230.16796875 C-343.0252221 227.06268351 -341.35336223 223.89912742 -339.6875 220.6875 C-335.96630238 213.70598703 -331.58009258 207.24751445 -327.1328125 200.71826172 C-325.84596439 198.80266619 -324.63242427 196.84904719 -323.4375 194.875 C-320.89697675 190.74776398 -318.0309836 186.87178186 -315.15625 182.97265625 C-313.80715543 181.13778696 -312.47258367 179.29210583 -311.15625 177.43359375 C-305.8542469 169.96950333 -300.04978797 163.03964235 -294.0625 156.125 C-293.42183594 155.3825 -292.78117187 154.64 -292.12109375 153.875 C-285.95679819 146.7810543 -279.7454759 139.73600539 -273.0625 133.125 C-272.2375 132.3 -271.4125 131.475 -270.5625 130.625 C-268.0625 128.125 -265.5625 125.625 -263.0625 123.125 C-261.89267578 121.94357422 -261.89267578 121.94357422 -260.69921875 120.73828125 C-252.73602445 112.84587089 -244.59371374 105.0508053 -235.71875 98.1875 C-233.60793057 96.5485108 -231.53394254 94.88267888 -229.46875 93.1875 C-223.28864658 88.13353144 -217.29311538 83.26864291 -210.2109375 79.50390625 C-207.88592106 78.1258884 -207.88592106 78.1258884 -205.70703125 75.70703125 C-202.79436651 72.86320349 -199.95129139 71.1803163 -196.375 69.25 C-192.12029265 66.91338937 -188.09103127 64.52779575 -184.1875 61.625 C-179.45616284 58.20447592 -174.44946613 55.70476357 -169.21166992 53.17138672 C-164.84283204 51.04974282 -160.66709326 48.754287 -156.5 46.25 C-147.66785581 41.10299184 -138.24805531 37.28466084 -128.83935547 33.32617188 C-126.14056798 32.15876951 -123.49454863 30.9083468 -120.83984375 29.64453125 C-113.88041177 26.45848704 -106.60734368 24.26677887 -99.3125 22 C-97.24632581 21.35392677 -95.18086625 20.7057628 -93.11663818 20.05349731 C-91.25528442 19.46588446 -89.39186536 18.88482524 -87.52832031 18.30419922 C-84.01117995 17.15985501 -84.01117995 17.15985501 -80.50927734 15.58398438 C-77.27809232 14.21625795 -74.24363251 13.28514114 -70.8359375 12.4765625 C-69.06126099 12.05540161 -69.06126099 12.05540161 -67.25073242 11.62573242 C-65.36318237 11.19224487 -65.36318237 11.19224487 -63.4375 10.75 C-62.78842682 10.59914948 -62.13935364 10.44829895 -61.47061157 10.2928772 C-48.06868652 7.18776501 -34.58425037 4.84513873 -21.00512695 2.64550781 C-18.40493351 2.1855715 -15.86806988 1.62453946 -13.3046875 0.99609375 C-8.8389081 -0.03887838 -4.56627648 -0.10405187 0 0 Z " fill="#83C1DA" transform="translate(398.0625,-0.12499999999999999)"/>
<path d="M0 0 C1.34603977 -0.00374313 2.69207736 -0.00834728 4.03811157 -0.01373065 C7.71296817 -0.0258944 11.38773328 -0.02570805 15.06260538 -0.02334189 C19.03552032 -0.02293204 23.00840658 -0.033989 26.98130798 -0.04345703 C34.75647442 -0.06003207 42.53161053 -0.06556501 50.30679317 -0.06668179 C56.63126934 -0.06763401 62.95573556 -0.07175301 69.28020859 -0.07808304 C87.23545334 -0.09568664 105.19067424 -0.1049234 123.14592768 -0.10342209 C124.11281763 -0.10334218 125.07970758 -0.10326227 126.07589722 -0.10317993 C127.04397627 -0.10309817 128.01205531 -0.10301641 129.00947009 -0.10293217 C144.68909307 -0.10211973 160.36861987 -0.12124911 176.04821505 -0.14945666 C192.17163266 -0.17823231 208.29500345 -0.19199436 224.41844738 -0.19026911 C233.46095333 -0.18960678 242.50335849 -0.19502995 251.54584122 -0.21662521 C259.24646149 -0.23489882 266.94693529 -0.23913395 274.64756794 -0.22560637 C278.57063837 -0.21910746 282.4934283 -0.21884687 286.41647148 -0.23631287 C324.78503277 -0.39613888 324.78503277 -0.39613888 340.49093628 11.26742554 C341.1947644 11.71730835 341.89859253 12.16719116 342.62374878 12.63070679 C349.06436055 16.91181932 353.13037338 22.98554182 357.49093628 29.26742554 C357.9988269 29.94805054 358.50671753 30.62867554 359.02999878 31.32992554 C367.98553958 44.07646214 368.46344029 61.7647457 366.11154175 76.67221069 C364.0554936 86.36929701 359.57924688 94.47529667 353.49093628 102.26742554 C352.86187378 103.08984741 352.23281128 103.91226929 351.58468628 104.75961304 C340.51921874 118.22864525 323.44888183 124.54237765 306.49093628 126.26742554 C297.18912934 126.78836148 287.86305572 126.69414461 278.54965448 126.67425859 C274.77308174 126.66948228 270.99655775 126.68207584 267.22000122 126.692276 C259.84134326 126.70938362 252.46277076 126.71032071 245.08409813 126.7050631 C239.07968491 126.7010046 233.07529675 126.70248479 227.0708847 126.70781136 C226.21291429 126.70855978 225.35494388 126.7093082 224.47097437 126.7100793 C222.72740954 126.71161095 220.98384471 126.7131493 219.24027988 126.71469427 C202.92603089 126.72839058 186.61182999 126.72300216 170.29758212 126.71150906 C155.4131858 126.70158273 140.5289139 126.71451207 125.64453676 126.73844325 C110.31643255 126.76289982 94.98838613 126.77242587 79.66026282 126.76579052 C71.07267879 126.76231244 62.48519031 126.76443628 53.89762115 126.78204155 C46.58628479 126.79684602 39.27511126 126.7972925 31.96377781 126.77997064 C28.24269736 126.77152489 24.52190674 126.76915077 20.80084229 126.78462219 C-3.8636408 126.87962751 -28.56868451 126.77892412 -47.33328247 108.50570679 C-48.05129028 107.76707397 -48.7692981 107.02844116 -49.50906372 106.26742554 C-50.15488403 105.64223022 -50.80070435 105.01703491 -51.46609497 104.37289429 C-56.81881126 98.83359094 -59.61428434 92.32867928 -62.50906372 85.26742554 C-62.91382935 84.32383179 -63.31859497 83.38023804 -63.73562622 82.40805054 C-69.11105062 69.02749771 -68.58253441 54.24691438 -63.19656372 40.89242554 C-62.3262349 39.00545174 -61.43191696 37.12927522 -60.50906372 35.26742554 C-60.13910278 34.47851929 -59.76914185 33.68961304 -59.38796997 32.87680054 C-54.56602158 23.33301341 -46.56993404 14.93263509 -37.50906372 9.26742554 C-35.24734497 8.58383179 -35.24734497 8.58383179 -33.50906372 8.26742554 C-33.50906372 7.60742554 -33.50906372 6.94742554 -33.50906372 6.26742554 C-32.05589681 5.63050557 -30.59609412 5.00872758 -29.13406372 4.39242554 C-28.32195435 4.04437866 -27.50984497 3.69633179 -26.67312622 3.33773804 C-17.84101724 0.35008636 -9.26541266 -0.02328729 0 0 Z " fill="#D2D5DB" transform="translate(815.5090637207031,1442.7325744628906)"/>
<path d="M0 0 C1.33711952 -0.00418545 2.67423549 -0.00966952 4.01134503 -0.01631981 C7.64300676 -0.03063461 11.27443887 -0.0265741 14.90611243 -0.019153 C18.83942717 -0.01438861 22.77269452 -0.02695984 26.70599365 -0.03717041 C34.3950707 -0.05430004 42.08406582 -0.05521061 49.77315699 -0.04995751 C56.02746142 -0.04590371 62.28174178 -0.04737367 68.53604507 -0.05270576 C69.875096 -0.0538284 69.875096 -0.0538284 71.24119846 -0.05497371 C73.05515329 -0.05650531 74.86910811 -0.05804365 76.68306293 -0.05958868 C93.66483143 -0.07329256 110.64655376 -0.06789087 127.62832119 -0.05640347 C143.1363315 -0.04647296 158.64422248 -0.05941237 174.15221439 -0.08333766 C190.10852236 -0.10776754 206.06477483 -0.11732701 222.02110112 -0.11068493 C230.96629058 -0.10720139 239.91138832 -0.10936744 248.85656357 -0.12693596 C256.47109043 -0.14170666 264.08546094 -0.14223009 271.69998489 -0.12486505 C275.57852259 -0.1163926 279.45678159 -0.1141125 283.33530426 -0.1295166 C304.21920079 -0.20627421 321.51597661 -0.07003593 339.12380981 12.38768005 C339.68157104 12.73967468 340.23933228 13.09166931 340.81399536 13.45433044 C345.95195936 16.81204435 349.2843813 20.97212172 352.81130981 25.95018005 C353.66547485 27.14356995 353.66547485 27.14356995 354.53689575 28.36106873 C358.76530072 34.45679348 361.60255128 40.06950455 363.12380981 47.38768005 C363.38097778 48.55097839 363.38097778 48.55097839 363.64334106 49.73777771 C366.76824971 66.97241104 363.95663958 84.10202587 354.33328247 98.66941833 C345.80753557 110.7816926 335.02235981 118.38325335 321.12380981 123.38768005 C319.99648745 123.90022006 319.99648745 123.90022006 318.8463909 124.42311442 C315.81217019 125.49808884 313.48725035 125.64049428 310.2734499 125.64494896 C308.50691105 125.6546223 308.50691105 125.6546223 306.70468456 125.66449106 C305.41482038 125.66139385 304.12495621 125.65829665 302.79600525 125.65510559 C301.40875666 125.65884255 300.02151018 125.66344425 298.63426703 125.66883624 C294.82251539 125.68107638 291.01085145 125.68080457 287.19908464 125.67844748 C283.08781796 125.67803957 278.97657949 125.68907618 274.86532593 125.69856262 C266.81007886 125.7151799 258.75486106 125.72067253 250.69959829 125.72178738 C244.15088546 125.72273765 237.60218229 125.7268469 231.05347252 125.73318863 C212.48491792 125.75080417 193.91638644 125.76002718 175.34782342 125.75852768 C173.84607853 125.75840781 173.84607853 125.75840781 172.31399536 125.75828552 C170.81041551 125.75816288 170.81041551 125.75816288 169.27646031 125.75803776 C153.03634624 125.7572251 136.79632497 125.7763569 120.55623773 125.80456226 C103.87930153 125.8332976 87.20241057 125.84710214 70.52544898 125.8453747 C61.16336283 125.84471096 51.80137392 125.85019642 42.43931007 125.8717308 C34.46684287 125.8899513 26.49451698 125.89428293 18.52203796 125.88071196 C14.45595539 125.87418625 10.39014385 125.87405048 6.32408714 125.89141846 C2.59746274 125.90717246 -1.12867628 125.90426222 -4.85528902 125.88685019 C-6.83298987 125.88233991 -8.81070591 125.89741951 -10.7883479 125.91332948 C-18.34219272 125.85498116 -24.10760595 124.75403734 -30.87619019 121.38768005 C-32.006698 120.87205505 -33.13720581 120.35643005 -34.30197144 119.82518005 C-35.25458862 119.35080505 -36.20720581 118.87643005 -37.18869019 118.38768005 C-38.154198 117.91330505 -39.11970581 117.43893005 -40.11447144 116.95018005 C-52.20151872 110.11168088 -59.34669687 98.72031403 -64.87619019 86.38768005 C-65.29384644 85.50853943 -65.71150269 84.6293988 -66.14181519 83.72361755 C-71.53961802 70.53321204 -70.63065647 54.29320645 -65.49703979 41.17601013 C-59.46034841 26.9536824 -51.33272911 16.23732776 -37.87619019 8.38768005 C-37.11822144 7.93521912 -36.36025269 7.48275818 -35.57931519 7.0165863 C-24.52634219 0.93022699 -12.40102691 -0.06164794 0 0 Z " fill="#D2D5DB" transform="translate(817.8761901855469,1688.612319946289)"/>
<path d="M0 0 C1.68081768 -0.00543724 3.36163058 -0.01256878 5.04243469 -0.02124023 C9.55700203 -0.0392864 14.07119875 -0.03248451 18.58577156 -0.01972389 C23.34149192 -0.0094981 28.09718348 -0.01901586 32.85290527 -0.02526855 C40.83477392 -0.03251736 48.81649385 -0.02303035 56.79833984 -0.00390625 C65.98704687 0.01785712 75.17539869 0.01080378 84.36409712 -0.01121187 C92.29584497 -0.02944519 100.22748676 -0.03188566 108.15924883 -0.0214572 C112.87792807 -0.01526562 117.59644112 -0.01426565 122.31510925 -0.02760315 C126.75429347 -0.03927739 131.19302597 -0.03092812 135.63216209 -0.00802612 C137.24768008 -0.00280012 138.86323703 -0.00414592 140.47873878 -0.01307678 C153.80547481 -0.07987841 167.80381582 0.98931035 179.05664062 8.83007812 C179.62721191 9.22541748 180.1977832 9.62075684 180.78564453 10.02807617 C182.39676342 11.16227637 183.97797492 12.33862573 185.55664062 13.51757812 C186.3378125 14.08476563 187.11898438 14.65195313 187.92382812 15.23632812 C199.88755453 24.7328269 207.62166379 41.14074522 209.36914062 56.10351562 C210.38658913 74.6295572 204.83665963 92.26610539 192.55664062 106.51757812 C175.99932874 122.93575294 155.00973972 126.99902962 132.44604492 126.92163086 C130.90802521 126.92735346 129.37000974 126.9343249 127.83200073 126.94242859 C123.70570825 126.96016858 119.57963063 126.95922806 115.45331168 126.9534862 C111.98476643 126.9503657 108.51626077 126.95651835 105.04772121 126.96252495 C96.85217359 126.97650626 88.65673035 126.97506308 80.46118164 126.96362305 C72.05983459 126.95215351 63.65880721 126.96621259 55.25750226 126.99301952 C47.99492446 127.01530903 40.73244604 127.02178416 33.46983653 127.01594311 C29.15401943 127.01260314 24.83840695 127.01478785 20.52261925 127.03219414 C-30.98909173 127.21991736 -30.98909173 127.21991736 -51.90820312 109.16601562 C-56.67123128 104.1901557 -60.06395713 98.48762878 -63.44335938 92.51757812 C-63.97058594 91.59203125 -64.4978125 90.66648437 -65.04101562 89.71289062 C-71.95944354 76.76352992 -72.4155381 60.30818531 -69.44335938 46.08007812 C-64.84095093 30.93318461 -54.69107426 17.87778655 -41.44335938 9.51757812 C-40.83234375 9.05609375 -40.22132813 8.59460937 -39.59179688 8.11914062 C-28.42144338 -0.00027931 -13.22473247 -0.0731093 0 0 Z " fill="#D4D7DD" transform="translate(357.443359375,1442.482421875)"/>
<path d="M0 0 C1.69229225 -0.00543705 3.38457975 -0.01256847 5.07685852 -0.02124023 C9.62234862 -0.03928733 14.16747067 -0.03248448 18.7129662 -0.01972389 C23.49985093 -0.00950027 28.28670699 -0.01901512 33.07359314 -0.02526855 C41.10673604 -0.03251727 49.13973117 -0.02302983 57.17285156 -0.00390625 C66.42406171 0.01786454 75.67491917 0.01079837 84.92612082 -0.01121187 C92.90965709 -0.02943653 100.89308797 -0.03189006 108.87663835 -0.0214572 C113.62714339 -0.01526187 118.37748333 -0.01427642 123.12797737 -0.02760315 C127.59588477 -0.03926489 132.06334283 -0.03095019 136.53120232 -0.00802612 C138.15842828 -0.00279392 139.7856929 -0.004157 141.41290283 -0.01307678 C155.03208994 -0.08077787 168.27876026 1.37705049 179.88647461 9.20507812 C180.55404785 9.63933105 181.22162109 10.07358398 181.90942383 10.52099609 C187.32071981 14.16425798 191.53779285 18.28673113 195.44897461 23.51757812 C195.98651367 24.15050781 196.52405273 24.7834375 197.07788086 25.43554688 C208.33129516 39.11450913 209.75956217 56.54082283 208.44897461 73.51757812 C206.40872947 88.0321988 199.37532699 99.13443785 189.44897461 109.51757812 C188.78897461 109.51757812 188.12897461 109.51757812 187.44897461 109.51757812 C187.11897461 110.50757813 186.78897461 111.49757813 186.44897461 112.51757812 C183.99209699 114.14958347 181.59034151 115.60535531 179.01147461 117.01757812 C178.28154297 117.42049072 177.55161133 117.82340332 176.79956055 118.23852539 C162.95701429 125.70057086 148.42786927 126.82043317 132.90014648 126.80810547 C131.37419308 126.81410465 129.84824268 126.82091334 128.32229614 126.82846069 C124.21020823 126.84599194 120.09820376 126.85081074 115.98608208 126.85209227 C113.40553314 126.85352238 110.82500483 126.85780822 108.24446106 126.8630867 C99.20877762 126.88154822 90.17315285 126.88976266 81.13745117 126.88818359 C72.76916607 126.88698499 64.40114003 126.90804196 56.03292036 126.93967092 C48.80523728 126.96599683 41.57763793 126.97654404 34.3499074 126.97527277 C30.0524281 126.97476767 25.75517913 126.98019568 21.45774841 127.00162888 C-32.66111851 127.25216326 -32.66111851 127.25216326 -51.17602539 109.51757812 C-52.3297353 108.20900783 -53.45578652 106.8754642 -54.55102539 105.51757812 C-55.16075195 104.82019531 -55.77047852 104.1228125 -56.39868164 103.40429688 C-60.98756076 97.91907618 -63.96827932 92.16435109 -66.55102539 85.51757812 C-66.86040039 84.73898437 -67.16977539 83.96039062 -67.48852539 83.15820312 C-73.19708104 66.80099558 -70.88139811 48.00431598 -63.6496582 32.51953125 C-56.83546464 20.1025563 -43.41964621 7.89819004 -30.0699091 3.32508087 C-19.90161159 0.6792897 -10.47630906 -0.05750619 0 0 Z " fill="#C3C6CC" transform="translate(1435.551025390625,1442.482421875)"/>
<path d="M0 0 C0.68889582 -0.00367669 1.37779164 -0.00735338 2.0875631 -0.01114148 C4.3778056 -0.02208483 6.66800259 -0.02600616 8.95826721 -0.02983093 C10.60819642 -0.03610283 12.25812423 -0.04275027 13.90805054 -0.04974365 C19.31223075 -0.07070627 24.71641098 -0.08114117 30.12062073 -0.09111023 C31.98844479 -0.09516119 33.85626871 -0.09927822 35.72409248 -0.10346031 C44.50520983 -0.12249765 53.28631886 -0.13672974 62.06745285 -0.14507228 C72.16734228 -0.15482879 82.26701164 -0.18111293 92.36682361 -0.22157317 C100.19645119 -0.25185057 108.0260161 -0.26655226 115.85570103 -0.26985329 C120.52089898 -0.27219118 125.18586145 -0.28098541 129.85099602 -0.30631447 C134.24814822 -0.32980367 138.64491338 -0.33374587 143.04211235 -0.32355309 C144.64313046 -0.32306258 146.24416901 -0.32923708 147.84512711 -0.34310913 C158.74550881 -0.43216361 168.3564701 1.04285928 178.81202698 4.14717102 C178.81202698 4.80717102 178.81202698 5.46717102 178.81202698 6.14717102 C179.34569885 6.27092102 179.87937073 6.39467102 180.42921448 6.52217102 C191.58292286 9.60970275 202.06493391 18.93794647 207.83302307 28.91279602 C210.08947693 33.21885287 211.97649589 37.64812472 213.81202698 42.14717102 C214.16265198 42.9386554 214.51327698 43.73013977 214.87452698 44.54560852 C220.3166671 58.20328709 218.23580122 74.12772288 212.62452698 87.27217102 C208.75792875 95.9022798 203.97258039 103.83906444 196.81202698 110.14717102 C196.22421448 110.67697571 195.63640198 111.2067804 195.03077698 111.75263977 C185.57568838 119.74360084 173.87913331 125.29764567 161.45091248 125.29434204 C160.70726035 125.29801873 159.96360823 125.30169542 159.19742119 125.30548352 C156.70420335 125.31650119 154.21102722 125.32036096 151.7177887 125.32417297 C149.93048979 125.33043914 148.14319218 125.33708607 146.355896 125.34408569 C140.48451136 125.36511255 134.61312651 125.37548767 128.74171448 125.38545227 C126.71867484 125.38950052 124.69563534 125.39361746 122.67259598 125.39780235 C113.16639548 125.416852 103.66020273 125.4310828 94.15398681 125.43941432 C83.19031748 125.44918243 72.22685027 125.47549184 61.26325214 125.51591522 C52.7832535 125.54610548 44.3033127 125.56088601 35.82326138 125.56419533 C30.76138979 125.56654273 25.69973419 125.57546274 20.63792038 125.60065651 C15.87230675 125.62399276 11.10705046 125.62814815 6.34139442 125.61789513 C4.59756721 125.61740099 2.85372207 125.62368536 1.10994911 125.63745117 C-8.02779169 125.70551863 -15.91183662 125.52326192 -24.18797302 121.14717102 C-25.77932068 120.47814758 -25.77932068 120.47814758 -27.40281677 119.79560852 C-39.27725853 114.24170893 -48.23187338 105.88572308 -54.18797302 94.14717102 C-54.89437339 92.16085711 -55.57192226 90.16333716 -56.18797302 88.14717102 C-56.84797302 88.14717102 -57.50797302 88.14717102 -58.18797302 88.14717102 C-58.66830482 86.56419076 -59.14718914 84.98077124 -59.62547302 83.39717102 C-59.89230896 82.51545227 -60.1591449 81.63373352 -60.43406677 80.72529602 C-64.70871628 66.10732362 -63.62541043 48.41238251 -56.62400818 34.90132141 C-49.94941547 22.75813209 -40.1379023 11.71617353 -27.18797302 6.14717102 C-26.19797302 6.14717102 -25.20797302 6.14717102 -24.18797302 6.14717102 C-24.18797302 5.48717102 -24.18797302 4.82717102 -24.18797302 4.14717102 C-22.66926604 3.66130702 -21.14786603 3.18385901 -19.62547302 2.70967102 C-18.77855896 2.44283508 -17.9316449 2.17599915 -17.05906677 1.90107727 C-11.39572022 0.41396722 -5.83778561 0.02034212 0 0 Z " fill="#D4D7DD" transform="translate(349.18797302246094,1688.8528289794922)"/>
<path d="M0 0 C1.65081744 -0.00571617 3.30163095 -0.01268521 4.95243835 -0.02079773 C9.39893993 -0.03860858 13.84524286 -0.03758346 18.29176927 -0.03185534 C22.02140529 -0.02874527 25.75100416 -0.03487616 29.48063487 -0.04089409 C38.28920525 -0.05489869 47.09767856 -0.0534126 55.90625 -0.04199219 C64.95344385 -0.03052063 74.00034091 -0.04457978 83.04749566 -0.07138866 C90.85178597 -0.09363745 98.65598375 -0.10016231 106.46030349 -0.09431225 C111.10526404 -0.09096265 115.75003455 -0.09322315 120.39496803 -0.11056328 C124.76761349 -0.12617715 129.13982391 -0.12191923 133.51245308 -0.10325813 C135.10378697 -0.09961151 136.69515416 -0.10256381 138.28645706 -0.11314392 C151.83052494 -0.19621736 165.83220798 1.11241597 177.36010742 8.90405273 C178.26212891 9.4705957 178.26212891 9.4705957 179.18237305 10.04858398 C184.67325098 13.54879314 189.21507681 17.14811904 193.23510742 22.27905273 C193.88608398 23.10147461 194.53706055 23.92389648 195.20776367 24.77124023 C199.11211791 30.00291967 201.92410628 34.77906833 203.86010742 41.02905273 C204.0721582 41.68389648 204.28420898 42.33874023 204.50268555 43.01342773 C209.55551807 58.76168808 208.52448219 75.20237492 202.17260742 90.40405273 C201.85807617 91.21358398 201.54354492 92.02311523 201.21948242 92.85717773 C194.54192479 107.16622981 181.38411273 116.72075721 167.17260742 122.40405273 C166.56351154 122.66472672 165.95441566 122.9254007 165.32686234 123.1939739 C160.63992078 125.1128978 156.44613835 125.84159862 151.37084961 125.81192017 C150.62801318 125.8194224 149.88517675 125.82692464 149.11983013 125.83465421 C146.6529151 125.85583307 144.18648125 125.85587127 141.71948242 125.85571289 C139.94132254 125.86633691 138.16316953 125.878169 136.38502502 125.89111328 C131.56844211 125.92181078 126.75200779 125.93302669 121.93533707 125.93875551 C118.91930727 125.94312001 115.90331548 125.95150266 112.88729858 125.96125412 C102.34550012 125.99497886 91.80381333 126.01213214 81.26196289 126.01489258 C71.46888 126.01792209 61.67643072 126.05830762 51.88353157 126.11604083 C43.45089401 126.1639859 35.01846432 126.18462482 26.58569145 126.1846832 C21.56041398 126.18521873 16.53575685 126.19656519 11.51062012 126.23585892 C6.77587006 126.27200511 2.04226693 126.27383972 -2.69255257 126.25068665 C-4.41774849 126.24785185 -6.14301504 126.25667784 -7.8680706 126.27886581 C-20.10195771 126.42629667 -28.99492583 124.07557107 -39.82739258 118.40405273 C-40.82498093 117.90546564 -41.82256927 117.40687855 -42.85038757 116.89318275 C-48.94346904 113.76619808 -52.70966366 109.40416057 -56.81958008 103.98999023 C-58.71504558 101.40480155 -58.71504558 101.40480155 -60.88989258 99.48999023 C-69.71746064 89.98611655 -71.71062417 73.7555558 -71.82739258 61.40405273 C-70.82455835 46.75948934 -66.86841733 31.63719763 -55.82739258 21.40405273 C-54.9267611 20.26198692 -54.03128316 19.11584565 -53.13989258 17.96655273 C-49.41852234 13.57895254 -44.84612327 11.09612076 -39.82739258 8.40405273 C-39.03204102 7.94901367 -38.23668945 7.49397461 -37.41723633 7.02514648 C-25.57377656 0.573831 -13.17251284 -0.04165172 0 0 Z " fill="#C3C6CC" transform="translate(1436.827392578125,1688.595947265625)"/>
</svg>
