<?xml version="1.0" encoding="UTF-8"?>
<svg version="1.1" xmlns="http://www.w3.org/2000/svg" width="512" height="512">
<path d="M0 0 C0.71464417 -0.00067474 1.42928833 -0.00134949 2.16558838 -0.00204468 C13.24811778 0.01456592 23.83178323 0.60506314 34.625 3.25 C35.34719727 3.41628906 36.06939453 3.58257812 36.81347656 3.75390625 C63.41927509 9.97075229 86.84983924 23.50133613 106.625 42.25 C108.06166016 43.58998047 108.06166016 43.58998047 109.52734375 44.95703125 C135.07896179 69.26374204 149.98262722 103.40374748 153.625 138.25 C153.66558625 139.91617242 153.68828766 141.58453537 153.625 143.25 C154.8625 143.3325 156.1 143.415 157.375 143.5 C175.41414127 145.56080957 194.06165701 156.36342828 205.625 170.25 C211.87714532 178.35790577 216.92236435 186.65015741 220.625 196.25 C221.03878906 197.31863281 221.45257813 198.38726562 221.87890625 199.48828125 C228.42491564 219.62809411 226.0349335 242.68931559 216.9375 261.5625 C213.36128126 268.54151445 208.94936538 274.48114942 203.625 280.25 C203.01269531 280.95382812 202.40039062 281.65765625 201.76953125 282.3828125 C188.88194527 296.39703179 168.32389643 305.43649327 149.41368103 306.35772705 C146.91863838 306.41420117 144.42534165 306.44089012 141.9296875 306.453125 C141.01921661 306.45882507 140.10874573 306.46452515 139.17068481 306.47039795 C137.2562169 306.47979859 135.34173317 306.48636216 133.42724609 306.49023438 C130.50199512 306.49999334 127.57743184 306.53108439 124.65234375 306.5625 C122.78646248 306.56902609 120.92057622 306.57427811 119.0546875 306.578125 C117.74828812 306.5966452 117.74828812 306.5966452 116.41549683 306.61553955 C111.65885805 306.59808614 108.4824143 306.35596996 104.625 303.25 C102.88976072 300.60582586 102.625 299.46534057 102.625 296.25 C96.355 296.25 90.085 296.25 83.625 296.25 C82.965 298.23 82.305 300.21 81.625 302.25 C80.0216516 304.40942299 79.11684003 305.1044743 76.5390625 305.8671875 C72.74760416 306.29421182 70.28146884 306.51538102 66.6875 305.0625 C64.55198759 303.18583758 63.54443798 301.92472868 62.625 299.25 C62.625 298.26 62.625 297.27 62.625 296.25 C56.355 296.25 50.085 296.25 43.625 296.25 C42.965 298.23 42.305 300.21 41.625 302.25 C39.64536826 304.74605741 38.73253611 305.21415463 35.625 306.25 C32.81845823 306.35040203 30.03663043 306.3934265 27.2298584 306.39044189 C26.36273712 306.39341302 25.49561584 306.39638414 24.60221815 306.3994453 C21.68467222 306.40814476 18.76716726 306.40964167 15.84960938 306.41113281 C13.76179415 306.41576053 11.67397977 306.42078513 9.58616638 306.42617798 C3.90136561 306.43931848 -1.78342333 306.4457515 -7.46823692 306.45018864 C-11.02513665 306.45311996 -14.58203316 306.45722514 -18.13893127 306.46169281 C-29.28166994 306.47537925 -40.42440124 306.48503725 -51.56714773 306.4888947 C-64.40070918 306.49336224 -77.23416341 306.51084447 -90.06769228 306.5398953 C-100.00087845 306.56159352 -109.93403466 306.5716035 -119.86724424 306.57293582 C-125.79177183 306.5739791 -131.71619881 306.5797833 -137.64070129 306.59775543 C-143.22869501 306.61437458 -148.81651405 306.61632521 -154.40452385 306.60761642 C-156.44127308 306.60685309 -158.47803223 306.61109431 -160.51475716 306.62107468 C-197.08528309 306.7895698 -227.70982621 296.90158531 -254.375 271.25 C-255.32632813 270.41082031 -255.32632813 270.41082031 -256.296875 269.5546875 C-274.24487989 253.23054972 -286.23437201 225.03460195 -287.55200195 201.0246582 C-288.20111062 164.22717905 -280.3081359 132.88663584 -254.18994141 105.71557617 C-248.37153926 99.81499321 -242.49590983 94.55243877 -235.375 90.25 C-234.31925781 89.59644531 -233.26351562 88.94289063 -232.17578125 88.26953125 C-204.32757054 71.43475956 -173.020524 67.63702098 -141.375 74.25 C-139.83392578 74.56904297 -139.83392578 74.56904297 -138.26171875 74.89453125 C-136.29359429 75.31998895 -134.3326558 75.77871249 -132.375 76.25 C-131.98570312 75.60675781 -131.59640625 74.96351562 -131.1953125 74.30078125 C-108.27812393 37.2847693 -74.29040432 13.11464624 -32.10327148 3.11425781 C-21.31171162 0.65769827 -11.03588012 0.00935486 0 0 Z " fill="#9FC7FE" transform="translate(287.375,3.75)"/>
<path d="M0 0 C0.71464417 -0.00067474 1.42928833 -0.00134949 2.16558838 -0.00204468 C13.24811778 0.01456592 23.83178323 0.60506314 34.625 3.25 C35.34719727 3.41628906 36.06939453 3.58257812 36.81347656 3.75390625 C63.41927509 9.97075229 86.84983924 23.50133613 106.625 42.25 C108.06166016 43.58998047 108.06166016 43.58998047 109.52734375 44.95703125 C135.07896179 69.26374204 149.98262722 103.40374748 153.625 138.25 C153.66558625 139.91617242 153.68828766 141.58453537 153.625 143.25 C154.8625 143.3325 156.1 143.415 157.375 143.5 C175.41414127 145.56080957 194.06165701 156.36342828 205.625 170.25 C211.87714532 178.35790577 216.92236435 186.65015741 220.625 196.25 C221.03878906 197.31863281 221.45257813 198.38726562 221.87890625 199.48828125 C228.42491564 219.62809411 226.0349335 242.68931559 216.9375 261.5625 C213.36128126 268.54151445 208.94936538 274.48114942 203.625 280.25 C203.01269531 280.95382812 202.40039062 281.65765625 201.76953125 282.3828125 C188.88194527 296.39703179 168.32389643 305.43649327 149.41368103 306.35772705 C146.91863838 306.41420117 144.42534165 306.44089012 141.9296875 306.453125 C141.01921661 306.45882507 140.10874573 306.46452515 139.17068481 306.47039795 C137.2562169 306.47979859 135.34173317 306.48636216 133.42724609 306.49023438 C130.50199512 306.49999334 127.57743184 306.53108439 124.65234375 306.5625 C122.78646248 306.56902609 120.92057622 306.57427811 119.0546875 306.578125 C117.74828812 306.5966452 117.74828812 306.5966452 116.41549683 306.61553955 C111.65249323 306.59806279 108.49651004 306.34455176 104.625 303.25 C102.29432423 300.03144775 102.15758863 297.14509474 102.625 293.25 C105.78289474 287.67105263 105.78289474 287.67105263 108.625 286.25 C110.7986216 286.13026268 112.97565628 286.07067806 115.15234375 286.0390625 C116.50660702 286.0135733 117.86085488 285.98725467 119.21508789 285.96020508 C119.92521027 285.94696198 120.63533264 285.93371887 121.36697388 285.92007446 C147.57026957 285.38211708 171.26485981 283.4002853 190.5 263.4375 C201.90233635 250.14156136 204.50188891 232.42677449 203.79980469 215.48291016 C202.58547439 199.97136698 193.04583211 187.07253631 181.625 177.25 C167.39393817 166.04727424 149.3732156 162.58036874 131.625 164.25 C123.62037496 165.75485533 116.51221403 169.16875485 109.546875 173.29296875 C106.37254282 174.87368295 104.06424426 174.91139313 100.625 174.25 C97.04986848 171.29663048 94.88135666 169.12994881 94.25 164.5 C94.73557874 160.29165095 96.62990832 158.06809214 99.625 155.25 C102.0749981 153.59228644 104.6362994 152.31474559 107.3125 151.0625 C108.02075928 150.72154297 108.72901855 150.38058594 109.45874023 150.02929688 C117.27387482 146.34655828 123.90746334 144.08093262 132.625 144.25 C127.90636049 110.53113839 116.92461539 84.3580693 93.625 59.25 C93.09648437 58.65574219 92.56796875 58.06148437 92.0234375 57.44921875 C71.05765003 34.92443683 37.54595951 22.3432873 7.3515625 20.8359375 C-30.90810705 19.86537411 -64.89558726 33.12117096 -92.80737305 59.29614258 C-100.6274535 66.8498456 -109.89433778 76.80801334 -113.375 87.25 C-112.64667969 87.51683594 -111.91835937 87.78367187 -111.16796875 88.05859375 C-102.39048816 91.80283372 -95.22879238 98.78074383 -88.375 105.25 C-87.69695312 105.86359375 -87.01890625 106.4771875 -86.3203125 107.109375 C-74.34413804 118.36409317 -61.51411543 136.88052855 -58.875 153.375 C-59.560809 157.31840173 -61.19816991 159.89792388 -64.375 162.25 C-68.16487246 163.62535694 -71.02610535 163.7340531 -74.82421875 162.37109375 C-78.75330932 159.10387142 -80.18554218 154.8730655 -82.1875 150.25 C-85.88367592 142.12666491 -89.58453408 135.09327791 -95.375 128.25 C-96.04789063 127.41726562 -96.72078125 126.58453125 -97.4140625 125.7265625 C-109.62421857 111.29637805 -125.57293898 102.03269621 -143.375 96.25 C-144.1887207 95.97567139 -145.00244141 95.70134277 -145.84082031 95.41870117 C-153.36492936 93.09475561 -160.41312032 92.83090479 -168.25 92.9375 C-170.01537109 92.93266602 -170.01537109 92.93266602 -171.81640625 92.92773438 C-197.78439161 93.0848564 -220.24488136 101.70554376 -238.95703125 119.73828125 C-257.53366189 138.99976463 -264.5484931 162.85558419 -264.5625 189.0625 C-264.58086914 190.85397461 -264.58086914 190.85397461 -264.59960938 192.68164062 C-264.61695225 203.30126315 -263.59120558 213.34096678 -259.625 223.25 C-259.36041992 223.92587158 -259.09583984 224.60174316 -258.82324219 225.2980957 C-249.11225981 249.65906841 -233.51587943 266.65757444 -209.375 277.5625 C-197.39210626 282.47308452 -185.12913456 284.40494856 -172.25314331 284.38803101 C-171.368494 284.39085229 -170.48384468 284.39367357 -169.57238781 284.39658034 C-166.62621173 284.40487274 -163.68007349 284.40625993 -160.73388672 284.40771484 C-158.61438899 284.41238679 -156.49489226 284.41753098 -154.37539673 284.42311096 C-149.82034271 284.43436347 -145.26529513 284.44281112 -140.71023178 284.44923019 C-133.50805999 284.45993229 -126.30593478 284.4801809 -119.10379028 284.50234985 C-98.62699506 284.56420687 -78.1502034 284.61833788 -57.67333984 284.65136719 C-46.3572765 284.66969985 -35.041292 284.69861291 -23.7252866 284.7393719 C-17.73923017 284.76045307 -11.7532731 284.77590088 -5.76717758 284.77817917 C-0.14136516 284.78032314 5.48423988 284.79616694 11.10998917 284.82256889 C13.17476254 284.82977108 15.23956102 284.83185842 17.30434418 284.82846642 C20.12217921 284.82457645 22.93935033 284.83901079 25.7571106 284.85800171 C26.57462142 284.85247201 27.39213225 284.84694232 28.23441613 284.84124506 C33.08028301 284.89765172 36.44061266 285.54315652 40.625 288.25 C42.98613721 291.79170582 43.40617292 294.01934307 43.625 298.25 C41.88726858 302.49778792 39.72358354 304.31021623 35.625 306.25 C32.67398558 306.53421052 29.93778027 306.65533989 26.98934937 306.63095093 C26.12051923 306.6356309 25.2516891 306.64031087 24.35653079 306.64513266 C21.44505144 306.6570983 18.53404144 306.64761875 15.62255859 306.63818359 C13.53444647 306.64224901 11.44633649 306.64759072 9.35823059 306.65411377 C3.68175865 306.66780852 -1.99454995 306.66247662 -7.6710248 306.65297651 C-13.62389851 306.64537705 -19.5767583 306.65242764 -25.52963257 306.65713501 C-35.54191592 306.66259766 -45.55413297 306.65539378 -55.56640625 306.64111328 C-67.10245519 306.6248482 -78.63834454 306.63002839 -90.17438948 306.6465925 C-100.09913506 306.66026761 -110.02383294 306.66209586 -119.94858491 306.65427649 C-125.86636039 306.64962489 -131.78406128 306.64890406 -137.70183182 306.65888596 C-143.28166601 306.66763899 -148.86129795 306.66138355 -154.44111061 306.64420319 C-156.47462823 306.64027971 -158.50816326 306.64130005 -160.54167366 306.64799118 C-197.10464048 306.7570759 -227.70989759 296.90151665 -254.375 271.25 C-255.32632813 270.41082031 -255.32632813 270.41082031 -256.296875 269.5546875 C-274.24487989 253.23054972 -286.23437201 225.03460195 -287.55200195 201.0246582 C-288.20111062 164.22717905 -280.3081359 132.88663584 -254.18994141 105.71557617 C-248.37153926 99.81499321 -242.49590983 94.55243877 -235.375 90.25 C-234.31925781 89.59644531 -233.26351562 88.94289063 -232.17578125 88.26953125 C-204.32757054 71.43475956 -173.020524 67.63702098 -141.375 74.25 C-139.83392578 74.56904297 -139.83392578 74.56904297 -138.26171875 74.89453125 C-136.29359429 75.31998895 -134.3326558 75.77871249 -132.375 76.25 C-131.98570312 75.60675781 -131.59640625 74.96351562 -131.1953125 74.30078125 C-108.27812393 37.2847693 -74.29040432 13.11464624 -32.10327148 3.11425781 C-21.31171162 0.65769827 -11.03588012 0.00935486 0 0 Z " fill="#010102" transform="translate(287.375,3.75)"/>
<path d="M0 0 C4.15434591 3.57796522 6.83132222 7.57776888 9.57421875 12.2421875 C10.1890789 13.27208298 10.1890789 13.27208298 10.81636047 14.32278442 C11.67628271 15.76784106 12.53244453 17.21514144 13.38500977 18.66455078 C14.68338968 20.86802439 15.99799303 23.06119814 17.31445312 25.25390625 C18.15203648 26.6660771 18.98865756 28.07881923 19.82421875 29.4921875 C20.21381271 30.14033417 20.60340668 30.78848083 21.00480652 31.45626831 C26.14682079 40.26856957 27.44300128 49.10235911 24.9375 59.0625 C21.92645813 67.94228551 16.36152566 73.35409569 8.33203125 77.90625 C1.30504491 81.20198899 -7.44280886 81.07625972 -14.89453125 79.31640625 C-23.80525563 76.01765882 -29.7547646 70.4573049 -34 62 C-37.48713964 53.19912376 -36.70121006 44.81527855 -33.40429688 36.1484375 C-30.95708954 30.66179184 -27.86505294 25.58156232 -24.7097168 20.48193359 C-23.55576849 18.6141041 -22.42060809 16.7357632 -21.28710938 14.85546875 C-10.64524494 -2.56954188 -10.64524494 -2.56954188 0 0 Z " fill="#000000" transform="translate(186,428)"/>
<path d="M0 0 C5.79208944 5.65041243 9.59209703 12.68804201 13.60595703 19.64355469 C14.75392497 21.63179792 15.91315092 23.61313366 17.07421875 25.59375 C17.81576922 26.86680034 18.55667746 28.14022504 19.296875 29.4140625 C19.63958435 30.00063629 19.9822937 30.58721008 20.33538818 31.19155884 C25.51594849 40.1956647 27.00337013 48.07507937 24.84765625 58.296875 C22.1695734 66.83712076 15.72118789 73.43535743 8.23828125 78.09765625 C1.13311322 81.41134633 -8.21854133 81.16756549 -15.6875 79.34375 C-24.75624943 75.69105926 -30.88545401 69.19342391 -34.9296875 60.38671875 C-37.6049963 51.92141681 -37.19412347 43.64257396 -33.39990234 35.67504883 C-30.6435875 30.40805515 -27.67169728 25.27115861 -24.65478516 20.15063477 C-23.49478358 18.17863209 -22.34667391 16.20002661 -21.19921875 14.22070312 C-20.45643354 12.95271212 -19.71296784 11.68511944 -18.96875 10.41796875 C-18.30294922 9.28125732 -17.63714844 8.1445459 -16.95117188 6.97338867 C-12.56479606 0.2889954 -8.07495815 -2.65368727 0 0 Z " fill="#000000" transform="translate(336,428)"/>
<path d="M0 0 C0.9590625 -0.01546875 0.9590625 -0.01546875 1.9375 -0.03125 C6.99196675 1.2706581 9.79618585 5.32558177 12.38638306 9.60124207 C12.76676727 10.25232437 13.14715149 10.90340668 13.5390625 11.57421875 C13.9465976 12.25748734 14.35413269 12.94075592 14.77401733 13.64472961 C15.63077689 15.08676384 16.4827163 16.5316716 17.33007812 17.97924805 C18.61531307 20.17098072 19.91960705 22.35046328 21.2265625 24.52929688 C27.64187245 35.32620675 33.38181338 45.34893823 30.34375 58.296875 C27.42970952 67.39069097 22.26788946 73.80878703 13.9609375 78.53515625 C5.94341144 82.48003461 -2.21962098 82.65003921 -10.625 79.9375 C-19.12663956 76.51522984 -24.97283224 70.6847701 -29 62.5 C-32.35146946 53.88193567 -31.64640098 46.21201734 -28.43554688 37.73291016 C-25.85156126 31.91366909 -22.58763692 26.50608848 -19.2824707 21.07250977 C-18.05463036 19.04953407 -16.84793459 17.01495035 -15.64257812 14.97851562 C-14.85799701 13.67374106 -14.07223148 12.36967781 -13.28515625 11.06640625 C-12.75209618 10.16481529 -12.75209618 10.16481529 -12.20826721 9.24501038 C-9.33461937 4.5686883 -5.92490553 -0.09556299 0 0 Z " fill="#000000" transform="translate(406,328.5)"/>
<path d="M0 0 C0.9590625 -0.01546875 0.9590625 -0.01546875 1.9375 -0.03125 C6.99196675 1.2706581 9.79618585 5.32558177 12.38638306 9.60124207 C12.76676727 10.25232437 13.14715149 10.90340668 13.5390625 11.57421875 C13.9465976 12.25748734 14.35413269 12.94075592 14.77401733 13.64472961 C15.63077689 15.08676384 16.4827163 16.5316716 17.33007812 17.97924805 C18.61531307 20.17098072 19.91960705 22.35046328 21.2265625 24.52929688 C27.64187245 35.32620675 33.38181338 45.34893823 30.34375 58.296875 C27.42970952 67.39069097 22.26788946 73.80878703 13.9609375 78.53515625 C5.94341144 82.48003461 -2.21962098 82.65003921 -10.625 79.9375 C-19.12663956 76.51522984 -24.97283224 70.6847701 -29 62.5 C-32.35146946 53.88193567 -31.64640098 46.21201734 -28.43554688 37.73291016 C-25.85156126 31.91366909 -22.58763692 26.50608848 -19.2824707 21.07250977 C-18.05463036 19.04953407 -16.84793459 17.01495035 -15.64257812 14.97851562 C-14.85799701 13.67374106 -14.07223148 12.36967781 -13.28515625 11.06640625 C-12.75209618 10.16481529 -12.75209618 10.16481529 -12.20826721 9.24501038 C-9.33461937 4.5686883 -5.92490553 -0.09556299 0 0 Z " fill="#000000" transform="translate(256,328.5)"/>
<path d="M0 0 C0.9590625 -0.01546875 0.9590625 -0.01546875 1.9375 -0.03125 C6.99196675 1.2706581 9.79618585 5.32558177 12.38638306 9.60124207 C12.76676727 10.25232437 13.14715149 10.90340668 13.5390625 11.57421875 C13.9465976 12.25748734 14.35413269 12.94075592 14.77401733 13.64472961 C15.63077689 15.08676384 16.4827163 16.5316716 17.33007812 17.97924805 C18.61531307 20.17098072 19.91960705 22.35046328 21.2265625 24.52929688 C27.64187245 35.32620675 33.38181338 45.34893823 30.34375 58.296875 C27.42970952 67.39069097 22.26788946 73.80878703 13.9609375 78.53515625 C5.94341144 82.48003461 -2.21962098 82.65003921 -10.625 79.9375 C-19.12663956 76.51522984 -24.97283224 70.6847701 -29 62.5 C-32.35146946 53.88193567 -31.64640098 46.21201734 -28.43554688 37.73291016 C-25.85156126 31.91366909 -22.58763692 26.50608848 -19.2824707 21.07250977 C-18.05463036 19.04953407 -16.84793459 17.01495035 -15.64257812 14.97851562 C-14.85799701 13.67374106 -14.07223148 12.36967781 -13.28515625 11.06640625 C-12.75209618 10.16481529 -12.75209618 10.16481529 -12.20826721 9.24501038 C-9.33461937 4.5686883 -5.92490553 -0.09556299 0 0 Z " fill="#000000" transform="translate(106,328.5)"/>
<path d="M0 0 C5.20602405 4.85972534 10.36439927 11.42232243 11.3671875 18.64453125 C11.09930412 22.15613289 10.31198961 24.48001732 8.5 27.5 C4.80021003 29.71987398 1.29761951 30.32999578 -3 30 C-6.5084862 27.98448665 -8.74503552 25.87898112 -10 22 C-10.82557348 15.93974636 -8.23152192 12.45481519 -5 7.625 C-4.52304687 6.88894531 -4.04609375 6.15289062 -3.5546875 5.39453125 C-2.3818978 3.58843511 -1.19256194 1.79310206 0 0 Z " fill="#D8E5F7" transform="translate(330,458)"/>
<path d="M0 0 C0.66 0 1.32 0 2 0 C3.66137019 2.3031269 5.15491746 4.57895782 6.625 7 C7.25535156 7.97259766 7.25535156 7.97259766 7.8984375 8.96484375 C10.90302515 13.89119688 11.55006039 17.24270122 11 23 C9.73515069 25.9091534 8.74549933 27.46015566 6.1875 29.3125 C2.13938379 30.58476509 -0.87987109 30.50914951 -4.75 28.75 C-7.22555146 26.82457109 -8.11131106 25.98922645 -9 23 C-9.58399713 16.27321825 -8.25625681 12.60282876 -4.625 7 C-4.2125 6.32066406 -3.8 5.64132812 -3.375 4.94140625 C-2.31936168 3.24897965 -1.16693322 1.61769804 0 0 Z " fill="#D9E7F8" transform="translate(180,458)"/>
<path d="M0 0 C4.08015781 1.3600526 5.15671836 4.01138635 7.1875 7.5625 C7.55552734 8.15869141 7.92355469 8.75488281 8.30273438 9.36914062 C11.04155447 14.10999248 11.52198367 17.53924778 11 23 C9.20636089 25.8100346 7.98119065 27.50940468 5 29 C-2.08958838 29.5811138 -2.08958838 29.5811138 -5.9375 27.125 C-9.03828225 23.93025465 -9.37281757 21.67133773 -9.31640625 17.21484375 C-8.75146045 13.26022318 -6.67176623 10.28047572 -4.5 7 C-4.07074219 6.32066406 -3.64148438 5.64132812 -3.19921875 4.94140625 C-2.14877765 3.28404363 -1.07658045 1.64050355 0 0 Z " fill="#DBE9FA" transform="translate(405,360)"/>
<path d="M0 0 C4.08015781 1.3600526 5.15671836 4.01138635 7.1875 7.5625 C7.55552734 8.15869141 7.92355469 8.75488281 8.30273438 9.36914062 C11.04155447 14.10999248 11.52198367 17.53924778 11 23 C9.20636089 25.8100346 7.98119065 27.50940468 5 29 C-2.08958838 29.5811138 -2.08958838 29.5811138 -5.9375 27.125 C-9.03828225 23.93025465 -9.37281757 21.67133773 -9.31640625 17.21484375 C-8.75146045 13.26022318 -6.67176623 10.28047572 -4.5 7 C-4.07074219 6.32066406 -3.64148438 5.64132812 -3.19921875 4.94140625 C-2.14877765 3.28404363 -1.07658045 1.64050355 0 0 Z " fill="#DBE9FA" transform="translate(255,360)"/>
<path d="M0 0 C4.08015781 1.3600526 5.15671836 4.01138635 7.1875 7.5625 C7.55552734 8.15869141 7.92355469 8.75488281 8.30273438 9.36914062 C11.04155447 14.10999248 11.52198367 17.53924778 11 23 C9.20636089 25.8100346 7.98119065 27.50940468 5 29 C-2.08958838 29.5811138 -2.08958838 29.5811138 -5.9375 27.125 C-9.03828225 23.93025465 -9.37281757 21.67133773 -9.31640625 17.21484375 C-8.75146045 13.26022318 -6.67176623 10.28047572 -4.5 7 C-4.07074219 6.32066406 -3.64148438 5.64132812 -3.19921875 4.94140625 C-2.14877765 3.28404363 -1.07658045 1.64050355 0 0 Z " fill="#DBE9FA" transform="translate(105,360)"/>
<path d="M0 0 C3.70219508 2.54525912 4.7681855 4.18864925 6 8.5 C6 12.48112565 5.5290797 13.96510436 3 17 C0.24116669 19.16232881 -1.51542103 19.93942763 -5 20.375 C-8.45001843 19.9437477 -10.26337663 19.12848485 -13 17 C-15.33067577 13.78144775 -15.46741137 10.89509474 -15 7 C-11.10629439 0.12112009 -7.67982291 -1.15396303 0 0 Z " fill="#010203" transform="translate(365,290)"/>
</svg>
