<?xml version="1.0" encoding="UTF-8"?>
<svg version="1.1" xmlns="http://www.w3.org/2000/svg" width="512" height="512">
<path d="M0 0 C0 0.66 0 1.32 0 2 C-1.69389192 3.01938721 -3.43353396 3.9628469 -5.1875 4.875 C-23.88717233 15.52587469 -37.02040815 33.46163774 -42.85424805 54.05151367 C-49.25265716 77.99230277 -45.48834566 100.27020422 -33.42578125 121.68359375 C-31.81466544 124.30110519 -29.97358834 126.64687544 -28 129 C-28 129.66 -28 130.32 -28 131 C-27.01 131.33 -26.02 131.66 -25 132 C-23.7625 133.5159375 -23.7625 133.5159375 -22.5 135.0625 C-11.07698793 148.71439247 9.61479337 157.76209498 27 160 C52.96412286 161.61785085 75.27551541 155.60076083 95.25 138.4375 C96.51604563 137.30942088 97.76510996 136.16210181 99 135 C100.19302734 133.89785156 100.19302734 133.89785156 101.41015625 132.7734375 C105.03007657 128.89690141 107.68980335 124.55866922 110.51367188 120.08789062 C111.62843299 118.36043637 112.80901449 116.67581146 114 115 C114.66 115 115.32 115 116 115 C113.46060321 147.40573521 100.20880731 174.6506504 75.4140625 196.109375 C70.81546683 199.71086417 65.92474123 202.8668313 61 206 C61.83402344 206.67804688 62.66804688 207.35609375 63.52734375 208.0546875 C83.20329624 224.23771118 96.07409613 243.21429236 99 269 C100.71177574 291.74551329 94.01928974 312.63113162 79.4296875 330.12890625 C64.92446818 346.93915772 44.92534469 357.55890287 22.77070618 359.53413391 C12.01928518 360.32236929 1.23562602 360.1478681 -9.53833008 360.14526367 C-12.01671906 360.14825962 -14.49510757 360.15166315 -16.97349548 360.15544128 C-22.9815903 360.16332844 -28.98966965 360.16649394 -34.9977682 360.16705366 C-39.88671939 360.16753098 -44.77566737 360.16959639 -49.66461754 360.17275429 C-63.56249484 360.18154701 -77.46036447 360.1861757 -91.35824458 360.18542381 C-92.10538764 360.18538386 -92.85253069 360.1853439 -93.62231445 360.18530273 C-94.37038212 360.18526185 -95.11844978 360.18522097 -95.88918617 360.18517885 C-108.00876764 360.18477252 -120.12831803 360.1943426 -132.24789051 360.2084411 C-144.72823849 360.2228434 -157.20857134 360.22970921 -169.68892783 360.22884732 C-176.6812663 360.22851674 -183.67357216 360.23120283 -190.66590309 360.24202538 C-197.24465992 360.25214364 -203.82335998 360.25175589 -210.4021244 360.24450874 C-212.80618897 360.24346836 -215.21025792 360.24579306 -217.61431503 360.2518692 C-243.27556048 360.31248868 -265.94748711 358.93288381 -285.62109375 340.3984375 C-299.15882959 326.74955441 -305.66742199 310.54210616 -306.375 291.4375 C-305.69658596 271.79298914 -297.7998101 254.06906905 -283.625 240.5625 C-268.81495597 227.81801302 -252.17278713 223.58613347 -233.0625 224 C-230.65773024 224.05092154 -228.25275249 224.09302088 -225.84765625 224.125 C-224.79586182 224.14820313 -223.74406738 224.17140625 -222.66040039 224.1953125 C-219.77061172 224.20261769 -219.77061172 224.20261769 -217 222 C-216.20715439 219.92825209 -216.20715439 219.92825209 -215.7890625 217.484375 C-215.59924805 216.57002686 -215.40943359 215.65567871 -215.21386719 214.71362305 C-215.01954102 213.73562744 -214.82521484 212.75763184 -214.625 211.75 C-210.43611466 192.25158657 -203.45892025 174.04999415 -190 159 C-189.31421875 158.18402344 -188.6284375 157.36804688 -187.921875 156.52734375 C-169.53787184 135.13444798 -142.2096122 121.2010999 -114 119 C-110.99758305 118.92826291 -108.00245677 118.93744882 -105 119 C-105.03480469 117.75347656 -105.06960937 116.50695312 -105.10546875 115.22265625 C-105.71732171 83.80074572 -95.79952235 54.50755388 -73.96777344 31.49902344 C-59.34496487 16.61953364 -39.98658296 4.58065062 -19.125 1.3125 C-18.34141113 1.18512451 -17.55782227 1.05774902 -16.75048828 0.92651367 C-11.10955742 0.05638871 -5.71302513 -0.2764367 0 0 Z " fill="#DAE1EA" transform="translate(351,34)"/>
<path d="M0 0 C0 0.66 0 1.32 0 2 C-1.69389192 3.01938721 -3.43353396 3.9628469 -5.1875 4.875 C-23.88717233 15.52587469 -37.02040815 33.46163774 -42.85424805 54.05151367 C-49.25265716 77.99230277 -45.48834566 100.27020422 -33.42578125 121.68359375 C-31.81466544 124.30110519 -29.97358834 126.64687544 -28 129 C-28 129.66 -28 130.32 -28 131 C-27.01 131.33 -26.02 131.66 -25 132 C-23.7625 133.5159375 -23.7625 133.5159375 -22.5 135.0625 C-11.07698793 148.71439247 9.61479337 157.76209498 27 160 C52.96412286 161.61785085 75.27551541 155.60076083 95.25 138.4375 C96.51604563 137.30942088 97.76510996 136.16210181 99 135 C100.19302734 133.89785156 100.19302734 133.89785156 101.41015625 132.7734375 C105.03007657 128.89690141 107.68980335 124.55866922 110.51367188 120.08789062 C111.62843299 118.36043637 112.80901449 116.67581146 114 115 C114.66 115 115.32 115 116 115 C113.5183968 146.66822 100.97367826 172.53528393 77.5625 194.25 C63.66796243 206.12033336 63.66796243 206.12033336 57.96875 205.86328125 C55.02882118 205.0083809 52.43624201 203.96882943 49.6875 202.625 C40.97635149 198.52981333 33.02723454 196.01956206 23.33984375 195.859375 C22.29892578 195.84003906 21.25800781 195.82070312 20.18554688 195.80078125 C18.01646453 195.76686896 15.84708024 195.74869333 13.67773438 195.74609375 C5.81274669 195.56080576 5.81274669 195.56080576 1.98828125 192.921875 C-0.3003611 189.5586049 -2.06894911 186.19502709 -3.75 182.5 C-16.68403006 155.55281937 -38.73837527 136.28407851 -66.75 126.125 C-76.64239927 122.70671916 -86.63614263 121.17542425 -97 120 C-98.52629064 119.81190526 -100.05234953 119.62191646 -101.578125 119.4296875 C-102.70734375 119.28789062 -103.8365625 119.14609375 -105 119 C-105.89128296 87.07886597 -97.64563778 57.2990556 -75.70703125 33.33203125 C-60.74485926 17.56336375 -40.89786054 4.72341028 -19.125 1.3125 C-18.34141113 1.18512451 -17.55782227 1.05774902 -16.75048828 0.92651367 C-11.10955742 0.05638871 -5.71302513 -0.2764367 0 0 Z " fill="#FDDA39" transform="translate(351,34)"/>
<path d="M0 0 C29.8537654 7.08282239 54.26458934 24.31222733 71 50 C74.51877191 55.82532205 78.03839579 61.84462192 80.02734375 68.37109375 C80.34832031 69.23863281 80.66929687 70.10617188 81 71 C83.96443373 71.98814458 86.0236398 72.15137633 89.12109375 72.2109375 C110.92207274 72.77318515 110.92207274 72.77318515 120 76 C121.05960937 76.36222656 122.11921875 76.72445312 123.2109375 77.09765625 C145.60860954 85.21615975 161.16998877 99.72538834 171.49609375 121.3359375 C180.29388096 142.77054635 180.38528747 166.26753798 171.53344727 187.63012695 C162.13284568 208.89064243 144.34939821 224.42140552 123 233 C105.19488179 239.19399749 86.57329547 238.13517682 68 238 C68 237.67 68 237.34 68 237 C69.01835937 236.91363281 70.03671875 236.82726562 71.0859375 236.73828125 C92.94838573 234.66385679 113.86976196 228.19439536 131 214 C131.86109375 213.28972656 132.7221875 212.57945312 133.609375 211.84765625 C148.19544115 199.27269922 157.43012232 183.24983844 160 164 C161.43167953 141.93805321 155.76577856 122.0580569 142.17578125 104.45703125 C131.88062315 92.83108072 116.61484324 84.09465979 100.95019531 82.73535156 C96.77674423 82.59198372 92.60923629 82.56310235 88.43359375 82.56054688 C80.87480238 82.42163373 80.87480238 82.42163373 77.07421875 80.58984375 C73.98792895 76.73634066 72.16251311 72.5018797 70.1875 68 C64.56953427 55.72444127 57.71101602 45.34329053 49 35 C48.33613281 34.18917969 47.67226563 33.37835938 46.98828125 32.54296875 C34.42121104 17.79234105 17.98257199 7.85050362 0 1 C0 0.67 0 0.34 0 0 Z " fill="#C8CBCD" transform="translate(272,156)"/>
<path d="M0 0 C28.5800643 -1.73407132 57.61086694 10.35587795 78.76977539 29.09399414 C91.57511872 40.76450723 100.58391988 53.87414074 108.4375 69.20166016 C109.77894013 71.80806711 110.91234512 73.91234512 113 76 C114.86669883 76.32040545 114.86669883 76.32040545 117.0078125 76.30859375 C117.8220166 76.33171631 118.6362207 76.35483887 119.47509766 76.37866211 C120.34956543 76.39807861 121.2240332 76.41749512 122.125 76.4375 C128.73811304 76.67109279 135.12967057 77.1502869 141.625 78.4375 C142.90890625 78.69144531 144.1928125 78.94539063 145.515625 79.20703125 C149 80 149 80 151.859375 80.88671875 C155.60484824 81.98593372 157.84156411 82.52440237 161.4765625 80.87890625 C164.16493041 79.07695067 166.56518826 77.13188026 169 75 C169.85980469 74.26394531 170.71960938 73.52789062 171.60546875 72.76953125 C174.11871881 70.56045668 176.56280897 68.29236644 179 66 C179.60457031 65.47148437 180.20914063 64.94296875 180.83203125 64.3984375 C191.96684579 54.22846637 200.31295088 38.42638368 204.9375 24.3125 C206.74861925 18.98150987 209.65905441 14.92981486 213.09765625 10.5078125 C215.0662295 8.02288215 215.0662295 8.02288215 216.62109375 5.1796875 C217.07613281 4.46039063 217.53117188 3.74109375 218 3 C218.66 3 219.32 3 220 3 C217.5183968 34.66822 204.97367826 60.53528393 181.5625 82.25 C167.66796243 94.12033336 167.66796243 94.12033336 161.96875 93.86328125 C159.02882118 93.0083809 156.43624201 91.96882943 153.6875 90.625 C144.97635149 86.52981333 137.02723454 84.01956206 127.33984375 83.859375 C126.29892578 83.84003906 125.25800781 83.82070312 124.18554688 83.80078125 C122.01646453 83.76686896 119.84708024 83.74869333 117.67773438 83.74609375 C109.81274669 83.56080576 109.81274669 83.56080576 105.98828125 80.921875 C103.6996389 77.5586049 101.93105089 74.19502709 100.25 70.5 C86.95353242 42.79770521 64.08446658 23.47029715 35.2409668 13.32714844 C23.84180943 9.67506518 11.84627156 8.40383403 0 7 C0 4.69 0 2.38 0 0 Z " fill="#FEB434" transform="translate(247,146)"/>
<path d="M0 0 C3.00101519 1.5005076 3.35001564 4.06300318 4.609375 7.0234375 C6.32430154 10.69415105 8.30040332 14.17336245 10.3125 17.6875 C24.47110955 42.65622112 24.47110955 42.65622112 22.51171875 52.4375 C20.33204503 59.84108448 16.64774554 64.03964096 10 68 C3.87803674 70.04065442 -3.41951428 69.87552194 -9.5 67.8125 C-16.00907146 63.09342319 -20.1066585 57.95622663 -21.875 50.125 C-22.52430333 41.87055873 -19.33210216 35.01744371 -15.25 28.0625 C-14.80188965 27.27689697 -14.3537793 26.49129395 -13.89208984 25.68188477 C-11.0951963 20.8001902 -8.18734594 15.98962761 -5.25 11.19140625 C-3.19856204 7.59497907 -1.57120623 3.8263493 0 0 Z " fill="#97ABF6" transform="translate(385,409)"/>
<path d="M0 0 C3.00101519 1.5005076 3.35001564 4.06300318 4.609375 7.0234375 C6.32430154 10.69415105 8.30040332 14.17336245 10.3125 17.6875 C24.47110955 42.65622112 24.47110955 42.65622112 22.51171875 52.4375 C20.33204503 59.84108448 16.64774554 64.03964096 10 68 C3.87803674 70.04065442 -3.41951428 69.87552194 -9.5 67.8125 C-16.00907146 63.09342319 -20.1066585 57.95622663 -21.875 50.125 C-22.52430333 41.87055873 -19.33210216 35.01744371 -15.25 28.0625 C-14.80188965 27.27689697 -14.3537793 26.49129395 -13.89208984 25.68188477 C-11.0951963 20.8001902 -8.18734594 15.98962761 -5.25 11.19140625 C-3.19856204 7.59497907 -1.57120623 3.8263493 0 0 Z " fill="#97ABF6" transform="translate(247,409)"/>
<path d="M0 0 C3.00101519 1.5005076 3.35001564 4.06300318 4.609375 7.0234375 C6.32430154 10.69415105 8.30040332 14.17336245 10.3125 17.6875 C24.47110955 42.65622112 24.47110955 42.65622112 22.51171875 52.4375 C20.33204503 59.84108448 16.64774554 64.03964096 10 68 C3.87803674 70.04065442 -3.41951428 69.87552194 -9.5 67.8125 C-16.00907146 63.09342319 -20.1066585 57.95622663 -21.875 50.125 C-22.52430333 41.87055873 -19.33210216 35.01744371 -15.25 28.0625 C-14.80188965 27.27689697 -14.3537793 26.49129395 -13.89208984 25.68188477 C-11.0951963 20.8001902 -8.18734594 15.98962761 -5.25 11.19140625 C-3.19856204 7.59497907 -1.57120623 3.8263493 0 0 Z " fill="#97ABF6" transform="translate(109,409)"/>
<path d="M0 0 C0 0.66 0 1.32 0 2 C-1.69389192 3.01938721 -3.43353396 3.9628469 -5.1875 4.875 C-23.88717233 15.52587469 -37.02040815 33.46163774 -42.85424805 54.05151367 C-49.24523568 77.96453397 -45.51726057 100.2383883 -33.42578125 121.609375 C-31.71157543 124.48360504 -29.92393427 127.26209354 -28 130 C-37.78089623 126.29851404 -45.00922123 111.05558628 -49.13916016 101.99658203 C-56.81103677 84.20287615 -58.4726667 62.00091647 -52.37890625 43.46484375 C-51.92386719 42.32144531 -51.46882813 41.17804688 -51 40 C-50.73687012 39.32855957 -50.47374023 38.65711914 -50.20263672 37.96533203 C-45.13235447 25.33697199 -36.66926796 8.61901235 -23.4375 2.890625 C-22.2309375 2.57351562 -22.2309375 2.57351562 -21 2.25 C-20.13375 2.02183594 -19.2675 1.79367188 -18.375 1.55859375 C-12.15445195 0.09553722 -6.36753813 -0.11325661 0 0 Z " fill="#FEB433" transform="translate(351,34)"/>
<path d="M0 0 C2.5 1.5625 2.5 1.5625 4 4 C4.00695015 10.7833491 4.00695015 10.7833491 1.72802734 13.53686523 C0.02492357 14.95094334 -1.72662361 16.2009396 -3.5625 17.4375 C-4.85081001 18.37935182 -6.13468993 19.32729332 -7.4140625 20.28125 C-8.03442383 20.74144531 -8.65478516 21.20164063 -9.29394531 21.67578125 C-19.98745497 29.97595245 -26.96232359 43.30558408 -30.375 56.1875 C-31.34528084 59.46844964 -32.00493269 61.00589183 -34.25 63.6875 C-37.98252365 65.46893174 -40.07039076 65.16432866 -44 64 C-45.9375 62.4375 -45.9375 62.4375 -47 60 C-47.34977362 54.23180343 -46.63698159 49.71055189 -44.5 44.3125 C-44.23227783 43.62333496 -43.96455566 42.93416992 -43.6887207 42.22412109 C-39.13519003 30.96292442 -32.46161047 21.6850685 -24 13 C-23.3296875 12.27941406 -22.659375 11.55882812 -21.96875 10.81640625 C-8.728468 -3.08063577 -8.728468 -3.08063577 0 0 Z " fill="#FEFEFE" transform="translate(202,181)"/>
<path d="M0 0 C4.8535982 6.05163826 8.28850368 13.21326387 12 20 C12.53657227 20.96679688 12.53657227 20.96679688 13.08398438 21.953125 C17.45448609 29.87830144 21.36383725 37.19172447 19.51171875 46.4375 C17.33204503 53.84108448 13.64774554 58.03964096 7 62 C0.8442079 64.0519307 -6.50240511 63.92016654 -12.5625 61.6875 C-13.366875 61.130625 -14.17125 60.57375 -15 60 C-15.78375 59.484375 -16.5675 58.96875 -17.375 58.4375 C-17.91125 57.963125 -18.4475 57.48875 -19 57 C-19 56.34 -19 55.68 -19 55 C-17.53240234 55.08701172 -17.53240234 55.08701172 -16.03515625 55.17578125 C-8.00451977 55.45215517 -1.36692806 55.52627305 5 50 C10.32062984 44.12674436 11.36592388 38.95020882 11.2734375 31.24609375 C10.51240737 22.21157889 5.84969571 14.55735203 1.390625 6.84765625 C0 4 0 4 0 0 Z " fill="#768DBD" transform="translate(388,415)"/>
<path d="M0 0 C4.8535982 6.05163826 8.28850368 13.21326387 12 20 C12.53657227 20.96679688 12.53657227 20.96679688 13.08398438 21.953125 C17.45448609 29.87830144 21.36383725 37.19172447 19.51171875 46.4375 C17.33204503 53.84108448 13.64774554 58.03964096 7 62 C0.8442079 64.0519307 -6.50240511 63.92016654 -12.5625 61.6875 C-13.366875 61.130625 -14.17125 60.57375 -15 60 C-15.78375 59.484375 -16.5675 58.96875 -17.375 58.4375 C-17.91125 57.963125 -18.4475 57.48875 -19 57 C-19 56.34 -19 55.68 -19 55 C-17.53240234 55.08701172 -17.53240234 55.08701172 -16.03515625 55.17578125 C-8.00451977 55.45215517 -1.36692806 55.52627305 5 50 C10.32062984 44.12674436 11.36592388 38.95020882 11.2734375 31.24609375 C10.51240737 22.21157889 5.84969571 14.55735203 1.390625 6.84765625 C0 4 0 4 0 0 Z " fill="#768DBD" transform="translate(250,415)"/>
<path d="M0 0 C4.8535982 6.05163826 8.28850368 13.21326387 12 20 C12.53657227 20.96679688 12.53657227 20.96679688 13.08398438 21.953125 C17.45448609 29.87830144 21.36383725 37.19172447 19.51171875 46.4375 C17.33204503 53.84108448 13.64774554 58.03964096 7 62 C0.8442079 64.0519307 -6.50240511 63.92016654 -12.5625 61.6875 C-13.366875 61.130625 -14.17125 60.57375 -15 60 C-15.78375 59.484375 -16.5675 58.96875 -17.375 58.4375 C-17.91125 57.963125 -18.4475 57.48875 -19 57 C-19 56.34 -19 55.68 -19 55 C-17.53240234 55.08701172 -17.53240234 55.08701172 -16.03515625 55.17578125 C-8.00451977 55.45215517 -1.36692806 55.52627305 5 50 C10.32062984 44.12674436 11.36592388 38.95020882 11.2734375 31.24609375 C10.51240737 22.21157889 5.84969571 14.55735203 1.390625 6.84765625 C0 4 0 4 0 0 Z " fill="#768DBD" transform="translate(112,415)"/>
<path d="M0 0 C4.0743356 0.84881992 5.54405875 2.30225596 8 5.625 C8.71588388 9.44304737 8.29055839 11.09037255 6.4375 14.5 C4 16.625 4 16.625 0.5 17.125 C-4.76767677 16.37247475 -4.76767677 16.37247475 -7 13.625 C-7.96479775 10.89041988 -8.32588589 8.51302327 -8 5.625 C-5.60540961 2.14195943 -4.14822958 0.8642145 0 0 Z " fill="#FDFDFE" transform="translate(221,168.375)"/>
</svg>
