<?xml version="1.0" encoding="UTF-8"?>
<svg version="1.1" xmlns="http://www.w3.org/2000/svg" width="512" height="512">
<path d="M0 0 C6.81531336 2.36061133 10.6853763 12.65908096 13.97265625 18.4765625 C14.96012357 20.20663085 15.94760082 21.93669361 16.93565369 23.66642761 C17.96322103 25.46690879 18.98830771 27.26878646 20.01318359 29.07080078 C23.40900194 35.03475783 26.85049357 40.97242738 30.28515625 46.9140625 C33.90153754 53.17796783 37.5158338 59.44281939 41.09765625 65.7265625 C50.30060625 60.0137143 59.19565575 53.89271368 68.09765625 47.7265625 C72.03482761 45.00290948 75.97580613 42.28528708 79.9296875 39.5859375 C82.92589647 37.54002674 85.89562814 35.45980683 88.859375 33.3671875 C90.45925347 32.25726174 92.0595062 31.14787525 93.66015625 30.0390625 C94.3979834 29.50933838 95.13581055 28.97961426 95.89599609 28.43383789 C100.43014429 25.32584407 103.41359827 23.97248222 109.09765625 24.7265625 C112.28269195 26.48671381 112.93062597 27.22547166 114.09765625 30.7265625 C114.3264554 32.67495263 114.51065428 34.628702 114.67016602 36.58398438 C114.82020836 38.3923175 114.82020836 38.3923175 114.97328186 40.23718262 C115.07748947 41.54336548 115.18169708 42.84954834 115.2890625 44.1953125 C115.39953321 45.55474456 115.5102084 46.91416002 115.62107849 48.27355957 C115.85298774 51.12814185 116.08210224 53.98293171 116.30932617 56.83789062 C116.59851666 60.46811982 116.89499755 64.09770879 117.19371128 67.72716522 C117.42424036 70.53933656 117.65054937 73.35183615 117.87568474 76.16444397 C118.03498436 78.14461916 118.19793293 80.12449974 118.36097717 82.10437012 C118.92976974 89.33065807 119.23998276 96.47800597 119.09765625 103.7265625 C119.9270874 103.56510742 120.75651855 103.40365234 121.61108398 103.23730469 C134.18099855 100.833326 146.79386915 98.69439419 159.41870117 96.60009766 C161.92984742 96.18160059 164.44026177 95.75868975 166.94995117 95.33154297 C170.61346082 94.70832086 174.27901817 94.09878492 177.9453125 93.4921875 C179.06204849 93.29957336 180.17878448 93.10695923 181.32936096 92.9085083 C186.84997126 92.0107688 191.65067238 91.24230141 197.09765625 92.7265625 C199.0786363 94.27402026 199.97658253 95.165284 200.51147461 97.6449585 C200.47847283 103.85368062 198.99218364 108.77495468 196.66015625 114.4921875 C196.30179687 115.4062738 195.9434375 116.32036011 195.57421875 117.262146 C194.42958264 120.17281155 193.26432289 123.07466689 192.09765625 125.9765625 C191.34492497 127.87703872 190.59361178 129.77807725 189.84375 131.6796875 C188.72401554 134.51734571 187.60277168 137.35432939 186.47509766 140.18884277 C182.57527356 149.993909 178.82497697 159.85485433 175.09765625 169.7265625 C187.59245287 173.64009648 200.08825913 177.46771608 212.703125 180.9765625 C215.76936297 181.83646003 218.83532 182.69735448 221.90127563 183.55825806 C223.94666469 184.1281819 225.99386155 184.69165761 228.04281616 185.24862671 C230.95899851 186.04180353 233.86833892 186.85673352 236.77734375 187.67578125 C237.65863449 187.90898071 238.53992523 188.14218018 239.44792175 188.38244629 C244.42329894 189.8085268 247.40949252 191.00084127 250.09765625 195.7265625 C250.34749026 199.44339133 249.89382312 201.67241534 247.62841797 204.671875 C245.67175324 206.78215575 243.63576453 208.75971493 241.53515625 210.7265625 C240.84357422 211.39945313 240.15199219 212.07234375 239.43945312 212.765625 C236.04645171 216.04162637 232.57527373 219.20443498 229.0078125 222.2890625 C225.18763603 225.59928787 221.63216113 229.11601448 218.09765625 232.7265625 C213.81516521 237.05916114 209.50394833 241.25635948 204.8515625 245.1953125 C201.77773441 247.87892188 198.94134166 250.80289844 196.09765625 253.7265625 C199.61268793 257.2865763 203.21354463 260.72979018 206.91015625 264.1015625 C207.4407666 264.58633057 207.97137695 265.07109863 208.51806641 265.57055664 C213.69178853 270.28601684 218.94582199 274.89728729 224.27734375 279.43359375 C232.03489548 286.04088037 239.6759647 292.74144104 247.09765625 299.7265625 C247.84660156 300.41878906 248.59554688 301.11101562 249.3671875 301.82421875 C251.98738578 304.70466246 252.16493484 306.89168275 252.09765625 310.7265625 C248.69335142 314.89252314 245.57881234 316.64638866 240.51904297 318.3137207 C239.87939606 318.52902939 239.23974915 318.74433807 238.58071899 318.96617126 C236.48411464 319.66779529 234.38119661 320.34779664 232.27734375 321.02734375 C230.81154829 321.51225899 229.34615028 321.99837716 227.88113403 322.48564148 C224.81934923 323.50063741 221.75458414 324.50580856 218.68701172 325.50317383 C214.75381753 326.78209962 210.82649227 328.07798926 206.90098381 329.38029194 C203.15338444 330.62273566 199.40296298 331.85655278 195.65234375 333.08984375 C194.93710415 333.32587122 194.22186455 333.56189869 193.48495102 333.80507851 C191.46398648 334.47029939 189.44111477 335.12932932 187.41748047 335.78637695 C186.26674042 336.16212357 185.11600037 336.53787018 183.9303894 336.92500305 C181.09765625 337.7265625 181.09765625 337.7265625 178.09765625 337.7265625 C179.66243377 341.47794965 181.22967801 345.22829676 182.79849243 348.97799683 C183.37285504 350.35184939 183.94656547 351.72597479 184.5196228 353.10037231 C188.03647196 361.5341031 191.61248194 369.93657725 195.30078125 378.296875 C196.33368293 380.65256293 197.36564154 383.00866213 198.39743042 385.36483765 C199.06884349 386.88916888 199.74548946 388.41120665 200.42752075 389.93081665 C201.38933377 392.07462884 202.33286509 394.2257079 203.2734375 396.37890625 C203.56031433 397.00487701 203.84719116 397.63084778 204.14276123 398.27578735 C206.18818932 403.02688269 206.45786705 406.65244892 206.09765625 411.7265625 C204.72265625 414.2265625 204.72265625 414.2265625 202.09765625 415.7265625 C193.68160159 416.64699041 185.03126925 415.02668707 176.68359375 413.9765625 C175.21821422 413.79667514 173.75276898 413.6173223 172.28726196 413.43847656 C168.46281071 412.97031726 164.63928538 412.4949854 160.81591797 412.01806641 C156.90125758 411.53107906 152.98575032 411.05100174 149.0703125 410.5703125 C141.41192331 409.62909126 133.75450065 408.68027801 126.09765625 407.7265625 C126.06229263 408.5629274 126.02692902 409.3992923 125.99049377 410.26100159 C125.65581733 418.16154445 125.31778045 426.06193495 124.97601414 433.96217442 C124.80044674 438.02329102 124.62615704 442.0844539 124.45483398 446.14575195 C124.28930127 450.06865207 124.12035136 453.99139174 123.94907951 457.91404533 C123.88448526 459.40702081 123.8211008 460.90004916 123.75897408 462.39312935 C123.67142308 464.49214013 123.57948437 466.59091786 123.48657227 468.68969727 C123.4354982 469.88216568 123.38442413 471.07463409 123.33180237 472.30323792 C122.67846372 481.8553513 122.67846372 481.8553513 120.47265625 485.1640625 C117.09763871 487.38446878 115.10795045 487.13569352 111.09765625 486.7265625 C108.14430792 485.44810956 105.53092919 483.74329106 102.84765625 481.9765625 C102.06898193 481.48212646 101.29030762 480.98769043 100.48803711 480.47827148 C98.84382591 479.43261302 97.20382958 478.38030081 95.56787109 477.32177734 C93.17840844 475.77871063 90.77631172 474.25824091 88.3671875 472.74609375 C82.74109152 469.21402602 77.13312525 465.6536158 71.52490234 462.09326172 C68.96660321 460.46979033 66.40714976 458.84815 63.84765625 457.2265625 C63.07365479 456.73422119 62.29965332 456.24187988 61.50219727 455.73461914 C57.09586793 452.94338176 52.64718288 450.27814886 48.09765625 447.7265625 C47.8344458 448.42281738 47.57123535 449.11907227 47.30004883 449.83642578 C45.9874541 452.99145044 44.46499047 455.95208478 42.859375 458.96875 C42.54206924 459.56575714 42.22476349 460.16276428 41.89784241 460.77786255 C40.86346736 462.72081557 39.82471166 464.66137678 38.78515625 466.6015625 C38.43094604 467.26430176 38.07673584 467.92704102 37.71179199 468.60986328 C32.85004986 477.7014689 27.91474924 486.74744625 22.84765625 495.7265625 C22.32389404 496.65581543 21.80013184 497.58506836 21.26049805 498.54248047 C14.6388798 510.18533895 14.6388798 510.18533895 12.09765625 512.7265625 C4.97716116 513.43861201 4.97716116 513.43861201 1.73828125 510.81640625 C-1.84944772 506.91622419 -4.56856919 502.37077841 -7.40234375 497.9140625 C-8.71518206 495.87177597 -10.02904753 493.83014949 -11.34375 491.7890625 C-11.69502457 491.24223312 -12.04629913 490.69540375 -12.40821838 490.13200378 C-15.41993752 485.45130602 -18.4822467 480.80506991 -21.5546875 476.1640625 C-22.52217782 474.70030472 -23.48962581 473.23651896 -24.45703125 471.77270508 C-25.89672318 469.59458089 -27.33766499 467.41734119 -28.78271484 465.24276733 C-30.13795444 463.20232483 -31.48749905 461.15822236 -32.8359375 459.11328125 C-33.24770737 458.49658569 -33.65947723 457.87989014 -34.08372498 457.24450684 C-36.90234375 452.95415647 -36.90234375 452.95415647 -36.90234375 450.7265625 C-46.49197282 457.5645886 -55.98872053 464.5025003 -65.33984375 471.6640625 C-67.98014535 473.68048816 -70.62100942 475.69617391 -73.26220703 477.71142578 C-75.03245393 479.06260184 -76.80164881 480.41515724 -78.56982422 481.76904297 C-81.13096006 483.72410488 -83.70258927 485.66448677 -86.27734375 487.6015625 C-87.04361084 488.1905835 -87.80987793 488.77960449 -88.59936523 489.38647461 C-92.94825827 492.63572518 -96.51349659 494.79374836 -101.90234375 495.7265625 C-105.51178842 494.20257475 -106.7131764 493.01031352 -108.90234375 489.7265625 C-109.3036429 487.68062993 -109.61026774 485.61559128 -109.86376953 483.54614258 C-110.02378448 482.27084183 -110.18379944 480.99554108 -110.34866333 479.68159485 C-110.51530595 478.28646501 -110.68162892 476.89129695 -110.84765625 475.49609375 C-111.02359754 474.06216133 -111.20010958 472.62829884 -111.37716675 471.19450378 C-111.74687206 468.18649021 -112.11108545 465.17787871 -112.47119141 462.16870117 C-112.9309147 458.32902901 -113.40188462 454.49084467 -113.87675667 450.65301991 C-114.24257029 447.68933794 -114.6034449 444.72507099 -114.96276474 441.76059532 C-115.13455231 440.34639066 -115.30757804 438.9323358 -115.48190689 437.51844215 C-116.33677035 430.55708854 -117.14241308 423.74496131 -116.90234375 416.7265625 C-117.73426743 416.90195557 -118.5661911 417.07734863 -119.42332458 417.25805664 C-127.29179289 418.91527559 -135.16202789 420.56377418 -143.03433132 422.2026825 C-147.08078609 423.04541578 -151.12649763 423.89141796 -155.1706543 424.74511719 C-159.0788404 425.56998447 -162.98878814 426.38596856 -166.9000721 427.1960144 C-168.38652677 427.50545355 -169.87233765 427.8180033 -171.35745049 428.13381958 C-191.150399 432.33745699 -191.150399 432.33745699 -196.46484375 429.2265625 C-199.08838859 424.66387583 -198.35032792 420.41541295 -197.04959106 415.51177979 C-195.80344946 411.58306172 -194.47997566 407.68900619 -193.125 403.796875 C-192.63312743 402.35613287 -192.14229411 400.91503555 -191.65245056 399.47360229 C-190.36656013 395.69938227 -189.06591266 391.93041041 -187.76226807 388.16229248 C-186.43535113 384.31722947 -185.12399757 380.46686615 -183.81054688 376.6171875 C-181.89276867 371.00677469 -179.97179314 365.39747564 -178.03540039 359.79345703 C-177.45248985 358.1042363 -177.45248985 358.1042363 -176.85780334 356.38088989 C-175.90234375 353.7265625 -175.90234375 353.7265625 -174.90234375 351.7265625 C-175.53076675 351.62088959 -176.15918976 351.51521667 -176.80665588 351.40634155 C-184.67461626 350.03469884 -192.41747203 348.26362714 -200.1796875 346.390625 C-200.8375934 346.23196331 -201.49549931 346.07330162 -202.17334175 345.909832 C-205.64135087 345.07274464 -209.10828851 344.23136924 -212.57446289 343.38671875 C-216.14131034 342.51859552 -219.71189934 341.66699183 -223.28351498 340.81873512 C-226.04737765 340.15899526 -228.80806796 339.4866714 -231.56805611 338.81092453 C-233.52011397 338.3365272 -235.47549067 337.87585374 -237.43089294 337.41543579 C-238.61635208 337.12188202 -239.80181122 336.82832825 -241.02319336 336.52587891 C-242.58558998 336.14854111 -242.58558998 336.14854111 -244.17955017 335.76358032 C-247.30827989 334.57195548 -248.83721518 333.3467013 -250.90234375 330.7265625 C-251.50138611 327.40460032 -251.77321902 325.85112174 -250.90234375 322.7265625 C-249.42400216 320.73080136 -247.82471256 319.2134329 -245.94995117 317.58666992 C-244.08847459 315.89564929 -242.51533898 314.18463967 -240.90625 312.2578125 C-235.39696217 305.879332 -229.29372659 300.06174849 -223.29980469 294.14453125 C-217.27460084 288.18951678 -211.36172593 282.21391995 -205.90234375 275.7265625 C-204.75717531 274.39265806 -203.61137026 273.05929982 -202.46484375 271.7265625 C-201.61921875 270.7365625 -200.77359375 269.7465625 -199.90234375 268.7265625 C-200.54296753 268.20654663 -200.54296753 268.20654663 -201.1965332 267.67602539 C-210.63323486 260.01495865 -220.0560054 252.33762879 -229.45703125 244.6328125 C-230.32585937 243.92125 -231.1946875 243.2096875 -232.08984375 242.4765625 C-232.981875 241.744375 -233.87390625 241.0121875 -234.79296875 240.2578125 C-237.18495435 238.30218113 -239.59607352 236.37162904 -242.01171875 234.4453125 C-243.08450073 233.58534668 -243.08450073 233.58534668 -244.17895508 232.70800781 C-245.58932009 231.57793114 -247.00307984 230.4520745 -248.4206543 229.33105469 C-252.03775724 226.42522751 -255.34062922 223.65452478 -257.90234375 219.7265625 C-257.84471816 216.38427834 -257.7910899 213.91645395 -255.74745178 211.18034363 C-253.17268264 209.1516544 -250.51497615 208.23225904 -247.44311523 207.09106445 C-246.79240051 206.84678711 -246.14168579 206.60250977 -245.47125244 206.35083008 C-243.32488443 205.547457 -241.17433585 204.75599911 -239.0234375 203.96484375 C-237.53012656 203.40925205 -236.037052 202.85302464 -234.54420471 202.29618835 C-231.41812417 201.13208507 -228.29008666 199.97346528 -225.16040039 198.8190918 C-221.14339525 197.33729765 -217.13022788 195.8454327 -213.1183157 194.34991169 C-210.0370744 193.20190273 -206.95451731 192.05746531 -203.87147713 190.9142971 C-202.39079994 190.36516192 -200.91038505 189.81531898 -199.43023491 189.26476479 C-197.36544637 188.49775489 -195.29908917 187.73514443 -193.23217773 186.97387695 C-192.05541977 186.53880325 -190.8786618 186.10372955 -189.66624451 185.6554718 C-186.90234375 184.7265625 -186.90234375 184.7265625 -184.90234375 184.7265625 C-185.28865967 183.93411133 -185.67497559 183.14166016 -186.07299805 182.32519531 C-193.78242124 166.49429944 -201.40781149 150.63257366 -208.77612305 134.63964844 C-209.27668213 133.55329102 -209.77724121 132.46693359 -210.29296875 131.34765625 C-210.72641602 130.4033374 -211.15986328 129.45901855 -211.60644531 128.48608398 C-212.54930283 126.47833747 -213.53215065 124.48922362 -214.53833008 122.51245117 C-216.51967904 118.46570463 -216.4066145 116.1929606 -215.90234375 111.7265625 C-213.87118074 109.05845707 -212.72677845 107.86657912 -209.38316345 107.29872131 C-208.44324051 107.33557541 -207.50331757 107.3724295 -206.53491211 107.41040039 C-205.46989471 107.44690704 -204.40487732 107.4834137 -203.30758667 107.52102661 C-197.45778896 107.87411254 -191.62033177 108.28281306 -185.78125 108.78515625 C-184.47832504 108.8937648 -183.17540009 109.00237335 -181.83299255 109.11427307 C-179.1007104 109.34236534 -176.36873856 109.57378278 -173.63696289 109.80786133 C-170.14519897 110.10692421 -166.65288897 110.39893565 -163.16034031 110.68867397 C-159.80454526 110.96771666 -156.44916137 111.25153592 -153.09375 111.53515625 C-151.84477432 111.63936386 -150.59579865 111.74357147 -149.30897522 111.85093689 C-147.56577248 112.00097923 -147.56577248 112.00097923 -145.78735352 112.15405273 C-144.76875748 112.24065659 -143.75016144 112.32726044 -142.70069885 112.41648865 C-140.05448376 112.70970451 -137.50246133 113.16046684 -134.90234375 113.7265625 C-134.9112262 112.78331116 -134.92010864 111.84005981 -134.92926025 110.8682251 C-135.01033066 101.98098789 -135.07030162 93.09382566 -135.10959244 84.20630264 C-135.1304714 79.63705286 -135.15879446 75.06810148 -135.20410156 70.49902344 C-135.24754863 66.08995377 -135.27147853 61.6811712 -135.28185272 57.27190399 C-135.28924618 55.58934763 -135.30368392 53.90680707 -135.32526398 52.22437286 C-135.35428378 49.86831149 -135.3583005 47.51343777 -135.35644531 45.15722656 C-135.37082642 44.46095154 -135.38520752 43.76467651 -135.40002441 43.04730225 C-135.3717475 39.73051386 -135.10031551 37.99162658 -133.0927124 35.3036499 C-130.49127154 33.43058639 -128.482281 33.003223 -125.28515625 33.17871094 C-119.98999514 34.39616396 -115.48789267 37.54447452 -110.90234375 40.3515625 C-109.75194361 41.03805554 -108.60047464 41.72276033 -107.44799805 42.40576172 C-105.08051138 43.81166658 -102.71857388 45.22624002 -100.36083984 46.6484375 C-95.17751596 49.77074342 -89.9446694 52.80803211 -84.71484375 55.8515625 C-83.26561523 56.69895996 -83.26561523 56.69895996 -81.78710938 57.56347656 C-71.22410377 63.73286376 -60.56961773 69.73976568 -49.90234375 75.7265625 C-49.68964844 74.93765625 -49.47695312 74.14875 -49.2578125 73.3359375 C-47.45053081 68.52346405 -44.87609888 64.36163433 -42.21484375 59.9765625 C-41.03644578 58.0099017 -39.85941987 56.04241829 -38.68359375 54.07421875 C-38.06613281 53.04184082 -37.44867188 52.00946289 -36.8125 50.94580078 C-33.56074525 45.46553006 -30.38994991 39.93897355 -27.21484375 34.4140625 C-25.95465288 32.22773442 -24.694241 30.04153371 -23.43359375 27.85546875 C-21.7304265 24.90107922 -20.02825993 21.94617191 -18.33203125 18.98779297 C-16.96535052 16.60569403 -15.59119394 14.22808324 -14.21484375 11.8515625 C-13.82917236 11.17440186 -13.44350098 10.49724121 -13.04614258 9.79956055 C-9.50129229 3.70989255 -7.34468304 0.37964564 0 0 Z " fill="#FFA600" transform="translate(258.90234375,-0.7265625)"/>
<path d="M0 0 C0.78407227 0.23074219 1.56814453 0.46148437 2.37597656 0.69921875 C20.1937194 6.08084623 37.4996478 14.21994226 52 26 C52.88300781 26.68320313 53.76601563 27.36640625 54.67578125 28.0703125 C87.00272063 53.58436084 107.99797943 91.09651106 113 132 C113.11166561 134.60130111 113.18685063 137.17620234 113.203125 139.77734375 C113.20882507 140.50635391 113.21452515 141.23536407 113.22039795 141.98646545 C113.22979419 143.52522356 113.23636038 145.06400129 113.24023438 146.6027832 C113.24984434 148.9002845 113.28087801 151.19685217 113.3125 153.49414062 C113.38557469 163.66842337 112.26882572 173.08811972 110 183 C109.80116211 183.87889893 109.60232422 184.75779785 109.39746094 185.66333008 C108.89122735 187.76980385 108.3405503 189.85323483 107.75 191.9375 C107.54020508 192.6785498 107.33041016 193.41959961 107.11425781 194.18310547 C101.51685661 213.2490009 92.46672213 230.53202995 80 246 C79.59104492 246.51578613 79.18208984 247.03157227 78.76074219 247.56298828 C74.21856371 253.28179729 69.62457413 258.71401634 63.96875 263.37109375 C62.61974194 264.48723732 61.3079538 265.64947987 60.03125 266.84765625 C36.06622232 289.33722513 -0.62372655 305.12062137 -33.6171875 304.21875 C-73.21558996 301.65811427 -108.84247935 280.59680947 -135.625 252.25 C-144.08020314 242.58023729 -151.32167537 231.50695786 -157 220 C-157.50015625 218.99839844 -158.0003125 217.99679687 -158.515625 216.96484375 C-168.08851626 197.06966823 -173.37631259 176.28157589 -173.26074219 154.2409668 C-173.25009604 151.83421174 -173.26065013 149.42821573 -173.2734375 147.02148438 C-173.28857609 132.95709936 -172.26731536 119.31084823 -168 105.8125 C-167.7009375 104.85053711 -167.401875 103.88857422 -167.09375 102.89746094 C-154.69670237 64.66906506 -127.85394405 32.05257334 -92.5390625 12.80078125 C-63.58370618 -1.93257334 -31.86248653 -9.56565756 0 0 Z " fill="#FFDA2C" transform="translate(273,105)"/>
<path d="M0 0 C37.24323809 -0.62183675 37.24323809 -0.62183675 51 3 C52.17175781 3.29003906 53.34351563 3.58007812 54.55078125 3.87890625 C78.91647044 10.35654776 101.5260428 21.68984003 119.96484375 39.08203125 C121.65489339 40.67476517 123.36414761 42.12952593 125.1875 43.5625 C154.75024625 69.18354675 169.20001675 110.13480595 172 148 C174.40407577 187.88803265 158.92173043 227.7755935 132.921875 257.56640625 C106.29249396 287.38926919 68.58128072 307.09504995 28.4375 309.8828125 C20.62785849 310.14905028 12.81269539 310.06948049 5 310 C5 309.67 5 309.34 5 309 C5.62753174 308.91024902 6.25506348 308.82049805 6.90161133 308.72802734 C43.32683557 303.39977248 77.3399213 290.29929749 103 263 C104.2375 261.7934375 104.2375 261.7934375 105.5 260.5625 C117.83089449 247.92333315 126.61464498 233.97207265 134 218 C134.46019531 217.030625 134.92039062 216.06125 135.39453125 215.0625 C138.22536908 208.73580212 140.24488921 202.20377855 142.1875 195.5625 C142.43773926 194.7166333 142.68797852 193.8707666 142.94580078 192.99926758 C146.31843697 181.05365926 147.35190048 169.34609007 147.31567383 156.99951172 C147.31252272 154.76609974 147.33604514 152.53403009 147.36132812 150.30078125 C147.42304872 136.47166457 145.38588648 123.16266878 141.25 109.9375 C140.99178467 109.10299316 140.73356934 108.26848633 140.4675293 107.40869141 C134.47846727 88.59309972 125.14140249 70.84263471 112 56 C111.15824219 55.03835937 110.31648438 54.07671875 109.44921875 53.0859375 C84.13080393 24.57833694 48.49541385 4.03487396 9.91552734 1.44897461 C6.61118306 1.25732401 3.30780572 1.11741293 0 1 C0 0.67 0 0.34 0 0 Z " fill="#FFC900" transform="translate(238,100)"/>
</svg>
