<?xml version="1.0" encoding="UTF-8"?>
<svg version="1.1" xmlns="http://www.w3.org/2000/svg" width="512" height="512">
<path d="M0 0 C0.93650391 -0.02900391 1.87300781 -0.05800781 2.83789062 -0.08789062 C9.50796157 -0.14978279 9.50796157 -0.14978279 12.95703125 1.83203125 C14.89035356 5.36995536 15.09009843 8.43619431 14.3125 12.3125 C13.09704752 15.04144153 11.47344307 17.38058527 9.75 19.8125 C-6.3948035 44.14416682 -11.94360033 73.87024854 -6.5 102.6875 C-5.94350537 104.90832579 -5.34006658 107.11798175 -4.6875 109.3125 C-4.3471875 110.53195313 -4.006875 111.75140625 -3.65625 113.0078125 C0.71566751 127.39378429 7.79101061 139.6897164 17.3125 151.3125 C17.99828125 152.16328125 18.6840625 153.0140625 19.390625 153.890625 C32.37483963 169.18314445 50.32854892 180.1548851 69.3125 186.3125 C70.21484375 186.60769531 71.1171875 186.90289062 72.046875 187.20703125 C89.78254787 192.29225949 106.3187026 192.22046475 123.6875 186.125 C128.61851051 184.40379822 133.10677024 183.25594597 138.3125 184.3125 C140.875 185.8125 140.875 185.8125 142.3125 188.3125 C142.85276116 194.65381535 141.75399127 198.59129596 138.75 204.125 C138.38503418 204.82149658 138.02006836 205.51799316 137.64404297 206.2355957 C131.8888861 217.06493669 124.9362347 226.74794765 117.3125 236.3125 C116.75433594 237.01632813 116.19617188 237.72015625 115.62109375 238.4453125 C112.53479238 242.19596757 109.12813199 245.37282069 105.421875 248.5078125 C104.02900932 249.69948647 102.66312404 250.92352699 101.328125 252.1796875 C84.44906096 267.98001436 54.11098988 286.3125 30.3125 286.3125 C30.36470703 287.51132812 30.36470703 287.51132812 30.41796875 288.734375 C30.85256546 306.36658422 24.67138974 321.53242662 12.59179688 334.30102539 C1.24284265 345.6324658 -14.23967659 352.54190691 -30.26319885 352.53909302 C-31.15731979 352.52877045 -32.05144073 352.51844788 -32.97265625 352.5078125 C-33.91435165 352.5049826 -34.85604706 352.50215271 -35.82627869 352.49923706 C-38.80098791 352.48814207 -41.77538351 352.46305802 -44.75 352.4375 C-46.78059458 352.42745637 -48.81119392 352.41833296 -50.84179688 352.41015625 C-55.79057933 352.38994889 -60.73869326 352.35078041 -65.6875 352.3125 C-65.6875 362.8725 -65.6875 373.4325 -65.6875 384.3125 C-70.9675 384.3125 -76.2475 384.3125 -81.6875 384.3125 C-81.6875 373.7525 -81.6875 363.1925 -81.6875 352.3125 C-94.57094375 352.19450763 -107.45234071 352.12331927 -120.33633327 352.13371754 C-126.31947266 352.13669209 -132.30110819 352.11944019 -138.28393555 352.05541992 C-144.06174279 351.99434665 -149.83737468 351.9871155 -155.61540413 352.01666832 C-157.81578365 352.0185668 -160.01626853 352.00130679 -162.2163372 351.96427345 C-174.32459094 351.18106447 -174.32459094 351.18106447 -184.98446655 355.71766663 C-187.2692687 358.48478338 -188.98497796 361.16426594 -190.6875 364.3125 C-191.69099237 365.57509526 -192.72013057 366.81879599 -193.796875 368.01953125 C-194.24160156 368.54353516 -194.68632812 369.06753906 -195.14453125 369.60742188 C-195.57121094 370.10822266 -195.99789062 370.60902344 -196.4375 371.125 C-199.08637343 374.24109455 -201.7321245 377.35932498 -204.34863281 380.50268555 C-205.50637207 381.8935437 -205.50637207 381.8935437 -206.6875 383.3125 C-206.08250671 383.31614563 -205.47751343 383.31979126 -204.85418701 383.32354736 C-198.55978928 383.36534362 -192.26612269 383.43466882 -185.97216797 383.52001953 C-183.62295848 383.54825288 -181.27365359 383.56945558 -178.92431641 383.58349609 C-175.54800482 383.60489224 -172.17284333 383.65152737 -168.796875 383.703125 C-167.22011993 383.70496796 -167.22011993 383.70496796 -165.61151123 383.70684814 C-158.36356265 383.85257819 -158.36356265 383.85257819 -155.03613281 386.11621094 C-153.39595417 388.78729115 -152.94079846 391.05607389 -153.125 394.1875 C-154.27143221 398.51846613 -157.6035419 401.2231785 -160.6875 404.3125 C-161.97994194 405.71880468 -163.27200009 407.12549584 -164.55541992 408.54003906 C-165.96262588 410.09017797 -167.37843882 411.63200971 -168.796875 413.171875 C-171.59829233 416.2145988 -174.39354985 419.26292038 -177.1875 422.3125 C-178.10413717 423.31252704 -179.02080387 424.31252701 -179.9375 425.3125 C-180.39125 425.8075 -180.845 426.3025 -181.3125 426.8125 C-218.4375 467.3125 -218.4375 467.3125 -219.8137207 468.8137207 C-220.72646591 469.80951647 -221.63906459 470.80544656 -222.55151367 471.80151367 C-224.90196928 474.36698327 -227.25525256 476.92976922 -229.61328125 479.48828125 C-230.57570131 480.53368804 -231.53794387 481.57925828 -232.5 482.625 C-232.96011475 483.12491455 -233.42022949 483.6248291 -233.89428711 484.13989258 C-236.40586664 486.87933995 -238.85829498 489.65549645 -241.25 492.5 C-244.36681549 496.09632556 -244.7912198 496.24021934 -249.5625 496.625 C-252.51718653 496.56590627 -253.57808393 496.37814964 -256.1875 494.8125 C-258.29296221 491.30339632 -258.18763869 488.26204885 -257.6875 484.3125 C-256.55803145 480.23305992 -255.05765875 476.32055283 -253.53125 472.375 C-253.10952515 471.25432129 -252.68780029 470.13364258 -252.2532959 468.97900391 C-250.91029954 465.41871571 -249.54921763 461.86566429 -248.1875 458.3125 C-247.2709312 455.89238281 -246.35555323 453.47181427 -245.44140625 451.05078125 C-243.2038697 445.13272371 -240.95146483 439.22049419 -238.6875 433.3125 C-239.36766174 433.30885437 -240.04782349 433.30520874 -240.74859619 433.30145264 C-247.82151581 433.25967442 -254.89378368 433.19036129 -261.96630859 433.10498047 C-264.6065418 433.07673747 -267.24686008 433.05553962 -269.88720703 433.04150391 C-273.6804572 433.02012144 -277.47268079 432.97349209 -281.265625 432.921875 C-282.44803772 432.92064636 -283.63045044 432.91941772 -284.84869385 432.91815186 C-285.94953308 432.89843323 -287.05037231 432.8787146 -288.18457031 432.85839844 C-289.15275696 432.84951599 -290.1209436 432.84063354 -291.11846924 432.83148193 C-294.44799923 432.15886799 -295.64116489 430.98376955 -297.6875 428.3125 C-298.38898844 423.34656744 -298.31122425 421.36245666 -295.73828125 417.03125 C-294.84495966 415.94209515 -293.93081848 414.86978838 -293 413.8125 C-292.50886719 413.22210938 -292.01773438 412.63171875 -291.51171875 412.0234375 C-290.46021609 410.76057752 -289.40088325 409.50420287 -288.33447266 408.25390625 C-285.5623225 404.98617159 -282.88266237 401.64373518 -280.1875 398.3125 C-279.08338883 396.95828809 -277.97922247 395.60412116 -276.875 394.25 C-273.48620655 390.07917729 -270.17014885 385.85393527 -266.86474609 381.61694336 C-262.71763629 376.31567795 -258.46829471 371.0996653 -254.18945312 365.90429688 C-253.67576172 365.27716797 -253.16207031 364.65003906 -252.6328125 364.00390625 C-252.18437988 363.45935791 -251.73594727 362.91480957 -251.27392578 362.35375977 C-248.98406336 359.40738554 -246.84049412 356.35971625 -244.6875 353.3125 C-245.70535583 353.31036247 -245.70535583 353.31036247 -246.74377441 353.30818176 C-253.88345434 353.28831121 -261.02229913 353.23367085 -268.16162109 353.15991211 C-270.8171481 353.13418883 -273.47167562 353.12237404 -276.12744141 353.11694336 C-299.36814182 353.06008805 -317.70781006 351.26753756 -335.3046875 334.71875 C-348.09787316 321.79972973 -354.4746256 306.56110127 -355.0625 288.3125 C-354.37687723 268.58766019 -346.97276338 252.69310016 -332.6875 239.3125 C-320.68961378 228.47569954 -305.74188711 223.72802468 -289.8125 224.0625 C-288.30429687 224.07023437 -288.30429687 224.07023437 -286.765625 224.078125 C-282.25569447 224.12597572 -278.10214847 224.3253122 -273.6875 225.3125 C-273.419375 224.1265625 -273.15125 222.940625 -272.875 221.71875 C-266.55070497 195.07585738 -252.17572624 172.1705828 -228.6015625 157.56640625 C-222.22936351 153.80652195 -215.6552883 150.79132706 -208.6875 148.3125 C-208.0574707 148.08804199 -207.42744141 147.86358398 -206.77832031 147.63232422 C-184.58561073 140.18330295 -158.65996748 142.56064663 -137.6875 152.3125 C-137.71106567 151.31005249 -137.71106567 151.31005249 -137.73510742 150.28735352 C-138.5409854 110.64971819 -126.85584703 74.25303375 -99.21362305 44.93286133 C-73.19945125 17.91671124 -37.89489121 0.39611385 0 0 Z " fill="#010100" transform="translate(361.6875,7.6875)"/>
<path d="M0 0 C1.77890625 0.81210938 1.77890625 0.81210938 3.59375 1.640625 C18.83236347 9.25993173 29.70396173 20.49218175 38.140625 35.08203125 C39.89559399 37.83615275 41.47996905 39.92997458 44 42 C49.33713842 42.10263728 52.69931089 40.23621745 56.91015625 37.25390625 C63.49564906 33.30261057 70.54920597 33.17494032 78 34 C88.85621009 37.10911579 95.07092514 41.87504486 100.80078125 51.5 C102.01125608 54.02346545 102.58154379 56.24311205 103 59 C102.04480469 59.21914062 101.08960938 59.43828125 100.10546875 59.6640625 C83.08174727 63.75806746 68.8744112 72.14741054 59 87 C52.48903454 98.25691017 48.93920013 109.03903819 48 122 C53.28 122 58.56 122 64 122 C63.9175 120.741875 63.835 119.48375 63.75 118.1875 C63.78623202 106.62948634 70.41269803 95.59278015 78.0625 87.3125 C88.57254578 77.35003644 100.93266739 73.40928925 115.18359375 73.75390625 C128.55641457 74.92240516 139.51137343 80.43758273 148.703125 90.15625 C158.17658808 101.88529953 161.21356362 114.22642451 160.24267578 128.99853516 C158.85399727 140.4516402 151.62718491 151.22212437 143.47265625 159.078125 C133.90673642 166.51324752 122.78870987 170.32392398 110.76820374 170.24050903 C109.85975769 170.24221788 108.95131164 170.24392673 108.01533693 170.24568737 C104.98288103 170.24897163 101.95064828 170.23799606 98.91821289 170.22705078 C96.73986822 170.22648644 94.56152316 170.22680368 92.38317871 170.22793579 C86.47672342 170.2285094 80.57034942 170.21675367 74.66391301 170.20278788 C68.48862829 170.19028195 62.31334169 170.18911012 56.13804626 170.18673706 C44.44745061 170.1805219 32.75689238 170.16411055 21.06631321 170.14403808 C7.75564658 170.12168024 -5.55501805 170.11068594 -18.86569965 170.10064721 C-46.24382051 170.07974439 -73.62190816 170.04456766 -101 170 C-100.59021408 169.45408707 -100.18042816 168.90817413 -99.75822449 168.34571838 C-99.21950211 167.6277861 -98.68077972 166.90985382 -98.12573242 166.17016602 C-97.5921965 165.45925308 -97.05866058 164.74834015 -96.50895691 164.0158844 C-88.34483766 154.01666287 -88.34483766 154.01666287 -85 142 C-91.93 139.525 -91.93 139.525 -99 137 C-99.33 138.65 -99.66 140.3 -100 142 C-106.10498888 155.16933316 -115.91947972 162.62179064 -129 168 C-142.07613923 172.40768738 -155.39508574 170.444629 -167.5625 164.4375 C-179.93439634 157.21908972 -186.68694994 146.8505067 -191.16796875 133.52734375 C-194.28379342 120.31800252 -191.57480305 107.26409176 -184.84375 95.69921875 C-177.2207705 84.53930597 -166.15959077 77.08609872 -153 74 C-144.9431984 73.36954832 -136.78285055 73.67701411 -129 76 C-126.80240708 78.19759292 -127.06298901 82.87933146 -126.625 85.9375 C-125.69336115 92.19587295 -124.6387075 98.19140409 -122.55078125 104.1875 C-122 106 -122 106 -122 109 C-117.38 107.02 -112.76 105.04 -108 103 C-108.84274357 97.93793358 -108.84274357 97.93793358 -110 93 C-115.66947388 71.73947295 -111.74464956 50.63119223 -101.05566406 31.75830078 C-98.46463378 27.44271335 -95.39988266 23.69525139 -92 20 C-91.25105469 19.15953125 -90.50210938 18.3190625 -89.73046875 17.453125 C-67.2801795 -6.48417857 -29.76153443 -13.92370542 0 0 Z " fill="#989898" transform="translate(216,174)"/>
<path d="M0 0 C-1.15384395 3.88111146 -2.65602923 7.4702037 -4.375 11.125 C-17.3471603 39.35852536 -19.10133108 73.23447251 -9.22265625 102.7578125 C4.32189795 138.67468146 27.99604423 165.05996647 63 181 C82.3965935 189.05073576 107.35121852 194.00691825 128 188 C124.41500928 198.30450213 115.35377828 207.19409069 108 215 C107.40058594 215.66386719 106.80117188 216.32773438 106.18359375 217.01171875 C88.23094488 236.1276062 62.48668602 248.19550802 37 253 C36.61521484 251.92685547 36.61521484 251.92685547 36.22265625 250.83203125 C29.56372857 233.50088279 18.7298216 221.23943714 2 213 C-4.19955761 210.49282597 -10.3308156 208.60628949 -17 208 C-17.14695312 207.33355469 -17.29390625 206.66710937 -17.4453125 205.98046875 C-20.36105891 193.99909702 -25.84563625 182.69120498 -36.66113281 175.96728516 C-52.16183315 167.19034235 -64.98073483 166.53706769 -82 171 C-83.66409708 171.34593322 -85.3299972 171.68380462 -87 172 C-87.52207031 171.26136719 -88.04414063 170.52273437 -88.58203125 169.76171875 C-97.47706973 157.23497871 -97.47706973 157.23497871 -109.26171875 147.75390625 C-112.21706756 144.77199251 -111.84433221 141.04202105 -112 137 C-112.03802734 136.1322998 -112.07605469 135.26459961 -112.11523438 134.37060547 C-112.52020798 121.84567177 -111.93518093 110.19123988 -109 98 C-108.79503906 96.98292969 -108.59007812 95.96585937 -108.37890625 94.91796875 C-103.7097001 73.25401225 -91.01927778 53.87464703 -76 38 C-74.86111328 36.76443359 -74.86111328 36.76443359 -73.69921875 35.50390625 C-57.85692492 18.88375838 -36.42878114 7.33066075 -14.125 2.25 C-13.20203125 2.02957031 -12.2790625 1.80914063 -11.328125 1.58203125 C-7.38712439 0.66246444 -4.07745785 0 0 0 Z " fill="#FBED20" transform="translate(352,25)"/>
<path d="M0 0 C1.1859375 0.54140625 2.371875 1.0828125 3.59375 1.640625 C18.83236347 9.25993173 29.70396173 20.49218175 38.140625 35.08203125 C39.89559399 37.83615275 41.47996905 39.92997458 44 42 C49.33713842 42.10263728 52.69931089 40.23621745 56.91015625 37.25390625 C63.49564906 33.30261057 70.54920597 33.17494032 78 34 C88.85621009 37.10911579 95.07092514 41.87504486 100.80078125 51.5 C102.01125608 54.02346545 102.58154379 56.24311205 103 59 C102.04480469 59.21914062 101.08960938 59.43828125 100.10546875 59.6640625 C82.78498779 63.82943463 69.39708947 72.28079481 59 87 C58.01 88.65 57.02 90.3 56 92 C50.72 91.34 45.44 90.68 40 90 C39.62875 87.916875 39.2575 85.83375 38.875 83.6875 C36.36163643 72.15628105 31.64743187 63.94024435 22 57 C11.51647667 50.49633275 0.33491961 49.62050002 -11.57421875 52.22265625 C-15.04480512 53.33480873 -18.01299042 55.04445496 -21.08984375 56.9765625 C-23 58 -23 58 -26 58 C-27.46132279 55.9419704 -28.73321003 53.92345287 -30 51.75 C-42.2682732 31.84571448 -59.904934 20.39401815 -82 13 C-79.76406519 8.40834816 -76.87728667 6.30083483 -72.5 3.9375 C-71.87851074 3.59315918 -71.25702148 3.24881836 -70.61669922 2.89404297 C-65.27784136 0.00643627 -59.83180046 -2.29271928 -54 -4 C-52.85015625 -4.35320312 -51.7003125 -4.70640625 -50.515625 -5.0703125 C-34.02413624 -9.07820419 -15.27093628 -7.14439031 0 0 Z " fill="#B2B2B2" transform="translate(216,174)"/>
<path d="M0 0 C10.52429242 9.79299718 16.01660714 21.31036243 16.71655273 35.51220703 C17.1065849 49.78437112 11.25025471 61.47048156 1.8359375 71.96875 C-6.6154789 80.11076965 -19.03417481 85.14268233 -30.69140625 85.0390625 C-31.97724609 85.03261719 -33.26308594 85.02617187 -34.58789062 85.01953125 C-35.92578404 85.00282601 -37.26367467 84.98589619 -38.6015625 84.96875 C-39.96679033 84.95870322 -41.3320253 84.94958036 -42.69726562 84.94140625 C-46.01971449 84.91792605 -49.34179571 84.88508359 -52.6640625 84.84375 C-52.3753125 83.85117187 -52.0865625 82.85859375 -51.7890625 81.8359375 C-46.99759957 64.61995094 -47.45403648 48.97207523 -55.6640625 32.84375 C-60.21017724 25.31983085 -65.39540143 19.77365207 -72.6640625 14.84375 C-71.63437983 7.22673849 -65.35011805 1.92455709 -59.59765625 -2.77734375 C-41.58407654 -15.6233915 -16.95098792 -13.71986119 0 0 Z " fill="#B2B2B2" transform="translate(359.6640625,259.15625)"/>
<path d="M0 0 C-3.88452073 5.317628 -7.95498345 10.37718031 -12.3125 15.3125 C-23.67655849 26.54063098 -23.67655849 26.54063098 -30.375 39.9375 C-30.22069049 42.98346841 -30.22069049 42.98346841 -28.65722656 45.15332031 C-24.43309169 48.08894657 -20.13629887 47.60337452 -15.109375 47.609375 C-13.51974945 47.63417938 -13.51974945 47.63417938 -11.89801025 47.65948486 C-8.51528169 47.70804555 -5.13300295 47.72935437 -1.75 47.75 C0.54429356 47.77815283 2.8385661 47.80807928 5.1328125 47.83984375 C10.75512645 47.91380655 16.37731347 47.96540179 22 48 C20.0114295 51.40722873 18.11368357 54.09200061 15.25 56.8125 C12.678856 59.31866924 10.21057847 61.8356825 7.875 64.5625 C4.3998553 68.60355129 0.76991345 72.48786281 -2.875 76.375 C-10.10176965 84.08914978 -17.3150015 91.80548571 -24 100 C-25 98 -25 98 -24.28735352 95.75683594 C-23.90506592 94.84192383 -23.52277832 93.92701172 -23.12890625 92.984375 C-22.71962891 91.98019531 -22.31035156 90.97601563 -21.88867188 89.94140625 C-21.01066882 87.82850934 -20.13049042 85.71651496 -19.24804688 83.60546875 C-18.83748047 82.59613281 -18.42691406 81.58679688 -18.00390625 80.546875 C-17.62049072 79.62745117 -17.2370752 78.70802734 -16.84204102 77.76074219 C-15.89422978 74.65321843 -15.71529543 72.23202185 -16 69 C-17.72226496 65.75150023 -17.72226496 65.75150023 -21 65 C-22.61024513 64.88528988 -24.22455855 64.8237226 -25.83862305 64.79467773 C-26.8194133 64.77473251 -27.80020355 64.75478729 -28.81071472 64.73423767 C-29.86704605 64.71752518 -30.92337738 64.70081268 -32.01171875 64.68359375 C-33.63676079 64.6524221 -33.63676079 64.6524221 -35.29463196 64.62062073 C-38.75885616 64.55518203 -42.2231568 64.49626647 -45.6875 64.4375 C-48.03451315 64.39430939 -50.38151853 64.35069493 -52.72851562 64.30664062 C-58.48559604 64.19950643 -64.24275267 64.09772936 -70 64 C-67.83059713 60.69546137 -65.66905385 57.4561576 -63.15234375 54.40625 C-62.63542969 53.77589844 -62.11851563 53.14554687 -61.5859375 52.49609375 C-61.04195312 51.83738281 -60.49796875 51.17867188 -59.9375 50.5 C-55.73697875 45.37442013 -51.57507322 40.22592153 -47.5 35 C-44.61500611 31.30199608 -41.70756912 27.62621653 -38.7421875 23.9921875 C-38.18845459 23.31285156 -37.63472168 22.63351562 -37.06420898 21.93359375 C-35.94365176 20.56800067 -34.8155995 19.2085214 -33.67993164 17.85546875 C-31.1300844 14.78766613 -28.80372495 11.82153215 -26.87890625 8.3203125 C-20.4101328 -2.74298213 -11.57004418 -1.30131715 0 0 Z " fill="#F8EA20" transform="translate(159,360)"/>
<path d="M0 0 C0 3.23453049 -0.84846471 5.62585057 -1.93115234 8.64379883 C-10.88662718 33.72927471 -13.71823619 60.93974509 -7 87 C-6.83371094 87.64614258 -6.66742188 88.29228516 -6.49609375 88.95800781 C-3.3321463 100.88140237 1.15568055 113.39798355 7.8046875 123.83203125 C8.19914062 124.54746094 8.59359375 125.26289063 9 126 C8.505 127.485 8.505 127.485 8 129 C5.234375 129.9140625 5.234375 129.9140625 1.75 130.625 C0.61046875 130.86476562 -0.5290625 131.10453125 -1.703125 131.3515625 C-2.79109375 131.56554687 -3.8790625 131.77953125 -5 132 C-5.96421875 132.19335938 -6.9284375 132.38671875 -7.921875 132.5859375 C-8.60765625 132.72257813 -9.2934375 132.85921875 -10 133 C-10.52207031 132.26136719 -11.04414063 131.52273437 -11.58203125 130.76171875 C-20.47706973 118.23497871 -20.47706973 118.23497871 -32.26171875 108.75390625 C-35.21706756 105.77199251 -34.84433221 102.04202105 -35 98 C-35.03802734 97.1322998 -35.07605469 96.26459961 -35.11523438 95.37060547 C-35.52020798 82.84567177 -34.93518093 71.19123988 -32 59 C-31.79503906 57.98292969 -31.59007812 56.96585938 -31.37890625 55.91796875 C-26.81805 34.75672889 -14.53423901 15.65523085 0 0 Z " fill="#F8AE3A" transform="translate(275,64)"/>
<path d="M0 0 C5.28 0 10.56 0 16 0 C16 34.32 16 68.64 16 104 C10.72 104 5.44 104 0 104 C0 69.68 0 35.36 0 0 Z " fill="#000000" transform="translate(328,376)"/>
<path d="M0 0 C5.28 0 10.56 0 16 0 C16 23.76 16 47.52 16 72 C10.72 72 5.44 72 0 72 C0 48.24 0 24.48 0 0 Z " fill="#000000" transform="translate(376,352)"/>
<path d="M0 0 C2.234375 -0.015625 2.234375 -0.015625 5.671875 0.734375 C3.02322181 5.49820707 -0.27802926 9.65334503 -3.640625 13.921875 C-4.90373471 15.53508667 -6.16675294 17.14836996 -7.4296875 18.76171875 C-8.07583008 19.58526855 -8.72197266 20.40881836 -9.38769531 21.25732422 C-12.44248433 25.15690768 -15.47817253 29.0712836 -18.515625 32.984375 C-24.42177327 40.59262017 -30.3773007 48.16059861 -36.328125 55.734375 C-18.178125 56.064375 -0.028125 56.394375 18.671875 56.734375 C14.30982982 64.21216674 9.95233113 71.65206955 5.359375 78.984375 C4.83537109 79.83644531 4.31136719 80.68851562 3.77148438 81.56640625 C3.26810547 82.36949219 2.76472656 83.17257812 2.24609375 84 C1.79838623 84.71961914 1.35067871 85.43923828 0.8894043 86.18066406 C0.48761963 86.69338867 0.08583496 87.20611328 -0.328125 87.734375 C-0.988125 87.734375 -1.648125 87.734375 -2.328125 87.734375 C-1.85122296 86.10870894 -1.37152834 84.48386189 -0.890625 82.859375 C-0.62378906 81.95445312 -0.35695312 81.04953125 -0.08203125 80.1171875 C0.671875 77.734375 0.671875 77.734375 1.671875 75.734375 C1.93047635 71.68295381 1.97629054 70.19099831 -0.328125 66.734375 C-3.2195273 65.77057423 -5.15466423 65.58325476 -8.16674805 65.52905273 C-9.1475383 65.50910751 -10.12832855 65.48916229 -11.13883972 65.46861267 C-12.19517105 65.45190018 -13.25150238 65.43518768 -14.33984375 65.41796875 C-15.96488579 65.3867971 -15.96488579 65.3867971 -17.62275696 65.35499573 C-21.08698116 65.28955703 -24.5512818 65.23064147 -28.015625 65.171875 C-30.36263815 65.12868439 -32.70964353 65.08506993 -35.05664062 65.04101562 C-40.81372104 64.93388143 -46.57087767 64.83210436 -52.328125 64.734375 C-50.15872213 61.42983637 -47.99717885 58.1905326 -45.48046875 55.140625 C-44.96355469 54.51027344 -44.44664063 53.87992187 -43.9140625 53.23046875 C-43.37007812 52.57175781 -42.82609375 51.91304688 -42.265625 51.234375 C-38.06510375 46.10879513 -33.90319822 40.96029653 -29.828125 35.734375 C-25.314964 29.9493759 -20.70806587 24.24607885 -16.03442383 18.58984375 C-13.48749129 15.48704366 -11.03483613 12.38108343 -8.78515625 9.0546875 C-3.34901758 1.05640152 -3.34901758 1.05640152 0 0 Z " fill="#F7AE39" transform="translate(141.328125,359.265625)"/>
<path d="M0 0 C-16.5933165 13.56323261 -41.55013719 31 -64 31 C-64.27972656 30.24976563 -64.55945313 29.49953125 -64.84765625 28.7265625 C-67.42775127 22.13943887 -70.36516395 16.59984793 -74.64453125 10.9609375 C-76 9 -76 9 -76 7 C-75.35417969 7.0721875 -74.70835937 7.144375 -74.04296875 7.21875 C-50.87366537 9.50081545 -28.81812682 7.88770329 -6.8125 0.1875 C-3 -1 -3 -1 0 0 Z " fill="#F8AE3A" transform="translate(453,247)"/>
</svg>
