<?xml version="1.0" encoding="UTF-8"?>
<svg version="1.1" xmlns="http://www.w3.org/2000/svg" width="512" height="512">
<path d="M0 0 C1.70724243 0.00845947 1.70724243 0.00845947 3.44897461 0.01708984 C33.31966077 0.44560192 59.09602655 12.78955565 80.5 33.125 C93.92739258 47.08068343 102.80428626 63.85467217 108.25 82.3125 C108.91209473 82.17247559 109.57418945 82.03245117 110.25634766 81.88818359 C124.92433243 78.97723592 141.35893159 78.04100498 155.25 84.3125 C156.19746094 84.73660156 157.14492188 85.16070312 158.12109375 85.59765625 C165.15902171 89.10197822 170.70907979 93.78106766 176.25 99.3125 C176.8996875 99.95058594 177.549375 100.58867188 178.21875 101.24609375 C188.29187682 111.87147533 193.37847417 127.16991886 193.25 141.6875 C193.25 142.88375 193.25 144.08 193.25 145.3125 C194.91275221 146.97525221 197.02853436 146.64424366 199.26416016 146.85595703 C218.87044874 148.7744072 235.23526398 156.4997782 249.25 170.3125 C249.87261719 170.86292969 250.49523437 171.41335937 251.13671875 171.98046875 C264.58468704 184.21963091 271.67642685 203.70498363 272.5703125 221.53125 C273.30721224 245.8595595 265.73778195 266.90683799 249.0625 284.9375 C238.76753074 294.6296107 224.50586958 303.54979588 210.25 305.3125 C210.15251465 306.38089111 210.0550293 307.44928223 209.95458984 308.55004883 C209.22314032 314.35749072 207.57467339 319.89302407 205.9765625 325.51171875 C205.65215179 326.66493118 205.32774109 327.81814362 204.99349976 329.00630188 C204.3088157 331.43349587 203.62114586 333.85984936 202.93066406 336.28540039 C201.87627274 339.99552156 200.83603616 343.70941629 199.796875 347.42382812 C199.12845535 349.78669929 198.4592126 352.14933779 197.7890625 354.51171875 C197.32483383 356.17432991 197.32483383 356.17432991 196.85122681 357.87052917 C196.40594131 359.42288017 196.40594131 359.42288017 195.95166016 361.0065918 C195.69486481 361.91289841 195.43806946 362.81920502 195.17349243 363.75297546 C193.90648188 367.26458474 192.69355884 370.59072058 189.25 372.3125 C185.74662019 372.69330215 183.88721374 372.71495078 180.875 370.8125 C178.1856276 366.67500399 178.82892241 362.3488247 179.79293823 357.68685913 C180.56775911 354.67355107 181.40910051 351.68694309 182.27734375 348.69921875 C182.58571671 347.6078511 182.89408966 346.51648346 183.21180725 345.39204407 C184.19395351 341.92517003 185.19057114 338.4626486 186.1875 335 C186.85445735 332.65326223 187.52048288 330.30625942 188.18554688 327.95898438 C192.89393306 311.38070083 192.89393306 311.38070083 194.25 307.3125 C182.04 307.3125 169.83 307.3125 157.25 307.3125 C155.27 315.2325 155.27 315.2325 153.25 323.3125 C152.42708761 326.27078846 151.59806025 329.19710424 150.6875 332.125 C150.49220703 332.79080078 150.29691406 333.45660156 150.09570312 334.14257812 C148.19893197 340.27773694 148.19893197 340.27773694 145.25 342.3125 C141.35495209 342.80823337 139.15506283 342.89266848 135.8125 340.75 C133.73888016 337.51515304 133.80050815 335.01389094 134.25 331.3125 C135.23775253 327.10990972 136.48224061 323.00052829 137.75 318.875 C138.905 315.059375 140.06 311.24375 141.25 307.3125 C129.04 307.6425 116.83 307.9725 104.25 308.3125 C102.6 313.9225 100.95 319.5325 99.25 325.3125 C100.961875 325.209375 102.67375 325.10625 104.4375 325 C108.53598054 325.01057672 109.94725514 325.12037345 113.5 327.375 C115.25 330.3125 115.25 330.3125 115.2109375 333.53125 C113.99199115 338.32775435 111.80344976 341.04992178 108.625 344.75 C107.80467285 345.72851929 107.80467285 345.72851929 106.96777344 346.72680664 C105.88645137 348.01372092 104.80001168 349.29635596 103.70800781 350.57421875 C102.48505079 352.03226531 101.32426796 353.54215161 100.1796875 355.0625 C99.62539063 355.784375 99.07109375 356.50625 98.5 357.25 C98.05140625 357.85714844 97.6028125 358.46429688 97.140625 359.08984375 C95.25 360.3125 95.25 360.3125 91.4296875 360.09375 C88.87347841 359.99712859 87.66076981 360.02734088 85.5390625 361.50024414 C83.91611095 363.20900515 82.51862957 364.97512101 81.125 366.875 C80.6196875 367.48408203 80.114375 368.09316406 79.59375 368.72070312 C78.1835887 370.56131421 77.09073218 372.14956654 76.25 374.3125 C77.08381934 377.89760805 77.08381934 377.89760805 78.25 381.3125 C76.54825187 386.12476943 73.41381779 390.05336705 70.3125 394.0625 C69.88259766 394.63871094 69.45269531 395.21492188 69.00976562 395.80859375 C64.79702676 401.29346469 64.79702676 401.29346469 61.25 402.3125 C60.115625 402.23386719 58.98125 402.15523438 57.8125 402.07421875 C54.07152563 401.94647727 54.07152563 401.94647727 51.5625 404.83203125 C50.76811461 405.91276486 49.99756175 407.0113642 49.25 408.125 C48.84394531 408.67220703 48.43789063 409.21941406 48.01953125 409.78320312 C46.71291694 411.56056395 46.71291694 411.56056395 45.25 414.3125 C45.58 415.3025 45.91 416.2925 46.25 417.3125 C46.78586851 421.67299869 46.58656378 424.33185155 43.9765625 427.8203125 C42.95909503 429.03990145 41.92419503 430.24509611 40.875 431.4375 C39.76314532 432.76073016 38.65248661 434.08496607 37.54296875 435.41015625 C36.98528809 436.0664502 36.42760742 436.72274414 35.85302734 437.39892578 C33.54187259 440.15780957 31.36074995 443.00710597 29.1875 445.875 C25.2200281 451.06077919 21.20840707 456.20892365 17.1640625 461.33496094 C13.92913833 465.43671465 10.74027257 469.57108812 7.58984375 473.73828125 C5.45627492 476.24506912 4.20717235 476.31725863 0.875 476.6875 C-2.75 476.3125 -2.75 476.3125 -5.25 474.3125 C-8.31255382 468.18739236 -5.12750731 460.44927053 -3.34155273 454.14257812 C-2.9755748 452.82409378 -2.9755748 452.82409378 -2.60220337 451.47897339 C-1.80137534 448.59903661 -0.99255319 445.72141222 -0.18359375 442.84375 C0.37597952 440.83750002 0.93504906 438.83110948 1.49363708 436.82458496 C2.95997453 431.56251123 4.43311905 426.30236707 5.90771484 421.04260254 C7.41331524 415.66757662 8.91243477 410.29074416 10.41210938 404.9140625 C13.35175255 394.378433 16.29919091 383.84500763 19.25 373.3125 C6.05 373.6425 -7.15 373.9725 -20.75 374.3125 C-22.56074616 381.08421396 -22.56074616 381.08421396 -24.33886719 387.86450195 C-24.57250977 388.70972412 -24.80615234 389.55494629 -25.046875 390.42578125 C-25.27729492 391.28985596 -25.50771484 392.15393066 -25.74511719 393.04418945 C-26.96282592 395.79290953 -28.17434193 396.8049967 -30.75 398.3125 C-33.99757827 398.71844728 -36.08249717 398.57598796 -39.125 397.375 C-41.24865318 394.67959404 -41.28975963 392.43977405 -41.15625 389.07421875 C-40.35732273 383.64304974 -38.54116818 378.48609738 -36.75 373.3125 C-38.17892578 373.34730469 -38.17892578 373.34730469 -39.63671875 373.3828125 C-42.75 373.3125 -42.75 373.3125 -44.5625 372.1875 C-46.67875272 368.84604834 -46.92760247 365.41686546 -46.30752563 361.56111145 C-46.04184784 360.62417953 -45.77617004 359.68724762 -45.50244141 358.72192383 C-45.20528229 357.65093948 -44.90812317 356.57995514 -44.60195923 355.47651672 C-44.27182831 354.33571152 -43.94169739 353.19490631 -43.6015625 352.01953125 C-43.10358658 350.24505867 -43.10358658 350.24505867 -42.59555054 348.43473816 C-41.53361209 344.66144268 -40.45447549 340.89331148 -39.375 337.125 C-38.65513067 334.57648778 -37.93636774 332.02766277 -37.21875 329.47851562 C-32.14056726 311.48420179 -32.14056726 311.48420179 -30.75 307.3125 C-39 307.3125 -47.25 307.3125 -55.75 307.3125 C-56.306875 309.7875 -56.86375 312.2625 -57.4375 314.8125 C-58.87970887 321.01375555 -60.47167547 327.15468488 -62.3125 333.25 C-62.50996826 333.92933594 -62.70743652 334.60867188 -62.91088867 335.30859375 C-64.0419507 338.94438308 -64.47258664 340.12755776 -67.75 342.3125 C-71.54106167 342.72607036 -73.87965695 342.79118868 -77.25 340.9375 C-80.33194482 335.54409656 -77.89825712 328.46171488 -76.33984375 322.7421875 C-75.79955097 320.88753729 -75.24687756 319.03648362 -74.6875 317.1875 C-73.718125 313.92875 -72.74875 310.67 -71.75 307.3125 C-83.96 307.6425 -96.17 307.9725 -108.75 308.3125 C-109.87019531 312.35757812 -110.99039063 316.40265625 -112.14453125 320.5703125 C-113.04439497 323.80624817 -113.94549672 327.04183339 -114.847435 330.27719116 C-115.79741601 333.68619252 -116.74523322 337.09576097 -117.68774414 340.50683594 C-118.77068354 344.42574719 -119.86360516 348.34181411 -120.95703125 352.2578125 C-121.29152786 353.47365021 -121.62602448 354.68948792 -121.97065735 355.94216919 C-122.29076279 357.08289886 -122.61086823 358.22362854 -122.94067383 359.39892578 C-123.21825027 360.39820099 -123.49582672 361.3974762 -123.78181458 362.42703247 C-126.56430836 370.71965418 -126.56430836 370.71965418 -129.75 372.3125 C-132.98880681 372.59413537 -135.11670091 372.62059145 -138.0625 371.1875 C-140.36603185 368.62802017 -140.41686986 366.71392479 -140.75 363.3125 C-140.30752563 360.56111145 -140.30752563 360.56111145 -139.50244141 357.72192383 C-139.20528229 356.65093948 -138.90812317 355.57995514 -138.60195923 354.47651672 C-138.27182831 353.33571152 -137.94169739 352.19490631 -137.6015625 351.01953125 C-137.26957855 349.83654953 -136.9375946 348.65356781 -136.59555054 347.43473816 C-135.53361209 343.66144268 -134.45447549 339.89331148 -133.375 336.125 C-132.65513067 333.57648778 -131.93636774 331.02766277 -131.21875 328.47851562 C-126.14056726 310.48420179 -126.14056726 310.48420179 -124.75 306.3125 C-125.925625 306.250625 -127.10125 306.18875 -128.3125 306.125 C-145.70045286 304.11137166 -162.00800818 294.92232777 -174.75 283.3125 C-175.80767578 282.37664062 -175.80767578 282.37664062 -176.88671875 281.421875 C-192.65261767 266.67812669 -203.22948608 243.65726076 -203.98828125 222.109375 C-204.50173266 194.35076424 -197.66593893 170.83500446 -178.27905273 150.42578125 C-163.58320726 135.52110131 -142.45166044 123.78631318 -121.1015625 123.21484375 C-119.87179688 123.22644531 -118.64203125 123.23804688 -117.375 123.25 C-116.12976563 123.25902344 -114.88453125 123.26804687 -113.6015625 123.27734375 C-112.66054687 123.28894531 -111.71953125 123.30054688 -110.75 123.3125 C-110.7814209 122.27246826 -110.7814209 122.27246826 -110.81347656 121.21142578 C-111.42506226 97.79698345 -111.42506226 97.79698345 -109 86.875 C-108.84305664 86.14361816 -108.68611328 85.41223633 -108.52441406 84.65869141 C-107.75676441 81.59619659 -107.03788608 79.59924367 -104.78125 77.3515625 C-102.29363734 76.07905295 -100.50711421 76.08274048 -97.75 76.3125 C-97.55664062 75.70921875 -97.36328125 75.1059375 -97.1640625 74.484375 C-96.90367188 73.68515625 -96.64328125 72.8859375 -96.375 72.0625 C-95.99214844 70.87914063 -95.99214844 70.87914063 -95.6015625 69.671875 C-94.75 67.3125 -94.75 67.3125 -93.55859375 65.1640625 C-93.29175781 64.55304688 -93.02492188 63.94203125 -92.75 63.3125 C-93.224375 62.52875 -93.69875 61.745 -94.1875 60.9375 C-95.75 58.3125 -95.75 58.3125 -95.56640625 55.4765625 C-91.39083292 39.29371848 -71.18054718 23.76496111 -57.52734375 15.44921875 C-39.87736018 5.17921259 -20.39361543 -0.10679682 0 0 Z M53.25 307.3125 C50.45815591 316.20873384 50.45815591 316.20873384 49.25 325.3125 C60.47 325.3125 71.69 325.3125 83.25 325.3125 C86.67870612 316.4542307 86.67870612 316.4542307 88.25 307.3125 C76.7 307.3125 65.15 307.3125 53.25 307.3125 Z " fill="#BDDCFB" transform="translate(221.75,17.6875)"/>
<path d="M0 0 C1.70724243 0.00845947 1.70724243 0.00845947 3.44897461 0.01708984 C33.31966077 0.44560192 59.09602655 12.78955565 80.5 33.125 C93.92739258 47.08068343 102.80428626 63.85467217 108.25 82.3125 C108.91209473 82.17247559 109.57418945 82.03245117 110.25634766 81.88818359 C124.92433243 78.97723592 141.35893159 78.04100498 155.25 84.3125 C156.19746094 84.73660156 157.14492188 85.16070312 158.12109375 85.59765625 C165.15902171 89.10197822 170.70907979 93.78106766 176.25 99.3125 C176.8996875 99.95058594 177.549375 100.58867188 178.21875 101.24609375 C188.29187682 111.87147533 193.37847417 127.16991886 193.25 141.6875 C193.25 142.88375 193.25 144.08 193.25 145.3125 C194.91275221 146.97525221 197.02853436 146.64424366 199.26416016 146.85595703 C218.87044874 148.7744072 235.23526398 156.4997782 249.25 170.3125 C249.87261719 170.86292969 250.49523437 171.41335937 251.13671875 171.98046875 C264.58468704 184.21963091 271.67642685 203.70498363 272.5703125 221.53125 C273.30721224 245.8595595 265.73778195 266.90683799 249.0625 284.9375 C238.76753074 294.6296107 224.50586958 303.54979588 210.25 305.3125 C210.15251465 306.38089111 210.0550293 307.44928223 209.95458984 308.55004883 C209.22314032 314.35749072 207.57467339 319.89302407 205.9765625 325.51171875 C205.65215179 326.66493118 205.32774109 327.81814362 204.99349976 329.00630188 C204.3088157 331.43349587 203.62114586 333.85984936 202.93066406 336.28540039 C201.87627274 339.99552156 200.83603616 343.70941629 199.796875 347.42382812 C199.12845535 349.78669929 198.4592126 352.14933779 197.7890625 354.51171875 C197.32483383 356.17432991 197.32483383 356.17432991 196.85122681 357.87052917 C196.40594131 359.42288017 196.40594131 359.42288017 195.95166016 361.0065918 C195.69486481 361.91289841 195.43806946 362.81920502 195.17349243 363.75297546 C193.90648188 367.26458474 192.69355884 370.59072058 189.25 372.3125 C185.74662019 372.69330215 183.88721374 372.71495078 180.875 370.8125 C178.1856276 366.67500399 178.82892241 362.3488247 179.79293823 357.68685913 C180.56775911 354.67355107 181.40910051 351.68694309 182.27734375 348.69921875 C182.58571671 347.6078511 182.89408966 346.51648346 183.21180725 345.39204407 C184.19395351 341.92517003 185.19057114 338.4626486 186.1875 335 C186.85445735 332.65326223 187.52048288 330.30625942 188.18554688 327.95898438 C192.89393306 311.38070083 192.89393306 311.38070083 194.25 307.3125 C182.04 307.3125 169.83 307.3125 157.25 307.3125 C155.27 315.2325 155.27 315.2325 153.25 323.3125 C152.42708761 326.27078846 151.59806025 329.19710424 150.6875 332.125 C150.49220703 332.79080078 150.29691406 333.45660156 150.09570312 334.14257812 C148.19893197 340.27773694 148.19893197 340.27773694 145.25 342.3125 C141.35495209 342.80823337 139.15506283 342.89266848 135.8125 340.75 C133.73888016 337.51515304 133.80050815 335.01389094 134.25 331.3125 C135.23775253 327.10990972 136.48224061 323.00052829 137.75 318.875 C138.905 315.059375 140.06 311.24375 141.25 307.3125 C129.04 307.6425 116.83 307.9725 104.25 308.3125 C102.6 313.9225 100.95 319.5325 99.25 325.3125 C100.961875 325.209375 102.67375 325.10625 104.4375 325 C108.53598054 325.01057672 109.94725514 325.12037345 113.5 327.375 C115.25 330.3125 115.25 330.3125 115.2109375 333.53125 C113.99199115 338.32775435 111.80344976 341.04992178 108.625 344.75 C107.80467285 345.72851929 107.80467285 345.72851929 106.96777344 346.72680664 C105.88645137 348.01372092 104.80001168 349.29635596 103.70800781 350.57421875 C102.48505079 352.03226531 101.32426796 353.54215161 100.1796875 355.0625 C99.62539063 355.784375 99.07109375 356.50625 98.5 357.25 C98.05140625 357.85714844 97.6028125 358.46429688 97.140625 359.08984375 C95.25 360.3125 95.25 360.3125 91.4296875 360.09375 C88.87347841 359.99712859 87.66076981 360.02734088 85.5390625 361.50024414 C83.91611095 363.20900515 82.51862957 364.97512101 81.125 366.875 C80.6196875 367.48408203 80.114375 368.09316406 79.59375 368.72070312 C78.1835887 370.56131421 77.09073218 372.14956654 76.25 374.3125 C77.08381934 377.89760805 77.08381934 377.89760805 78.25 381.3125 C76.54825187 386.12476943 73.41381779 390.05336705 70.3125 394.0625 C69.88259766 394.63871094 69.45269531 395.21492188 69.00976562 395.80859375 C64.79702676 401.29346469 64.79702676 401.29346469 61.25 402.3125 C60.115625 402.23386719 58.98125 402.15523438 57.8125 402.07421875 C54.07152563 401.94647727 54.07152563 401.94647727 51.5625 404.83203125 C50.76811461 405.91276486 49.99756175 407.0113642 49.25 408.125 C48.84394531 408.67220703 48.43789063 409.21941406 48.01953125 409.78320312 C46.71291694 411.56056395 46.71291694 411.56056395 45.25 414.3125 C45.58 415.3025 45.91 416.2925 46.25 417.3125 C46.78586851 421.67299869 46.58656378 424.33185155 43.9765625 427.8203125 C42.95909503 429.03990145 41.92419503 430.24509611 40.875 431.4375 C39.76314532 432.76073016 38.65248661 434.08496607 37.54296875 435.41015625 C36.98528809 436.0664502 36.42760742 436.72274414 35.85302734 437.39892578 C33.54187259 440.15780957 31.36074995 443.00710597 29.1875 445.875 C25.2200281 451.06077919 21.20840707 456.20892365 17.1640625 461.33496094 C13.92913833 465.43671465 10.74027257 469.57108812 7.58984375 473.73828125 C5.45627492 476.24506912 4.20717235 476.31725863 0.875 476.6875 C-2.75 476.3125 -2.75 476.3125 -5.25 474.3125 C-8.31255382 468.18739236 -5.12750731 460.44927053 -3.34155273 454.14257812 C-2.9755748 452.82409378 -2.9755748 452.82409378 -2.60220337 451.47897339 C-1.80137534 448.59903661 -0.99255319 445.72141222 -0.18359375 442.84375 C0.37597952 440.83750002 0.93504906 438.83110948 1.49363708 436.82458496 C2.95997453 431.56251123 4.43311905 426.30236707 5.90771484 421.04260254 C7.41331524 415.66757662 8.91243477 410.29074416 10.41210938 404.9140625 C13.35175255 394.378433 16.29919091 383.84500763 19.25 373.3125 C6.05 373.6425 -7.15 373.9725 -20.75 374.3125 C-22.56074616 381.08421396 -22.56074616 381.08421396 -24.33886719 387.86450195 C-24.57250977 388.70972412 -24.80615234 389.55494629 -25.046875 390.42578125 C-25.27729492 391.28985596 -25.50771484 392.15393066 -25.74511719 393.04418945 C-26.96282592 395.79290953 -28.17434193 396.8049967 -30.75 398.3125 C-33.99757827 398.71844728 -36.08249717 398.57598796 -39.125 397.375 C-41.24865318 394.67959404 -41.28975963 392.43977405 -41.15625 389.07421875 C-40.35732273 383.64304974 -38.54116818 378.48609738 -36.75 373.3125 C-38.17892578 373.34730469 -38.17892578 373.34730469 -39.63671875 373.3828125 C-42.75 373.3125 -42.75 373.3125 -44.5625 372.1875 C-46.67875272 368.84604834 -46.92760247 365.41686546 -46.30752563 361.56111145 C-46.04184784 360.62417953 -45.77617004 359.68724762 -45.50244141 358.72192383 C-45.20528229 357.65093948 -44.90812317 356.57995514 -44.60195923 355.47651672 C-44.27182831 354.33571152 -43.94169739 353.19490631 -43.6015625 352.01953125 C-43.10358658 350.24505867 -43.10358658 350.24505867 -42.59555054 348.43473816 C-41.53361209 344.66144268 -40.45447549 340.89331148 -39.375 337.125 C-38.65513067 334.57648778 -37.93636774 332.02766277 -37.21875 329.47851562 C-32.14056726 311.48420179 -32.14056726 311.48420179 -30.75 307.3125 C-39 307.3125 -47.25 307.3125 -55.75 307.3125 C-56.306875 309.7875 -56.86375 312.2625 -57.4375 314.8125 C-58.87970887 321.01375555 -60.47167547 327.15468488 -62.3125 333.25 C-62.50996826 333.92933594 -62.70743652 334.60867188 -62.91088867 335.30859375 C-64.0419507 338.94438308 -64.47258664 340.12755776 -67.75 342.3125 C-71.54106167 342.72607036 -73.87965695 342.79118868 -77.25 340.9375 C-80.33194482 335.54409656 -77.89825712 328.46171488 -76.33984375 322.7421875 C-75.79955097 320.88753729 -75.24687756 319.03648362 -74.6875 317.1875 C-73.718125 313.92875 -72.74875 310.67 -71.75 307.3125 C-83.96 307.6425 -96.17 307.9725 -108.75 308.3125 C-109.87019531 312.35757812 -110.99039063 316.40265625 -112.14453125 320.5703125 C-113.04439497 323.80624817 -113.94549672 327.04183339 -114.847435 330.27719116 C-115.79741601 333.68619252 -116.74523322 337.09576097 -117.68774414 340.50683594 C-118.77068354 344.42574719 -119.86360516 348.34181411 -120.95703125 352.2578125 C-121.29152786 353.47365021 -121.62602448 354.68948792 -121.97065735 355.94216919 C-122.29076279 357.08289886 -122.61086823 358.22362854 -122.94067383 359.39892578 C-123.21825027 360.39820099 -123.49582672 361.3974762 -123.78181458 362.42703247 C-126.56430836 370.71965418 -126.56430836 370.71965418 -129.75 372.3125 C-132.98880681 372.59413537 -135.11670091 372.62059145 -138.0625 371.1875 C-140.36603185 368.62802017 -140.41686986 366.71392479 -140.75 363.3125 C-140.30752563 360.56111145 -140.30752563 360.56111145 -139.50244141 357.72192383 C-139.20528229 356.65093948 -138.90812317 355.57995514 -138.60195923 354.47651672 C-138.27182831 353.33571152 -137.94169739 352.19490631 -137.6015625 351.01953125 C-137.26957855 349.83654953 -136.9375946 348.65356781 -136.59555054 347.43473816 C-135.53361209 343.66144268 -134.45447549 339.89331148 -133.375 336.125 C-132.65513067 333.57648778 -131.93636774 331.02766277 -131.21875 328.47851562 C-126.14056726 310.48420179 -126.14056726 310.48420179 -124.75 306.3125 C-125.925625 306.250625 -127.10125 306.18875 -128.3125 306.125 C-145.70045286 304.11137166 -162.00800818 294.92232777 -174.75 283.3125 C-175.80767578 282.37664062 -175.80767578 282.37664062 -176.88671875 281.421875 C-192.65261767 266.67812669 -203.22948608 243.65726076 -203.98828125 222.109375 C-204.50173266 194.35076424 -197.66593893 170.83500446 -178.27905273 150.42578125 C-163.58320726 135.52110131 -142.45166044 123.78631318 -121.1015625 123.21484375 C-119.87179688 123.22644531 -118.64203125 123.23804688 -117.375 123.25 C-116.12976563 123.25902344 -114.88453125 123.26804687 -113.6015625 123.27734375 C-112.66054687 123.28894531 -111.71953125 123.30054688 -110.75 123.3125 C-110.7814209 122.27246826 -110.7814209 122.27246826 -110.81347656 121.21142578 C-111.42506226 97.79698345 -111.42506226 97.79698345 -109 86.875 C-108.84305664 86.14361816 -108.68611328 85.41223633 -108.52441406 84.65869141 C-107.76446891 81.62693324 -107.02588956 79.59681796 -104.83203125 77.3359375 C-101.53245984 75.71400934 -99.21508503 76.36747681 -95.75 77.3125 C-93.75 78.875 -93.75 78.875 -92.75 81.3125 C-92.93263676 84.84347734 -93.44007427 88.02082287 -94.26245117 91.44824219 C-95.93164502 98.64121558 -95.98162321 105.58049817 -95.875 112.9375 C-95.86597656 114.13246094 -95.85695313 115.32742187 -95.84765625 116.55859375 C-95.82431077 119.47677834 -95.79156656 122.39452776 -95.75 125.3125 C-94.58726563 125.42464844 -93.42453125 125.53679687 -92.2265625 125.65234375 C-87.98680934 126.18813673 -84.10535555 127.34082655 -80.125 128.875 C-79.43623779 129.14038574 -78.74747559 129.40577148 -78.0378418 129.67919922 C-64.82375817 134.94663772 -54.67027645 142.25323544 -44.75 152.3125 C-43.60724609 153.43978516 -43.60724609 153.43978516 -42.44140625 154.58984375 C-36.58896449 160.71608396 -32.65716884 167.86904148 -28.75 175.3125 C-28.27949219 176.18777344 -27.80898437 177.06304687 -27.32421875 177.96484375 C-24.93847004 182.76093651 -24.21961163 185.95614071 -25.75 191.3125 C-28.284112 193.846612 -30.21230017 193.70507035 -33.6796875 193.96875 C-37.09607202 192.88582057 -38.01520798 190.33361075 -39.75 187.3125 C-40.8845219 185.05667906 -41.98795955 182.78500129 -43.0625 180.5 C-46.00079832 174.47976374 -49.2708864 169.3003973 -53.75 164.3125 C-54.47832031 163.49136719 -55.20664063 162.67023438 -55.95703125 161.82421875 C-69.02863938 147.90791866 -87.92725265 139.03020494 -107.078125 138.02734375 C-129.02576038 137.37100092 -148.27254734 144.5494433 -165.015625 158.71484375 C-179.4306959 172.4091611 -188.46551384 191.78968139 -189.16967773 211.72363281 C-189.3521762 233.75344762 -181.77350023 253.96172002 -166.625 270 C-147.20284831 288.61625328 -124.56048607 292.745423 -98.6015625 292.82421875 C-96.49163795 292.84109674 -94.38172326 292.85925109 -92.27182007 292.87861633 C-86.76467981 292.92578384 -81.25757956 292.95580717 -75.75030518 292.98205566 C-70.11210229 293.01203038 -64.47403683 293.05850191 -58.8359375 293.10351562 C-47.80736406 293.18916971 -36.77876203 293.25668206 -25.75 293.3125 C-25.61559509 292.70545731 -25.48119019 292.09841461 -25.3427124 291.47297668 C-25.16484192 290.67083237 -24.98697144 289.86868805 -24.80371094 289.04223633 C-24.62805603 288.24956863 -24.45240112 287.45690094 -24.27142334 286.64021301 C-21.97230668 276.37660693 -19.20846331 266.30816627 -16.10693359 256.26220703 C-14.67382575 251.56754341 -13.35936427 246.86477938 -12.171875 242.1015625 C-11.9126123 241.06459229 -11.65334961 240.02762207 -11.38623047 238.95922852 C-10.88954859 236.94685448 -10.40367708 234.93177243 -9.93017578 232.91381836 C-9.70313965 231.99479736 -9.47610352 231.07577637 -9.2421875 230.12890625 C-9.04995605 229.31881104 -8.85772461 228.50871582 -8.65966797 227.67407227 C-7.45472678 224.54594662 -6.13451015 222.69103165 -3.75 220.3125 C-0.4486084 219.68431091 -0.4486084 219.68431091 3.52539062 219.68139648 C4.25106735 219.67424118 4.97674408 219.66708588 5.72441101 219.65971375 C8.11900118 219.64282872 10.51171845 219.66222551 12.90625 219.68359375 C14.57247065 219.68276502 16.23869122 219.68030548 17.90490723 219.67628479 C21.39535153 219.67342695 24.88515408 219.68812585 28.37548828 219.71557617 C32.84814505 219.74965956 37.31965433 219.74364098 41.79236603 219.7249136 C45.23253939 219.71434165 48.67244604 219.72328307 52.1125946 219.73829842 C53.76160388 219.7434793 55.41064102 219.74299954 57.05964661 219.73675346 C59.36524274 219.73129862 61.66920004 219.75168185 63.97460938 219.77905273 C65.94173889 219.7883506 65.94173889 219.7883506 67.9486084 219.7978363 C71.76171661 220.39227302 72.96618733 221.26079476 75.25 224.3125 C76.2101967 230.9092082 72.90157726 238.68444111 71.0625 244.9375 C70.42520599 247.1518043 69.78983299 249.36666226 69.15625 251.58203125 C68.8365625 252.69916504 68.516875 253.81629883 68.1875 254.96728516 C66.47829524 261.06611942 64.91961385 267.20451774 63.38012695 273.34814453 C62.14763911 278.18242947 60.75186894 282.91617264 59.15893555 287.64526367 C58.80083298 288.71097092 58.44273041 289.77667816 58.07377625 290.87467957 C57.666007 292.08140068 57.666007 292.08140068 57.25 293.3125 C75.34064495 293.27518522 93.43106836 293.21510884 111.52154446 293.12859726 C119.92297587 293.08893982 128.32431541 293.0564803 136.72583008 293.04150391 C144.05627563 293.02841793 151.38651791 293.00127846 158.71684891 292.95788693 C162.59128003 292.93542668 166.46546192 292.91957991 170.33996391 292.92061615 C195.8724762 292.91993962 219.51930688 292.11396848 238.6953125 273 C251.25986383 259.7822457 258.00719681 242.49494618 257.71826172 224.24536133 C256.90844324 206.91906183 249.05768582 190.01203331 236.25 178.3125 C225.23887956 169.34504351 211.46770901 162.39040592 197.0546875 162.1015625 C196.09175781 162.07320312 195.12882812 162.04484375 194.13671875 162.015625 C192.12128561 161.96334398 190.10562769 161.91913293 188.08984375 161.8828125 C187.12949219 161.851875 186.16914063 161.8209375 185.1796875 161.7890625 C184.30554199 161.76924316 183.43139648 161.74942383 182.53076172 161.72900391 C180.25 161.3125 180.25 161.3125 178.45141602 160.10058594 C176.82058283 157.67339183 176.96575071 156.13261439 177.09765625 153.2265625 C177.12851318 152.21940186 177.15937012 151.21224121 177.19116211 150.17456055 C177.25122437 148.57221558 177.25122437 148.57221558 177.3125 146.9375 C177.57344536 131.81050872 174.90537734 119.81362107 164.37109375 108.25 C159.58267906 103.76146583 154.24606166 100.89440037 148.25 98.3125 C147.57710938 97.99152344 146.90421875 97.67054687 146.2109375 97.33984375 C136.15017533 93.16404478 123.01221026 94.08473262 113.02734375 97.98828125 C99.82008659 104.2854123 92.98251305 112.00084266 86.828125 125.04296875 C83.38394919 132.17855081 83.38394919 132.17855081 81.25 134.3125 C75.12854251 134.7659413 75.12854251 134.7659413 72.3125 133.3125 C70.15644549 129.25404444 70.73726146 125.18338528 71.90625 120.91796875 C75.39999082 111.35535918 82.34735494 99.95455759 91.1875 94.5 C93.3846378 92.57194664 93.3846378 92.57194664 93.58203125 90.41015625 C92.91976406 71.4567001 77.4646625 51.89048916 64.578125 39.3984375 C44.92329387 21.78823645 19.26716837 14.11327583 -6.75 15.3125 C-11.14717418 15.73539763 -15.42166066 16.43899297 -19.75 17.3125 C-21.13638672 17.55226563 -21.13638672 17.55226563 -22.55078125 17.796875 C-46.73947322 22.74836381 -67.41073158 39.1285705 -81.19140625 59.09765625 C-82.75 61.3125 -82.75 61.3125 -84.75 63.3125 C-86.84375 63.4296875 -86.84375 63.4296875 -89.25 63.1875 C-90.44109375 63.09082031 -90.44109375 63.09082031 -91.65625 62.9921875 C-93.75 62.3125 -93.75 62.3125 -95.09375 60.6328125 C-95.9888897 57.46785429 -95.61783384 55.47848642 -94.75 52.3125 C-80.1669218 27.16413045 -55.2911113 11.49767542 -28.203125 3.13671875 C-18.79069592 0.89008692 -9.66961287 -0.05063761 0 0 Z M53.25 307.3125 C50.45815591 316.20873384 50.45815591 316.20873384 49.25 325.3125 C60.47 325.3125 71.69 325.3125 83.25 325.3125 C86.67870612 316.4542307 86.67870612 316.4542307 88.25 307.3125 C76.7 307.3125 65.15 307.3125 53.25 307.3125 Z " fill="#0A0F3F" transform="translate(221.75,17.6875)"/>
<path d="M0 0 C17.82 0 35.64 0 54 0 C52.87528345 8.99773243 52.87528345 8.99773243 51.6171875 13.37109375 C51.34060303 14.34449707 51.06401855 15.31790039 50.77905273 16.32080078 C50.48071533 17.34931152 50.18237793 18.37782227 49.875 19.4375 C49.23820036 21.67315404 48.60148395 23.9088318 47.96484375 26.14453125 C47.47540283 27.85116943 47.47540283 27.85116943 46.97607422 29.59228516 C45.44665122 34.9318765 43.93912548 40.27753314 42.4375 45.625 C42.00449585 47.16450317 42.00449585 47.16450317 41.56274414 48.73510742 C39.2937933 56.84598404 37.15832504 64.98775756 35.0715332 73.1472168 C33.74185038 78.30682136 32.28532369 83.37496918 30.625 88.4375 C29.11263147 93.20146088 28.43596256 97.01766932 29 102 C31.63790734 104.63790734 32.86849082 104.27101936 36.55126953 104.31884766 C37.71232208 104.33871735 38.87337463 104.35858704 40.0696106 104.37905884 C41.32796722 104.39061005 42.58632385 104.40216125 43.8828125 104.4140625 C45.16735321 104.43342865 46.45189392 104.4527948 47.77536011 104.4727478 C51.19147535 104.52413941 54.60763007 104.56372714 58.02392578 104.60089111 C61.50953999 104.64088698 64.99498903 104.69199938 68.48046875 104.7421875 C75.3201919 104.83902975 82.16002096 104.9234078 89 105 C85.21875 110.7578125 85.21875 110.7578125 83.25 112.9375 C81.39948831 115.99084429 81.74998908 118.49984714 82 122 C82.32883179 122.99906372 82.32883179 122.99906372 82.66430664 124.01831055 C82.77508545 124.67226807 82.88586426 125.32622559 83 126 C80.73919862 129.0478127 78.35415545 131.8200879 75.78320312 134.60351562 C74.27174712 136.36464035 73.01059687 137.90795678 72 140 C72.79147446 143.58008295 72.79147446 143.58008295 74 147 C72.29825187 151.81226943 69.16381779 155.74086705 66.0625 159.75 C65.63259766 160.32621094 65.20269531 160.90242187 64.75976562 161.49609375 C60.54702676 166.98096469 60.54702676 166.98096469 57 168 C55.86433594 167.90589844 54.72867188 167.81179688 53.55859375 167.71484375 C49.75459867 167.60920201 49.75459867 167.60920201 47.41015625 170.87890625 C46.19218245 172.71286679 45.05147092 174.58081917 43.91601562 176.46679688 C42.72265625 178.25390625 42.72265625 178.25390625 40 181 C37.84207828 181.03553586 35.98636492 180.64608758 33.88012695 180.19360352 C31.77070128 179.77154065 31.77070128 179.77154065 29.56640625 181.66796875 C28.90511719 182.49941406 28.24382812 183.33085937 27.5625 184.1875 C26.82257813 185.09628906 26.08265625 186.00507813 25.3203125 186.94140625 C24.17175781 188.45541016 24.17175781 188.45541016 23 190 C22.57944336 190.54640137 22.15888672 191.09280273 21.72558594 191.65576172 C19.10001216 195.06782048 16.53134262 198.5171598 14 202 C12.70905643 199.41811286 13.21220609 198.69810804 14.07421875 195.9921875 C14.32751953 195.17878906 14.58082031 194.36539063 14.84179688 193.52734375 C15.12087891 192.65207031 15.39996094 191.77679688 15.6875 190.875 C17.63025311 184.61352907 19.46817135 178.37501454 21 172 C22.91915174 164.07341951 25.24989866 156.29414778 27.6328125 148.49609375 C30.63151685 138.91903771 30.63151685 138.91903771 31 129 C29.92874654 127.1747728 29.92874654 127.1747728 28 126 C25.19566023 125.52555299 25.19566023 125.52555299 21.96801758 125.56762695 C20.72695755 125.54783279 19.48589752 125.52803864 18.20722961 125.50764465 C16.85299837 125.50087491 15.49876547 125.49442804 14.14453125 125.48828125 C12.75874739 125.47143595 11.37297882 125.45328591 9.98722839 125.43388367 C6.34258808 125.38636062 2.69800977 125.35656656 -0.94683838 125.33044434 C-4.66715746 125.30065017 -8.38726284 125.254116 -12.10742188 125.20898438 C-19.40484194 125.12292522 -26.7022775 125.05559197 -34 125 C-33.6976946 123.43261249 -33.3922141 121.86583722 -33.08544922 120.29931641 C-32.91568573 119.42675201 -32.74592224 118.55418762 -32.5710144 117.65518188 C-31.6737011 113.48273016 -30.40334057 109.44362708 -29.125 105.375 C-27.0534224 98.6398709 -25.18055636 91.91629801 -23.53515625 85.06420898 C-22.24797655 79.79579816 -20.71514726 74.62170458 -19.125 69.4375 C-16.89676138 62.16759016 -14.88213522 54.86696833 -13 47.5 C-10.92609166 39.38240201 -8.68935654 31.3419391 -6.1796875 23.34765625 C-3.78326181 15.61373698 -1.97752318 7.91009271 0 0 Z " fill="#F4B434" transform="translate(226,252)"/>
<path d="M0 0 C8.67454949 6.34645349 15.09078548 14.63478716 17.1875 25.3125 C17.35379588 27.49615579 17.45267363 29.68553268 17.5 31.875 C17.55607422 33.57849609 17.55607422 33.57849609 17.61328125 35.31640625 C17.1875 38.3125 17.1875 38.3125 15.32421875 40.1875 C12.63790851 41.60186444 11.18305622 41.83672234 8.1875 41.3125 C6 40 6 40 4.1875 37.3125 C3.57289671 34.5969124 3.15812637 31.87530536 2.7265625 29.125 C1.18357453 21.074628 -3.15616317 15.92918866 -9.8125 11.3125 C-15.65927058 7.94074273 -22.19964445 7.17962036 -28.8125 8.3125 C-32.02275897 9.68152267 -34.9826 11.2285753 -37.98828125 13 C-41.2120146 14.49816654 -43.29705251 14.67091853 -46.8125 14.3125 C-49.25 12.75 -49.25 12.75 -50.8125 10.3125 C-51.1875 7 -51.1875 7 -49.8125 3.3125 C-35.94589859 -9.92874488 -15.89771488 -9.78950196 0 0 Z " fill="#0C1142" transform="translate(436.8125,210.6875)"/>
<path d="M0 0 C2 2 2 2 2.5 5.81640625 C2.40156723 9.4526767 2.14083597 9.85422618 -0.5625 12.65234375 C-1.69296314 13.43669225 -2.83996335 14.1975916 -4 14.9375 C-5.20506912 15.78917354 -6.40560156 16.6473017 -7.6015625 17.51171875 C-8.18711914 17.93114746 -8.77267578 18.35057617 -9.37597656 18.78271484 C-20.14518013 26.85476069 -26.69653227 40.97874439 -29 54 C-29.16823332 55.97738858 -29.31436074 57.95679185 -29.4375 59.9375 C-29.68955112 63.33049585 -29.84656989 64.75564835 -31.6875 67.6875 C-34.78469427 69.44536702 -36.49549702 69.65709431 -40 69 C-42.76453481 66.89022343 -43.79870322 65.18518613 -44.3828125 61.74609375 C-45.13568055 44.90694512 -36.90344642 26.79425268 -26.06640625 14.17578125 C-9.80857901 -2.9425737 -9.80857901 -2.9425737 0 0 Z " fill="#0D1243" transform="translate(194,67)"/>
<path d="M0 0 C2 1 2 1 3 3 C3.55987828 10.24038821 1.80205826 16.5128094 -0.140625 23.453125 C-0.46407898 24.63090515 -0.78753296 25.8086853 -1.12078857 27.02215576 C-1.80500186 29.5012317 -2.49450069 31.97885421 -3.18896484 34.45507812 C-4.24907025 38.24667465 -5.28363109 42.04463036 -6.31640625 45.84375 C-6.98544653 48.255634 -7.65596881 50.6671075 -8.328125 53.078125 C-8.63558655 54.2135675 -8.9430481 55.34901001 -9.25982666 56.51885986 C-9.55983582 57.57385681 -9.85984497 58.62885376 -10.16894531 59.71582031 C-10.42653625 60.64211243 -10.6841272 61.56840454 -10.94952393 62.52276611 C-12.18800628 65.44335662 -13.53968836 67.01124155 -16 69 C-19.86488212 69.55212602 -22.0632978 69.51518621 -25.5 67.625 C-28.58798815 62.22102073 -26.12299253 55.09062347 -24.63305664 49.33837891 C-24.06752114 47.29865638 -23.49283228 45.26145489 -22.91015625 43.2265625 C-22.60556992 42.14039642 -22.30098358 41.05423035 -21.98716736 39.93515015 C-21.34639972 37.65665796 -20.70160938 35.37929355 -20.05297852 33.10302734 C-19.0601934 29.61690047 -18.08087896 26.12719707 -17.10351562 22.63671875 C-16.47734603 20.41644554 -15.8504195 18.19638564 -15.22265625 15.9765625 C-14.92988297 14.93488922 -14.63710968 13.89321594 -14.33546448 12.81997681 C-14.0585527 11.85151825 -13.78164093 10.88305969 -13.49633789 9.88525391 C-13.25508682 9.03605377 -13.01383575 8.18685364 -12.76527405 7.31192017 C-12.01724636 5.05210188 -11.20508372 3.05291543 -10 1 C-6.80732485 -0.59633757 -3.47306385 -0.36932376 0 0 Z " fill="#080D3E" transform="translate(360,373)"/>
<path d="M0 0 C5.51117921 0.25485222 5.51117921 0.25485222 7.68695068 1.88020325 C10.05000387 5.04885814 9.38322508 8.85775555 8.96484375 12.59375 C8.1271533 16.76744656 6.99736151 20.83518813 5.82421875 24.92578125 C5.50076477 26.07995041 5.17731079 27.23411957 4.84405518 28.42326355 C4.16050882 30.84950406 3.47100671 33.2740737 2.77587891 35.69702148 C1.7146487 39.40693186 0.68047266 43.12367307 -0.3515625 46.84179688 C-1.02052242 49.20358247 -1.69104167 51.56492706 -2.36328125 53.92578125 C-2.82447357 55.59142876 -2.82447357 55.59142876 -3.29498291 57.29072571 C-3.59499207 58.32247421 -3.89500122 59.35422272 -4.20410156 60.41723633 C-4.4616925 61.32274734 -4.71928345 62.22825836 -4.98468018 63.16120911 C-6.23047991 66.04605233 -7.60398074 67.61625595 -10.03515625 69.59375 C-13.53515625 70.15625 -13.53515625 70.15625 -17.03515625 69.59375 C-19.53515625 67.59375 -19.53515625 67.59375 -21.03515625 64.59375 C-20.60671725 57.79402389 -18.80168817 51.38506488 -17.015625 44.83203125 C-16.71578201 43.72321091 -16.41593903 42.61439056 -16.10700989 41.4719696 C-15.47363311 39.13895459 -14.83723883 36.80675691 -14.19799805 34.4753418 C-13.22388682 30.91075307 -12.26886703 27.34139015 -11.31445312 23.77148438 C-10.69517468 21.49968231 -10.07477027 19.22818681 -9.453125 16.95703125 C-9.17067429 15.89237137 -8.88822357 14.82771149 -8.59721375 13.73078918 C-5.19942575 1.516915 -5.19942575 1.516915 0 0 Z " fill="#080D3E" transform="translate(141.03515625,372.40625)"/>
<path d="M0 0 C2 1.5 2 1.5 3 4 C2.55932119 11.42431752 0.76119578 18.25400694 -1.3125 25.375 C-1.60833984 26.45394531 -1.90417969 27.53289062 -2.20898438 28.64453125 C-2.50740234 29.67707031 -2.80582031 30.70960938 -3.11328125 31.7734375 C-3.37923096 32.70591309 -3.64518066 33.63838867 -3.91918945 34.59912109 C-5.18675311 37.41484756 -6.3460138 38.46527777 -9 40 C-12.24757827 40.40594728 -14.33249717 40.26348796 -17.375 39.0625 C-19.99696314 35.7346237 -19.37450139 32.03345199 -19 28 C-18.16201894 23.66070629 -17.01658648 19.43795019 -15.8125 15.1875 C-15.52052734 14.06923828 -15.22855469 12.95097656 -14.92773438 11.79882812 C-12.68276071 3.75071823 -12.68276071 3.75071823 -9.48828125 0.23828125 C-5.91786522 -1.53851919 -3.77141468 -1.1174562 0 0 Z " fill="#080D3E" transform="translate(292,428)"/>
<path d="M0 0 C1.99120175 2.07231736 2.94495764 3.30176168 3.1730957 6.19580078 C2.33924198 12.58670801 0.9746438 18.68429839 -0.8125 24.875 C-1.06064453 25.79796875 -1.30878906 26.7209375 -1.56445312 27.671875 C-4.00212738 36.2316472 -4.00212738 36.2316472 -8 39 C-11.86488212 39.55212602 -14.0632978 39.51518621 -17.5 37.625 C-20.54640767 32.29378658 -18.16858974 25.25749051 -16.6953125 19.5703125 C-16.18083036 17.75264969 -15.6573293 15.93751634 -15.125 14.125 C-14.74021484 12.74054688 -14.74021484 12.74054688 -14.34765625 11.328125 C-14.09113281 10.43867188 -13.83460938 9.54921875 -13.5703125 8.6328125 C-13.34102051 7.83762207 -13.11172852 7.04243164 -12.87548828 6.22314453 C-11.89610954 3.73618891 -10.78312064 1.98909709 -9 0 C-5.4314543 -1.18951523 -3.60804584 -0.97717908 0 0 Z " fill="#080D3E" transform="translate(185,429)"/>
<path d="M0 0 C3.375 1.0625 3.375 1.0625 5.375 3.125 C7.705241 9.97008293 4.47466311 18.03607742 2.5625 24.75 C2.31435547 25.67361328 2.06621094 26.59722656 1.81054688 27.54882812 C0.42204812 32.4562703 -0.79225641 36.47439961 -4.625 40.0625 C-8.59069988 40.69984462 -10.65780512 40.68249672 -14.0625 38.5 C-16.64588476 34.46991977 -15.96563582 30.72965717 -15.04321289 26.21508789 C-14.23644842 22.91547467 -13.35042108 19.64677307 -12.4375 16.375 C-12.14552734 15.24771484 -11.85355469 14.12042969 -11.55273438 12.95898438 C-11.25302734 11.87552734 -10.95332031 10.79207031 -10.64453125 9.67578125 C-10.24391479 8.20298706 -10.24391479 8.20298706 -9.83520508 6.70043945 C-7.70130352 2.04907646 -5.09279883 0.08780688 0 0 Z " fill="#080D3E" transform="translate(82.625,401.9375)"/>
<path d="M0 0 C2.01359695 2.07150319 2.9439979 3.28958696 3.1730957 6.19580078 C2.33924198 12.58670801 0.9746438 18.68429839 -0.8125 24.875 C-1.06064453 25.79796875 -1.30878906 26.7209375 -1.56445312 27.671875 C-3.99938238 36.22200827 -3.99938238 36.22200827 -8 39 C-11.5 39.5625 -11.5 39.5625 -15 39 C-17.5 37 -17.5 37 -19 34 C-18.59133707 26.98862612 -16.62967651 20.40979227 -14.6875 13.6875 C-14.39166016 12.60404297 -14.09582031 11.52058594 -13.79101562 10.40429688 C-13.49259766 9.36724609 -13.19417969 8.33019531 -12.88671875 7.26171875 C-12.62076904 6.32287842 -12.35481934 5.38403809 -12.08081055 4.41674805 C-9.48701111 -1.38312109 -5.75715926 -1.57013434 0 0 Z " fill="#080D3E" transform="translate(405,403)"/>
<path d="M0 0 C2.51638373 1.7075461 2.94344595 2.76433369 3.65893555 5.74584961 C4.02420408 9.23093494 3.63954685 11.51783277 2.70703125 14.87890625 C2.40603516 15.96494141 2.10503906 17.05097656 1.79492188 18.16992188 C1.30862305 19.84924805 1.30862305 19.84924805 0.8125 21.5625 C0.50763672 22.68591797 0.20277344 23.80933594 -0.11132812 24.96679688 C-1.6933525 30.54865646 -2.99888678 34.6534424 -7 39 C-10.40772733 39.994193 -13.80066571 39.59966715 -17 38 C-20.45381981 31.09236038 -16.66315143 22.04464026 -14.6875 15.1875 C-14.2244043 13.49077148 -14.2244043 13.49077148 -13.75195312 11.75976562 C-11.1064191 2.40849903 -11.1064191 2.40849903 -8 0 C-4.65044556 -1.11651815 -3.32740404 -0.99822121 0 0 Z " fill="#080D3E" transform="translate(124,455)"/>
<path d="M0 0 C2.96559879 0.96704308 3.97356548 1.55389013 5.875 3.9375 C6.64249504 11.55165874 4.76228358 18.06250905 2.5625 25.3125 C2.25376953 26.39144531 1.94503906 27.47039062 1.62695312 28.58203125 C-1.00431156 37.45631761 -1.00431156 37.45631761 -4.125 39.9375 C-6.0625 40.3359375 -6.0625 40.3359375 -8.125 40.3125 C-9.1459375 40.32410156 -9.1459375 40.32410156 -10.1875 40.3359375 C-12.71290299 39.81660059 -13.50777241 38.91998971 -15.125 36.9375 C-15.87158769 29.37358634 -14.07568213 22.8452382 -11.9375 15.625 C-11.64552734 14.55443359 -11.35355469 13.48386719 -11.05273438 12.38085938 C-8.80816289 4.67208375 -8.80816289 4.67208375 -5.58203125 1.203125 C-3.125 -0.0625 -3.125 -0.0625 0 0 Z " fill="#080D3E" transform="translate(334.125,454.0625)"/>
<path d="M0 0 C3.47105699 0.3471057 4.76341933 0.77598743 7.125 3.3125 C8.0625 5.625 8.0625 5.625 8.125 8.3125 C6.07071932 13.06302408 3.33059775 16.99935729 0.1875 21.0625 C-0.24240234 21.63871094 -0.67230469 22.21492188 -1.11523438 22.80859375 C-3.39528031 25.77715128 -5.24454455 28.14772888 -8.875 29.3125 C-12.30408225 29.17253746 -14.17375435 28.94362109 -16.75 26.625 C-18.29483287 23.44951021 -18.36665388 21.84831078 -17.875 18.3125 C-16.04426631 15.30894081 -13.8019967 12.71416709 -11.5 10.0625 C-10.59507812 8.98355469 -10.59507812 8.98355469 -9.671875 7.8828125 C-3.33448592 0.36244412 -3.33448592 0.36244412 0 0 Z " fill="#0C103E" transform="translate(291.875,390.6875)"/>
<path d="M0 0 C0.81146484 0.00064453 1.62292969 0.00128906 2.45898438 0.00195312 C3.72645508 0.02612305 3.72645508 0.02612305 5.01953125 0.05078125 C5.84517578 0.04755859 6.67082031 0.04433594 7.52148438 0.04101562 C13.81804483 0.09559574 20.00586489 0.5021473 25.39453125 4.05078125 C26.83203125 6.36328125 26.83203125 6.36328125 26.70703125 9.98828125 C25.83203125 13.36328125 25.83203125 13.36328125 23.83203125 15.36328125 C17.52664527 16.32034877 10.71031425 15.16824607 4.39453125 14.55078125 C3.2044043 14.44588379 3.2044043 14.44588379 1.99023438 14.33886719 C-3.69634901 13.72732801 -3.69634901 13.72732801 -5.88696289 12.03637695 C-8.02231297 9.24743964 -7.52903656 6.73324748 -7.16796875 3.36328125 C-5.03421489 0.49778965 -3.51146854 -0.01435152 0 0 Z " fill="#0B1041" transform="translate(219.16796875,57.63671875)"/>
</svg>
