<?xml version="1.0" encoding="UTF-8"?>
<svg version="1.1" xmlns="http://www.w3.org/2000/svg" width="512" height="512">
<path d="M0 0 C1.97191977 2.07899234 3.39948436 3.83053265 4.9375 6.1875 C5.57026855 7.11973389 5.57026855 7.11973389 6.21582031 8.07080078 C25.81475547 37.5430503 34.18803546 74.18770824 27.8125 109.3125 C20.68440966 144.52907255 0.80490811 177.63510671 -29.40625 197.7265625 C-60.78653421 217.8328042 -97.94757197 226.74267393 -134.9765625 218.97265625 C-155.19702981 214.2473803 -176.33444477 206.03312991 -192 192 C-193.5 188.5625 -193.5 188.5625 -194 185 C-192.47601225 181.39055533 -191.28375102 180.18916735 -188 178 C-183.16482539 177.90132297 -180.6095689 179.08155373 -176.75 181.9375 C-151.24632156 200.76441636 -119.79957973 207.65658856 -88.5546875 203.34375 C-56.28584392 197.94023349 -28.10277849 180.38598703 -8.92431641 153.89501953 C9.27598078 127.73988636 16.21896783 95.26292327 10.86865234 63.86767578 C7.29944065 45.84509842 0.02131357 28.05876638 -11.125 13.375 C-13.54749293 10.08332557 -13.98951643 9.33023246 -14.125 5.0625 C-13.05758051 2.15674696 -12.51301748 0.73978133 -10 -1 C-5.90355994 -2.36548002 -3.98195648 -1.5936417 0 0 Z " fill="#000000" transform="translate(363,171)"/>
<path d="M0 0 C3.01712532 2.70272652 3.58013219 4.94838327 4.13671875 8.9140625 C2.612731 12.52350717 1.42046977 13.72489515 -1.86328125 15.9140625 C-6.69845586 16.01273953 -9.25371235 14.83250877 -13.11328125 11.9765625 C-38.61695969 -6.85035386 -70.06370152 -13.74252606 -101.30859375 -9.4296875 C-132.15124409 -4.26499141 -160.80924045 12.24770418 -179.27832031 37.71655273 C-198.20771545 64.9432666 -206.35009433 97.07944355 -200.73193359 130.04638672 C-197.1627219 148.06896408 -189.88459482 165.85529612 -178.73828125 180.5390625 C-176.31578832 183.83073693 -175.87376482 184.58383004 -175.73828125 188.8515625 C-177.37854843 193.31673426 -177.37854843 193.31673426 -179.86328125 194.9140625 C-183.07937393 196.13096243 -184.48550262 196.05579391 -187.7265625 194.83984375 C-191.46064755 192.54731084 -193.45318668 189.85793961 -195.73828125 186.2265625 C-196.16391357 185.56736816 -196.5895459 184.90817383 -197.02807617 184.22900391 C-215.95728528 154.28573006 -224.38828876 117.76493393 -217.2734375 82.61376953 C-209.311778 47.4171922 -189.45790651 14.76918663 -158.6875 -4.94628906 C-108.9248091 -36.0346511 -47.50018986 -34.60450394 0 0 Z " fill="#000000" transform="translate(338.86328125,147.0859375)"/>
<path d="M0 0 C3.1359157 1.77984405 3.84102736 2.52308207 5 6 C5.09654499 7.85461748 5.13541995 9.71246251 5.1418457 11.56958008 C5.14888016 12.71119095 5.15591461 13.85280182 5.16316223 15.02900696 C5.16732651 16.26337997 5.17149078 17.49775299 5.17578125 18.76953125 C5.19897832 21.37565913 5.2230956 23.98177895 5.24804688 26.58789062 C5.28442666 30.70255549 5.3141987 34.81707048 5.32592773 38.93188477 C5.3379753 42.89887982 5.38160044 46.86526051 5.42578125 50.83203125 C5.42387283 52.06033157 5.42196442 53.2886319 5.41999817 54.55415344 C5.53181688 63.08115615 5.53181688 63.08115615 10 70 C15.98676936 74.52062176 20.66108722 75.67273367 28 75 C33.22130472 73.34658684 36.45441249 71.17127942 40 67 C41.02880656 63.91358032 41.14251937 61.74236254 41.17358398 58.50634766 C41.18707382 57.38152985 41.20056366 56.25671204 41.21446228 55.09780884 C41.22490067 53.88217255 41.23533905 52.66653625 41.24609375 51.4140625 C41.27902906 48.84895488 41.31224076 46.2838508 41.34570312 43.71875 C41.39418387 39.66768664 41.43799745 35.61659696 41.47680664 31.56542969 C41.51477967 27.66066023 41.56805031 23.75615668 41.62109375 19.8515625 C41.6295079 18.63997467 41.63792206 17.42838684 41.64659119 16.18008423 C41.66323318 15.0489621 41.67987518 13.91783997 41.69702148 12.75244141 C41.70732895 11.7599942 41.71763641 10.767547 41.72825623 9.74502563 C42.02201373 6.77762783 42.63422148 4.64780873 44 2 C47.7205836 -0.48038907 49.59796571 -0.46337203 54 0 C56.81835516 2.11478734 57.87437586 3.30614628 58.50793457 6.80545044 C58.51111694 7.88559418 58.51429932 8.96573792 58.51757812 10.07861328 C58.53018677 11.30734161 58.54279541 12.53606995 58.55578613 13.80203247 C58.54862148 15.14146496 58.54041629 16.48089222 58.53125 17.8203125 C58.53394739 19.2031176 58.53783187 20.58592085 58.54284668 21.96871948 C58.54874207 24.8689782 58.54018628 27.76874399 58.52148438 30.66894531 C58.49882172 34.36083366 58.5117349 38.05155057 58.53577423 41.74339485 C58.55034164 44.60218867 58.5455746 47.46071254 58.53526306 50.31951523 C58.53134407 52.3344474 58.54336918 54.34939061 58.55578613 56.36428833 C58.4552204 66.3153959 56.81571828 74.93832366 49.828125 82.40234375 C40.83871303 90.25847515 31.92137418 92.47555013 20.24609375 92.24609375 C9.94525937 91.46516407 2.74809254 87.1679781 -4.25 79.75 C-10.99311953 71.1513912 -11.60718177 62.22331675 -11.56640625 51.6015625 C-11.57165284 50.23537781 -11.57793307 48.86919673 -11.58518982 47.50302124 C-11.59552493 44.66053017 -11.59112617 41.81854205 -11.57641602 38.97607422 C-11.55912311 35.33740103 -11.58288475 31.70029163 -11.61790562 28.06179237 C-11.63986228 25.2495584 -11.63844459 22.43770105 -11.6301403 19.62540817 C-11.62892567 17.63341907 -11.64883292 15.64145319 -11.66908264 13.64956665 C-11.65654953 12.44085907 -11.64401642 11.23215149 -11.63110352 9.98681641 C-11.63014175 8.92443756 -11.62917999 7.86205872 -11.62818909 6.76748657 C-11 4 -11 4 -8.65196228 1.65316772 C-5.42318334 -0.35957325 -3.74244706 -0.55738573 0 0 Z " fill="#000000" transform="translate(190,213)"/>
<path d="M0 0 C2.90199837 2.24705491 3.81502864 4.67268698 4.97705078 8.09814453 C5.33397003 9.13576935 5.69088928 10.17339417 6.05862427 11.24246216 C6.43373138 12.36127777 6.8088385 13.48009338 7.1953125 14.6328125 C7.58822479 15.78039032 7.98113708 16.92796814 8.38595581 18.11032104 C9.64060289 21.77911163 10.88332181 25.45180203 12.125 29.125 C13.37582958 32.80461556 14.62912047 36.48336696 15.88546753 40.16110229 C16.66707714 42.45129394 17.44509173 44.74271609 18.2192688 47.03543091 C18.56988373 48.0667514 18.92049866 49.0980719 19.28173828 50.16064453 C19.59023712 51.07314972 19.89873596 51.98565491 20.21658325 52.92581177 C20.82198179 54.95919857 20.82198179 54.95919857 22 56 C22.21440231 55.3596431 22.42880463 54.71928619 22.64970398 54.05952454 C24.8872839 47.3862047 27.14551134 40.72013238 29.41577148 34.05786133 C30.25994167 31.57169992 31.09885874 29.0837483 31.93237305 26.59399414 C33.13248893 23.01223078 34.3514487 19.43736441 35.57421875 15.86328125 C35.94214035 14.75165115 36.31006195 13.64002106 36.68913269 12.4947052 C38.64010454 6.85469835 40.13897021 2.62448226 45 -1 C48 -1.625 48 -1.625 51 -1 C53.9375 0.9375 53.9375 0.9375 56 4 C55.76754208 11.56758754 53.50330978 18.15122083 50.9921875 25.2421875 C50.58847931 26.40517365 50.18477112 27.56815979 49.76882935 28.76638794 C48.47970647 32.47240304 47.17738802 36.17362871 45.875 39.875 C45.02260834 42.32262807 44.17103846 44.77054248 43.3203125 47.21875 C41.27875381 53.08362901 39.2106459 58.93868336 37.13171387 64.79040527 C36.06868144 67.80521614 35.02979189 70.82723864 33.99707031 73.85253906 C33.39705047 75.57116129 32.79650464 77.28960001 32.1953125 79.0078125 C31.94135712 79.77237762 31.68740173 80.53694275 31.42575073 81.32467651 C29.80945242 85.8669023 28.17562857 88.51013903 24 91 C20.4375 91.0625 20.4375 91.0625 17 90 C13.68627453 86.51659552 12.10244476 83.18472786 10.58984375 78.65600586 C10.38110626 78.04056915 10.17236877 77.42513245 9.95730591 76.79104614 C9.2741462 74.76881848 8.60578856 72.74202936 7.9375 70.71484375 C7.46045737 69.29311801 6.98249544 67.87170042 6.50366211 66.45057678 C5.24660876 62.71161841 4.00206907 58.96861137 2.76013184 55.22460938 C1.50647111 51.45255423 0.24102451 47.68446065 -1.0234375 43.91601562 C-3.29858303 37.12965504 -5.56816353 30.34151527 -7.81396484 23.54537964 C-8.59809685 21.20139715 -9.40024872 18.86335805 -10.22119141 16.53201294 C-10.5929248 15.46772064 -10.9646582 14.40342834 -11.34765625 13.30688477 C-11.67902588 12.3782814 -12.01039551 11.44967804 -12.35180664 10.49293518 C-13.37183664 6.56992574 -12.86407584 4.57281202 -11 1 C-7.65753026 -1.97108421 -4.10861534 -0.97112726 0 0 Z " fill="#000000" transform="translate(276,214)"/>
<path d="M0 0 C0.66 -0.0103125 1.32 -0.020625 2 -0.03125 C5.02733661 0.77288629 6.09417132 2.0116281 8 4.5 C8.39457777 7.41850997 8.54737311 9.95943471 8.51757812 12.87695312 C8.5245874 13.7196727 8.53159668 14.56239227 8.53881836 15.4306488 C8.55641445 18.21451836 8.54477009 20.99737022 8.53125 23.78125 C8.53394445 25.71651403 8.53782649 27.65177674 8.54284668 29.58703613 C8.54874391 33.64230238 8.5401715 37.69721614 8.52148438 41.75244141 C8.49869474 46.95142932 8.51181661 52.14959129 8.53577423 57.34854889 C8.5502261 61.34456611 8.54562902 65.34038741 8.53526306 69.33641052 C8.53259409 71.25337319 8.53587152 73.17035362 8.54518127 75.08729553 C8.55533682 77.76635883 8.53986027 80.44408334 8.51757812 83.12304688 C8.52567505 83.91589584 8.53377197 84.70874481 8.54211426 85.52561951 C8.48764516 89.05932668 8.30088506 91.09882654 6.15124512 93.96496582 C3.33958565 95.97124272 1.45065763 96.42957842 -2 96.5 C-6.56521739 94.36956522 -6.56521739 94.36956522 -8 91.5 C-8.11403321 88.7753334 -8.16784151 86.07563882 -8.17700195 83.35009766 C-8.18357315 82.50767014 -8.19014435 81.66524261 -8.19691467 80.79728699 C-8.21666416 78.00287798 -8.22831298 75.20852271 -8.23828125 72.4140625 C-8.24235678 71.46105633 -8.2464323 70.50805016 -8.25063133 69.52616501 C-8.27149759 64.48359137 -8.28579777 59.441045 -8.29516602 54.3984375 C-8.3062409 49.18379144 -8.34065163 43.96957089 -8.38033772 38.75507545 C-8.40644914 34.75053093 -8.4148529 30.7460887 -8.41844749 26.74146652 C-8.42332644 24.81889339 -8.43497744 22.89632522 -8.45348549 20.97383499 C-8.47776426 18.28510788 -8.47693291 15.59749396 -8.4699707 12.90869141 C-8.48278076 12.11270035 -8.49559082 11.31670929 -8.50878906 10.49659729 C-8.47483791 6.90464387 -8.30857916 4.90385163 -6.09562683 2.00765991 C-3.82627453 0.37501643 -2.76335465 -0.04317742 0 0 Z " fill="#000000" transform="translate(256,-0.5)"/>
<path d="M0 0 C0.84271957 -0.00700928 1.68543915 -0.01401855 2.55369568 -0.02124023 C5.33756523 -0.03883633 8.1204171 -0.02719196 10.90429688 -0.01367188 C12.8395609 -0.01636633 14.77482361 -0.02024836 16.71008301 -0.02526855 C20.76534926 -0.03116578 24.82026301 -0.02259337 28.87548828 -0.00390625 C34.07447619 0.01888339 39.27263816 0.00576152 44.47159576 -0.01819611 C48.46761299 -0.03264798 52.46343428 -0.02805089 56.4594574 -0.01768494 C58.37642006 -0.01501596 60.29340049 -0.0182934 62.21034241 -0.02760315 C64.8894057 -0.0377587 67.56713022 -0.02228214 70.24609375 0 C71.4353672 -0.01214539 71.4353672 -0.01214539 72.64866638 -0.02453613 C76.18237356 0.02993297 78.22187341 0.21669306 81.0880127 2.36633301 C83.0942896 5.17799248 83.55262529 7.0669205 83.62304688 10.51757812 C81.49261209 15.08279552 81.49261209 15.08279552 78.62304688 16.51757812 C75.93416083 16.63156255 73.27057702 16.68541475 70.58081055 16.69458008 C69.33420906 16.70443687 69.33420906 16.70443687 68.06242371 16.7144928 C65.30528682 16.73424379 62.54820443 16.74589226 59.79101562 16.75585938 C58.85029016 16.7599349 57.9095647 16.76401043 56.94033241 16.76820946 C51.96144453 16.78907768 46.98258428 16.80337625 42.00366211 16.81274414 C36.85861384 16.82381138 31.71399773 16.85821275 26.56910229 16.89791584 C22.6151295 16.92404968 18.66126019 16.93243309 14.70720863 16.93602562 C12.81058139 16.94089979 10.91395902 16.95253737 9.017416 16.97106361 C6.36241705 16.99538695 3.70854284 16.99450268 1.0534668 16.98754883 C0.27042175 17.00035889 -0.51262329 17.01316895 -1.31939697 17.02636719 C-5.05956521 16.99067308 -7.17937168 16.64352185 -10.36454773 14.61320496 C-12.37695312 12.51757812 -12.37695312 12.51757812 -13.00585938 10.51757812 C-12.98394531 9.85757812 -12.96203125 9.19757813 -12.93945312 8.51757812 C-12.94074219 7.85757813 -12.94203125 7.19757813 -12.94335938 6.51757812 C-11.09458417 -0.01051088 -5.84256018 -0.0596668 0 0 Z " fill="#000000" transform="translate(12.376953125,247.482421875)"/>
<path d="M0 0 C2.16296387 1.53395081 2.16296387 1.53395081 4 4 C4.39462318 6.8841231 4.54743181 9.38628954 4.51757812 12.26928711 C4.5245874 13.10064682 4.53159668 13.93200653 4.53881836 14.78855896 C4.55641504 17.53516095 4.54476887 20.28073138 4.53125 23.02734375 C4.5339447 24.93779193 4.53782693 26.84823877 4.54284668 28.75868225 C4.5487442 32.76267555 4.54017153 36.76631187 4.52148438 40.77026367 C4.49871013 45.89965499 4.51180662 51.02820845 4.53577423 56.15756893 C4.5502385 60.10301509 4.54562306 64.04826311 4.53526306 67.99371529 C4.53259671 69.88473167 4.5358623 71.7757661 4.54518127 73.6667614 C4.55535552 76.31209718 4.53983346 78.95608296 4.51757812 81.60131836 C4.52567505 82.38122131 4.53377197 83.16112427 4.54211426 83.96466064 C4.48410421 87.69188386 4.11890671 89.81387295 2.09265137 92.98561096 C0 95 0 95 -2 95.62890625 C-2.66 95.60699219 -3.32 95.58507812 -4 95.5625 C-4.66 95.56378906 -5.32 95.56507813 -6 95.56640625 C-9.00764568 94.7146316 -10.09480302 93.48535232 -12 91 C-12.39457777 88.08149003 -12.54737311 85.54056529 -12.51757812 82.62304688 C-12.5245874 81.7803273 -12.53159668 80.93760773 -12.53881836 80.0693512 C-12.55641445 77.28548164 -12.54477009 74.50262978 -12.53125 71.71875 C-12.53394445 69.78348597 -12.53782649 67.84822326 -12.54284668 65.91296387 C-12.54874391 61.85769762 -12.5401715 57.80278386 -12.52148438 53.74755859 C-12.49869474 48.54857068 -12.51181661 43.35040871 -12.53577423 38.15145111 C-12.5502261 34.15543389 -12.54562902 30.15961259 -12.53526306 26.16358948 C-12.53259409 24.24662681 -12.53587152 22.32964638 -12.54518127 20.41270447 C-12.55533682 17.73364117 -12.53986027 15.05591666 -12.51757812 12.37695312 C-12.52567505 11.58410416 -12.53377197 10.79125519 -12.54211426 9.97438049 C-12.48704004 6.4014158 -12.31397079 4.40511776 -10.09265137 1.53894043 C-6.32973486 -1.22831667 -4.54791123 -1.18245692 0 0 Z " fill="#000000" transform="translate(260,417)"/>
<path d="M0 0 C0.84242752 -0.0065712 1.68485504 -0.0131424 2.55281067 -0.01991272 C5.34721968 -0.0396622 8.14157494 -0.05131103 10.93603516 -0.0612793 C12.36554441 -0.06739259 12.36554441 -0.06739259 13.82393265 -0.07362938 C18.86650629 -0.09449563 23.90905266 -0.10879581 28.95166016 -0.11816406 C34.16630621 -0.12923895 39.38052677 -0.16364968 44.5950222 -0.20333576 C48.59956673 -0.22944719 52.60400895 -0.23785094 56.60863113 -0.24144554 C58.53120426 -0.24632449 60.45377243 -0.25797548 62.37626266 -0.27648354 C65.06498978 -0.30076231 67.7526037 -0.29993095 70.44140625 -0.29296875 C71.23739731 -0.30577881 72.03338837 -0.31858887 72.85350037 -0.33178711 C76.44484116 -0.29784174 78.44539467 -0.13250058 81.34024048 2.08137512 C82.96536241 4.33698524 83.41797046 5.42612389 83.41259766 8.17700195 C83.43451172 8.83700195 83.45642578 9.49700195 83.47900391 10.17700195 C82.46867589 13.38997055 80.65484173 14.38519959 77.85009766 16.17700195 C74.92247998 16.56432728 72.37460106 16.72492848 69.45141602 16.69458008 C68.61830399 16.70158936 67.78519196 16.70859863 66.92683411 16.71582031 C64.18086133 16.73338483 61.43592413 16.72178437 58.68994141 16.70825195 C56.77852684 16.71094706 54.86711361 16.71482964 52.95570374 16.71984863 C48.95349042 16.72574136 44.9516346 16.717187 40.94946289 16.69848633 C35.81888136 16.67568148 30.68913611 16.68883099 25.55858517 16.71277618 C21.61318148 16.72722705 17.66797625 16.72263171 13.7225666 16.71226501 C11.83072371 16.70959656 9.9388628 16.71287165 8.04704094 16.72218323 C5.40400285 16.73233887 2.76232172 16.71686295 0.11938477 16.69458008 C-0.66254242 16.702677 -1.4444696 16.71077393 -2.25009155 16.71911621 C-5.76085621 16.66426166 -7.76407417 16.46716999 -10.60813904 14.32824707 C-12.62266673 11.51734682 -13.07940127 9.63155455 -13.14990234 6.17700195 C-10.0798058 -0.40177636 -6.67957661 0.02244981 0 0 Z " fill="#000000" transform="translate(429.14990234375,247.822998046875)"/>
<path d="M0 0 C3.21142855 2.37366458 4.71584605 3.93442268 5.75 7.8125 C3.81875361 16.02029716 -5.78521761 22.93176348 -11.58203125 28.71484375 C-12.92511604 30.05936363 -12.92511604 30.05936363 -14.29533386 31.43104553 C-16.17410776 33.31049602 -18.05383991 35.18892187 -19.93530273 37.06567383 C-22.34741773 39.47204276 -24.75494807 41.88294124 -27.16121387 44.29515743 C-29.46573023 46.60414433 -31.7740396 48.90933144 -34.08203125 51.21484375 C-34.94657425 52.08141098 -35.81111725 52.94797821 -36.70185852 53.84080505 C-37.49996445 54.63575882 -38.29807037 55.43071259 -39.12036133 56.24975586 C-39.82316727 56.9517662 -40.52597321 57.65377655 -41.25007629 58.37705994 C-43.78206333 60.72531271 -44.84653466 60.98579025 -48.375 61.3125 C-52 61 -52 61 -54.4375 59.5 C-56.15728122 56.74835005 -56.77720843 54.64322517 -56.69500732 51.38864136 C-55.05657804 45.75759284 -49.69966974 41.72855067 -45.5703125 37.75390625 C-44.49726177 36.6932509 -43.42590411 35.6308802 -42.35617065 34.56687927 C-39.54348617 31.77899365 -36.70718283 29.01637792 -33.86560059 26.25799561 C-31.54537926 23.99789924 -29.24207558 21.72098532 -26.93953133 19.44290257 C-22.18804821 14.74200828 -17.42557518 10.05214677 -12.63330078 5.39282227 C-11.78502716 4.56645767 -10.93675354 3.74009308 -10.06277466 2.88868713 C-6.72226168 -0.16990381 -4.50124982 -0.5295588 0 0 Z " fill="#000000" transform="translate(140,367)"/>
<path d="M0 0 C8.20779716 1.93124639 15.11926348 11.53521761 20.90234375 17.33203125 C22.24686363 18.67511604 22.24686363 18.67511604 23.61854553 20.04533386 C25.49799602 21.92410776 27.37642187 23.80383991 29.25317383 25.68530273 C31.65954276 28.09741773 34.07044124 30.50494807 36.48265743 32.91121387 C38.79164433 35.21573023 41.09683144 37.5240396 43.40234375 39.83203125 C44.26891098 40.69657425 45.13547821 41.56111725 46.02830505 42.45185852 C46.82325882 43.24996445 47.61821259 44.04807037 48.43725586 44.87036133 C49.1392662 45.57316727 49.84127655 46.27597321 50.56455994 47.00007629 C52.91281271 49.53206333 53.17329025 50.59653466 53.5 54.125 C53.1875 57.75 53.1875 57.75 51.625 60.1875 C48.09300465 62.45159958 46.32608566 62.5087407 42.1875 61.75 C35.66544843 57.11382259 30.106044 50.81473438 24.47265625 45.16796875 C23.57630966 44.27257889 22.67996307 43.37718903 21.75645447 42.45466614 C19.87700398 40.57589224 17.99857813 38.69616009 16.12182617 36.81469727 C13.71545724 34.40258227 11.30455876 31.99505193 8.89234257 29.58878613 C6.58335567 27.28426977 4.27816856 24.9759604 1.97265625 22.66796875 C1.10608902 21.80342575 0.23952179 20.93888275 -0.65330505 20.04814148 C-1.44825882 19.25003555 -2.24321259 18.45192963 -3.06225586 17.62963867 C-3.7642662 16.92683273 -4.46627655 16.22402679 -5.18955994 15.49992371 C-7.30657106 13.21727135 -7.77230375 12.05147189 -8.1875 8.9375 C-7.8125 5.75 -7.8125 5.75 -5.6875 2.875 C-2.8125 0.75 -2.8125 0.75 0 0 Z " fill="#000000" transform="translate(374.8125,366.25)"/>
<path d="M0 0 C2.4375 1.5625 2.4375 1.5625 4 4 C4.6875 7.25 4.6875 7.25 4 11 C-0.63617741 17.52205157 -6.93526562 23.081456 -12.58203125 28.71484375 C-13.92511604 30.05936363 -13.92511604 30.05936363 -15.29533386 31.43104553 C-17.17410776 33.31049602 -19.05383991 35.18892187 -20.93530273 37.06567383 C-23.34741773 39.47204276 -25.75494807 41.88294124 -28.16121387 44.29515743 C-30.46573023 46.60414433 -32.7740396 48.90933144 -35.08203125 51.21484375 C-35.94657425 52.08141098 -36.81111725 52.94797821 -37.70185852 53.84080505 C-38.49996445 54.63575882 -39.29807037 55.43071259 -40.12036133 56.24975586 C-40.82316727 56.9517662 -41.52597321 57.65377655 -42.25007629 58.37705994 C-44.53272865 60.49407106 -45.69852811 60.95980375 -48.8125 61.375 C-52 61 -52 61 -54.875 58.875 C-57 56 -57 56 -57.75 53.1875 C-55.81875361 44.97970284 -46.21478239 38.06823652 -40.41796875 32.28515625 C-39.07488396 30.94063637 -39.07488396 30.94063637 -37.70466614 29.56895447 C-35.82589224 27.68950398 -33.94616009 25.81107813 -32.06469727 23.93432617 C-29.65258227 21.52795724 -27.24505193 19.11705876 -24.83878613 16.70484257 C-22.53426977 14.39585567 -20.2259604 12.09066856 -17.91796875 9.78515625 C-17.05342575 8.91858902 -16.18888275 8.05202179 -15.29814148 7.15919495 C-14.50003555 6.36424118 -13.70192963 5.56928741 -12.87963867 4.75024414 C-12.17683273 4.0482338 -11.47402679 3.34622345 -10.74992371 2.62294006 C-7.35175707 -0.52863778 -4.5396267 -0.39134713 0 0 Z " fill="#000000" transform="translate(424,84)"/>
<path d="M0 0 C6.52205157 4.63617741 12.081456 10.93526562 17.71484375 16.58203125 C19.05936363 17.92511604 19.05936363 17.92511604 20.43104553 19.29533386 C22.31049602 21.17410776 24.18892187 23.05383991 26.06567383 24.93530273 C28.47204276 27.34741773 30.88294124 29.75494807 33.29515743 32.16121387 C35.60414433 34.46573023 37.90933144 36.7740396 40.21484375 39.08203125 C41.08141098 39.94657425 41.94797821 40.81111725 42.84080505 41.70185852 C43.63575882 42.49996445 44.43071259 43.29807037 45.24975586 44.12036133 C45.9517662 44.82316727 46.65377655 45.52597321 47.37705994 46.25007629 C49.49407106 48.53272865 49.95980375 49.69852811 50.375 52.8125 C50 56 50 56 47.875 58.875 C45 61 45 61 42.1875 61.75 C33.97970284 59.81875361 27.06823652 50.21478239 21.28515625 44.41796875 C20.38880966 43.52257889 19.49246307 42.62718903 18.56895447 41.70466614 C16.68950398 39.82589224 14.81107813 37.94616009 12.93432617 36.06469727 C10.52795724 33.65258227 8.11705876 31.24505193 5.70484257 28.83878613 C3.39585567 26.53426977 1.09066856 24.2259604 -1.21484375 21.91796875 C-2.08141098 21.05342575 -2.94797821 20.18888275 -3.84080505 19.29814148 C-4.63575882 18.50003555 -5.43071259 17.70192963 -6.24975586 16.87963867 C-6.9517662 16.17683273 -7.65377655 15.47402679 -8.37705994 14.74992371 C-10.72531271 12.21793667 -10.98579025 11.15346534 -11.3125 7.625 C-11 4 -11 4 -9.4375 1.5625 C-5.90550465 -0.70159958 -4.13858566 -0.7587407 0 0 Z " fill="#000000" transform="translate(95,84)"/>
<path d="M0 0 C1.99853182 0.82841581 4.00365409 1.63911632 6.00976562 2.44897461 C7.29145375 2.97720968 8.572719 3.50647222 9.85351562 4.03686523 C11.58722412 4.74999878 11.58722412 4.74999878 13.35595703 5.47753906 C16.38759249 7.02275685 18.26314499 8.36471826 20.37695312 11.01733398 C20.83072785 14.64753181 20.81395178 17.04051345 19.31445312 20.39233398 C16.44777336 22.79664604 14.07559649 22.77730403 10.37695312 23.01733398 C6.99951172 22.0769043 6.99951172 22.0769043 3.52539062 20.59545898 C2.90346832 20.33480652 2.28154602 20.07415405 1.64077759 19.80560303 C-0.32914426 18.97494775 -2.28811165 18.12124366 -4.24804688 17.26733398 C-5.57035286 16.70859489 -6.89326574 16.15128975 -8.21679688 15.59545898 C-22.96111822 9.3411913 -22.96111822 9.3411913 -24.62304688 6.01733398 C-25.087456 -1.29710969 -25.087456 -1.29710969 -23.31054688 -3.92016602 C-15.9284678 -8.56814173 -7.16978018 -2.98181621 0 0 Z " fill="#000000" transform="translate(428.623046875,317.982666015625)"/>
<path d="M0 0 C3.54046591 2.99002366 5.16579872 6.04206661 6.98046875 10.26953125 C7.23878983 10.868759 7.4971109 11.46798676 7.76325989 12.08537292 C8.3048087 13.34828204 8.84157268 14.61325258 9.3737793 15.88012695 C10.18299494 17.80180165 11.01112744 19.7144702 11.84179688 21.62695312 C12.36834401 22.86148654 12.89377158 24.09649818 13.41796875 25.33203125 C13.89000732 26.44296143 14.3620459 27.5538916 14.84838867 28.69848633 C16.47304433 33.356154 17.78961805 37.27036047 15.6875 41.875 C13.37357461 44.78883198 12.42160553 44.94431625 8.6875 45.4375 C5 45 5 45 2.46630859 42.40625 C-0.03157038 39.1892218 -1.61143984 35.84114489 -3.1484375 32.0625 C-3.54091171 31.09775757 -3.54091171 31.09775757 -3.9413147 30.11352539 C-4.4861762 28.76445755 -5.02537691 27.41309052 -5.55908203 26.05957031 C-6.37592829 23.99765677 -7.21988669 21.94831869 -8.06640625 19.8984375 C-8.59542078 18.57879355 -9.12282119 17.25850114 -9.6484375 15.9375 C-10.12458496 14.75027344 -10.60073242 13.56304687 -11.09130859 12.33984375 C-12.23024606 8.15374366 -12.09639888 4.93482156 -9.9375 1.125 C-6.83432242 -0.67684505 -3.42708053 -0.83539199 0 0 Z " fill="#000000" transform="translate(324,404)"/>
<path d="M0 0 C3.9375 0.4375 3.9375 0.4375 5.875 1.5625 C7.39454704 4.24405361 7.68812514 6.35370662 7.9375 9.4375 C7.18596709 12.0663307 6.38609024 14.38461318 5.33203125 16.8828125 C5.05155441 17.57510956 4.77107758 18.26740662 4.48210144 18.98068237 C3.88797715 20.43746054 3.28661465 21.89130531 2.6784668 23.34228516 C1.75291914 25.55551956 0.85446274 27.77836106 -0.04101562 30.00390625 C-0.62342033 31.42252455 -1.20735431 32.84051618 -1.79296875 34.2578125 C-2.05981979 34.91830597 -2.32667084 35.57879944 -2.60160828 36.25930786 C-4.20896153 40.05177466 -5.79780618 42.8790816 -9.0625 45.4375 C-12.69269782 45.89127473 -15.08567947 45.87449866 -18.4375 44.375 C-20.85104275 41.49731442 -20.83422066 39.1550231 -21.0625 35.4375 C-20.31657298 32.81233142 -19.54331532 30.58182502 -18.45703125 28.11328125 C-18.03631599 27.11025215 -18.03631599 27.11025215 -17.60710144 26.08695984 C-17.01387157 24.68274828 -16.41250996 23.28194705 -15.8034668 21.88452148 C-14.87647594 19.75339316 -13.97853847 17.61171316 -13.08398438 15.46679688 C-12.5016776 14.09824331 -11.91774723 12.73037921 -11.33203125 11.36328125 C-11.06518021 10.72779861 -10.79832916 10.09231598 -10.52339172 9.43757629 C-8.33334263 4.46371918 -5.95294985 -0.17205057 0 0 Z " fill="#000000" transform="translate(192.0625,403.5625)"/>
<path d="M0 0 C1.80184505 3.10317758 1.96039199 6.51041947 1.125 9.9375 C-1.86502366 13.47796591 -4.91706661 15.10329872 -9.14453125 16.91796875 C-10.04337288 17.30545036 -10.04337288 17.30545036 -10.96037292 17.70075989 C-12.22328204 18.2423087 -13.48825258 18.77907268 -14.75512695 19.3112793 C-16.67680165 20.12049494 -18.5894702 20.94862744 -20.50195312 21.77929688 C-21.73648654 22.30584401 -22.97149818 22.83127158 -24.20703125 23.35546875 C-25.31796143 23.82750732 -26.4288916 24.2995459 -27.57348633 24.78588867 C-32.231154 26.41054433 -36.14536047 27.72711805 -40.75 25.625 C-43.66383198 23.31107461 -43.81931625 22.35910553 -44.3125 18.625 C-43.875 14.9375 -43.875 14.9375 -41.28125 12.40380859 C-38.0642218 9.90592962 -34.71614489 8.32606016 -30.9375 6.7890625 C-29.97275757 6.39658829 -29.97275757 6.39658829 -28.98852539 5.9961853 C-27.63945755 5.4513238 -26.28809052 4.91212309 -24.93457031 4.37841797 C-22.87265677 3.56157171 -20.82331869 2.71761331 -18.7734375 1.87109375 C-17.45379355 1.34207922 -16.13350114 0.81467881 -14.8125 0.2890625 C-13.03166016 -0.42515869 -13.03166016 -0.42515869 -11.21484375 -1.15380859 C-7.02874366 -2.29274606 -3.80982156 -2.15889888 0 0 Z " fill="#000000" transform="translate(106.875,314.0625)"/>
<path d="M0 0 C2.76913845 2.32250322 2.97632892 3.85534341 3.5625 7.4375 C2.95096652 11.3105454 2.17234266 12.29841408 -0.84008789 14.65063477 C-5.71983007 17.69916365 -11.16661595 19.64277371 -16.5 21.75 C-17.71042969 22.24371094 -18.92085938 22.73742187 -20.16796875 23.24609375 C-30.74415453 27.49285702 -30.74415453 27.49285702 -36 28 C-38.32731556 26.86220128 -40.16840714 25.83159286 -42 24 C-42.59717552 16.71445864 -42.59717552 16.71445864 -40.37402344 14.0546875 C-37.59329582 11.64800263 -34.97951224 10.44187597 -31.58984375 9.01953125 C-30.9811293 8.76121017 -30.37241486 8.5028891 -29.74525452 8.23674011 C-27.81305288 7.41948287 -25.87546237 6.61598657 -23.9375 5.8125 C-22.63179477 5.26193654 -21.32645208 4.71051243 -20.02148438 4.15820312 C-6.55133847 -1.52084643 -6.55133847 -1.52084643 0 0 Z " fill="#000000" transform="translate(446,172)"/>
<path d="M0 0 C5.15765766 0.64470721 5.15765766 0.64470721 7.5 3.4375 C8.7910037 8.91212592 8.26708667 12.15575259 6.078125 17.2890625 C5.81747253 17.9109848 5.55682007 18.5329071 5.28826904 19.17367554 C4.45761377 21.14359738 3.60390968 23.10256478 2.75 25.0625 C2.1912609 26.38480599 1.63395576 27.70771886 1.078125 29.03125 C-5.17614268 43.77557134 -5.17614268 43.77557134 -8.5 45.4375 C-15.71144674 45.89536963 -15.71144674 45.89536963 -18.4375 44.3125 C-19.95704704 41.63094639 -20.25062514 39.52129338 -20.5 36.4375 C-19.74846709 33.8086693 -18.94859024 31.49038682 -17.89453125 28.9921875 C-17.61405441 28.29989044 -17.33357758 27.60759338 -17.04460144 26.89431763 C-16.45047715 25.43753946 -15.84911465 23.98369469 -15.2409668 22.53271484 C-14.31541914 20.31948044 -13.41696274 18.09663894 -12.52148438 15.87109375 C-11.93907967 14.45247545 -11.35514569 13.03448382 -10.76953125 11.6171875 C-10.50268021 10.95669403 -10.23582916 10.29620056 -9.96089172 9.61569214 C-7.72763691 4.34644301 -5.92224369 0.74028046 0 0 Z " fill="#000000" transform="translate(332.5,62.5625)"/>
<path d="M0 0 C3.8708638 3.98684754 6.04015186 7.75436734 8.1484375 12.9375 C8.54091171 13.90224243 8.54091171 13.90224243 8.9413147 14.88647461 C9.4861762 16.23554245 10.02537691 17.58690948 10.55908203 18.94042969 C11.37592829 21.00234323 12.21988669 23.05168131 13.06640625 25.1015625 C13.59542078 26.42120645 14.12282119 27.74149886 14.6484375 29.0625 C15.36265869 30.84333984 15.36265869 30.84333984 16.09130859 32.66015625 C17.23024606 36.84625634 17.09639888 40.06517844 14.9375 43.875 C11.83432242 45.67684505 8.42708053 45.83539199 5 45 C1.31407807 41.93651029 -0.44978464 38.40778759 -2.26953125 34.07421875 C-2.55479172 33.40840286 -2.84005219 32.74258698 -3.13395691 32.05659485 C-3.73134704 30.65259195 -4.32356899 29.24638002 -4.91088867 27.83813477 C-5.80874122 25.69646591 -6.73429659 23.56828305 -7.66210938 21.43945312 C-8.24131471 20.06843849 -8.81884504 18.69671477 -9.39453125 17.32421875 C-9.80998955 16.38010384 -9.80998955 16.38010384 -10.23384094 15.41691589 C-12.06906692 10.91327531 -12.13708656 7.70559902 -11 3 C-7.927034 -0.66392101 -4.55829498 -0.71973079 0 0 Z " fill="#000000" transform="translate(183,63)"/>
<path d="M0 0 C0.60209793 0.2554509 1.20419586 0.51090179 1.82453918 0.77409363 C3.08591044 1.31208751 4.34547979 1.85432447 5.60327148 2.40063477 C7.51972662 3.23055335 9.44371774 4.04075033 11.36914062 4.84960938 C12.60076069 5.37774111 13.83189821 5.90699991 15.0625 6.4375 C16.17004639 6.91292236 17.27759277 7.38834473 18.41870117 7.87817383 C21.34085614 9.42263301 23.20813473 10.90307787 25.33203125 13.41796875 C26.04085428 16.32581756 25.67174914 18.36050775 25.33203125 21.41796875 C23.8548097 23.82817233 22.82566759 24.2528282 20.171875 25.140625 C16.37638507 25.51129871 13.5299924 24.32618331 10.08203125 22.91796875 C9.39399414 22.64678223 8.70595703 22.3755957 7.99707031 22.09619141 C6.53213851 21.51570309 5.0696191 20.92909566 3.609375 20.33691406 C1.29538293 19.40318056 -1.02860715 18.49878277 -3.35546875 17.59765625 C-4.87679882 16.9973511 -6.39764626 16.39582114 -7.91796875 15.79296875 C-8.63243164 15.51646484 -9.34689453 15.23996094 -10.08300781 14.95507812 C-14.04108472 13.35060613 -17.04025259 11.83732598 -19.66796875 8.41796875 C-20.13715558 4.66447413 -20.19933256 2.37948422 -18.35546875 -0.95703125 C-13.15161032 -5.96815418 -5.74154781 -2.43960611 0 0 Z " fill="#000000" transform="translate(82.66796875,174.58203125)"/>
</svg>
