<?xml version="1.0" encoding="UTF-8"?>
<svg version="1.1" xmlns="http://www.w3.org/2000/svg" width="512" height="512">
<path d="M0 0 C6.84703497 5.76235616 11.94314514 12.03937913 16 20 C16.38929688 20.763125 16.77859375 21.52625 17.1796875 22.3125 C23.25522203 35.0844266 24.11027211 50.46470538 20.09375 64.0390625 C14.42055159 79.39722104 5.78953554 91.44789674 -9 99 C-19.65701869 103.73645275 -28.52070566 105.14902948 -40.08377075 105.14717102 C-41.31114075 105.15084771 -42.53851074 105.1545244 -43.80307376 105.1583125 C-47.20228086 105.16741289 -50.60143979 105.17204314 -54.00065446 105.17470181 C-57.66937902 105.17861566 -61.33808974 105.18819271 -65.00680542 105.19691467 C-73.85867482 105.21664077 -82.71054529 105.22673693 -91.56243116 105.23564246 C-95.730992 105.24002861 -99.89955158 105.24539429 -104.06811142 105.25063133 C-117.9223943 105.26763397 -131.77667639 105.28213105 -145.63096809 105.28938007 C-149.2228915 105.29128993 -152.8148149 105.29321028 -156.40673828 105.29516602 C-157.74585155 105.29589163 -157.74585155 105.29589163 -159.11201762 105.2966319 C-173.59399259 105.30494341 -188.07588528 105.33030349 -202.55782427 105.36274669 C-217.42447834 105.39578075 -232.2910905 105.41382521 -247.15778148 105.41702431 C-255.50580449 105.41919198 -263.85370721 105.42797889 -272.20169449 105.45348549 C-279.3058401 105.47514199 -286.40983616 105.48326765 -293.51401104 105.47351871 C-297.13989232 105.46896027 -300.7654647 105.47094931 -304.39130402 105.49028015 C-308.3177314 105.5110336 -312.24372839 105.50097151 -316.17019653 105.48774719 C-317.32173694 105.49871644 -318.47327734 105.50968568 -319.65971291 105.52098733 C-320.70899558 105.51240644 -321.75827826 105.50382555 -322.83935738 105.49498463 C-324.19919359 105.49644984 -324.19919359 105.49644984 -325.58650124 105.49794465 C-328.80387414 104.83414749 -329.99783237 103.5577065 -332 101 C-332.5625 97.5 -332.5625 97.5 -332 94 C-329.82069841 91.34097095 -328.01247497 90.15145427 -324.58886909 89.63932335 C-321.43078779 89.49110701 -318.29649861 89.4836828 -315.13500977 89.5146637 C-313.91892784 89.51069027 -312.70284592 89.50671685 -311.44991302 89.50262302 C-308.07690221 89.49551578 -304.70479843 89.50628863 -301.33188558 89.52448976 C-297.69296348 89.53971797 -294.05408555 89.53178344 -290.41514587 89.52645874 C-284.10841473 89.52018674 -277.80182723 89.52796091 -271.49511719 89.54471016 C-262.36252373 89.56850483 -253.23008487 89.56553018 -244.09747338 89.55508172 C-229.26174873 89.53837141 -214.42606207 89.53581419 -199.59033203 89.5456543 C-198.70237576 89.54623724 -197.81441948 89.54682018 -196.89955544 89.54742079 C-187.00178067 89.5541433 -177.1040092 89.56320901 -167.20623779 89.57373047 C-163.62170418 89.57747016 -160.03717049 89.58112982 -156.45263672 89.5847168 C-155.12596499 89.58605317 -155.12596499 89.58605317 -153.77249181 89.58741654 C-139.00185186 89.6017297 -124.23128531 89.59655673 -109.46065235 89.57679409 C-100.35718708 89.56549048 -91.25404097 89.57118968 -82.15060979 89.59907293 C-75.90475071 89.61702192 -69.65905339 89.61706151 -63.41318434 89.60328431 C-59.81448525 89.59596123 -56.21627244 89.5966781 -52.6176281 89.61956978 C-48.70516636 89.64429144 -44.79337068 89.6299418 -40.88085938 89.61231995 C-39.75874337 89.62572168 -38.63662737 89.63912342 -37.48050785 89.65293127 C-25.59271464 89.53038438 -14.4813151 85.49791258 -6 77 C2.67965665 67.06067151 5.97366365 55.95415204 5.375 42.89453125 C4.26743452 31.39200227 -0.66369136 21.57015367 -9.390625 13.8984375 C-18.70817694 7.01282521 -29.29770681 2.92189929 -41 4 C-53.15745367 6.10640739 -64.32922637 11.14815958 -71.7265625 21.390625 C-78.0956902 31.61887933 -80.0929726 40.52300791 -80.328125 52.46875 C-81 56 -81 56 -83.3515625 58.47265625 C-86 60 -86 60 -89.125 59.9375 C-92.01849469 58.99396912 -93.2291231 58.42330523 -95 56 C-98.61849854 45.14450437 -94.94666017 32.13826187 -90.71484375 21.88671875 C-87.20858637 14.98163806 -82.44231962 9.46161863 -77 4 C-76.45859375 3.43539062 -75.9171875 2.87078125 -75.359375 2.2890625 C-55.23580088 -16.91980371 -21.53546414 -15.40772605 0 0 Z " fill="#000000" transform="translate(473,152)"/>
<path d="M0 0 C1.32691293 -0.00467997 1.32691293 -0.00467997 2.68063217 -0.00945449 C5.6451525 -0.01743212 8.60946801 -0.0111115 11.57398987 -0.00482178 C13.69976929 -0.00753191 15.82554777 -0.01109298 17.95132446 -0.01544189 C23.72866701 -0.0245704 29.50593822 -0.02101839 35.28328204 -0.01468372 C41.33592086 -0.00962021 47.38855357 -0.01431671 53.44119263 -0.01745605 C63.61567784 -0.02109717 73.79013405 -0.01629538 83.96461487 -0.0067749 C95.70408988 0.00408361 107.44349527 0.00060362 119.18296856 -0.01042771 C129.27323195 -0.01952789 139.36347448 -0.02077175 149.45374066 -0.01555037 C155.47474084 -0.01244228 161.49570842 -0.01198879 167.51670647 -0.01862335 C173.18758937 -0.02443498 178.85838343 -0.0203305 184.52925682 -0.00883484 C186.60196536 -0.00620743 188.67468148 -0.00692019 190.74738693 -0.01136017 C213.29771452 -0.05518081 232.17616472 1.83397864 249.40431213 18.00396729 C261.49674993 30.70713426 265.70252217 45.76092728 265.42384338 62.90240479 C264.92821741 76.95628972 258.6212182 90.85828364 248.85743713 100.93756104 C234.15472777 113.83505609 217.57266924 118.46707811 198.21681213 117.25396729 C183.5878897 115.24674304 170.13468268 107.5489567 160.70509338 96.24224854 C152.40956656 85.20625021 148.05899886 73.42827399 147.90431213 59.75396729 C147.87530823 58.89931885 147.84630432 58.04467041 147.81642151 57.16412354 C147.75293914 50.90378511 147.75293914 50.90378511 150.04884338 47.68756104 C152.99268277 45.74091409 154.75205248 45.74868984 158.21681213 46.25396729 C160.52931213 47.31646729 160.52931213 47.31646729 162.21681213 49.25396729 C162.98640017 52.54220706 163.19273378 55.58747852 163.31446838 58.95709229 C163.97313452 71.86019293 168.88444449 82.37219207 178.31446838 91.22271729 C189.00703327 100.12375895 200.64638407 102.23299616 214.21681213 101.25396729 C226.36583605 98.48049284 235.50659928 91.48461777 242.79493713 81.56646729 C249.02839395 71.42853752 250.61100815 59.79553374 248.02931213 48.31646729 C245.17902013 37.74108481 239.7237237 28.85149869 230.34181213 23.00396729 C221.08750054 17.79320625 212.56819956 16.10268805 202.04953003 16.11593628 C201.135888 16.113115 200.22224597 16.11029372 199.28091782 16.10738695 C196.22479126 16.09906532 193.16870104 16.09770482 190.11256409 16.09625244 C187.9195292 16.09158267 185.72649528 16.08643883 183.53346252 16.08085632 C178.81412154 16.06958859 174.09478682 16.06114825 169.37543678 16.05473709 C161.91801222 16.04405391 154.46063295 16.0238105 147.00323486 16.00161743 C136.55319175 15.97110148 126.1031474 15.94186432 115.65309143 15.91607666 C114.6590007 15.91361939 114.6590007 15.91361939 113.64482733 15.91111247 C102.89017607 15.88479178 92.13552138 15.86616553 81.38085148 15.84948476 C70.33699487 15.83207866 59.29320772 15.80306321 48.24940461 15.76459539 C42.04935072 15.7434823 35.84939327 15.72806193 29.64930153 15.72578812 C23.82407912 15.72364905 17.99905797 15.70785597 12.17389679 15.68139839 C10.03207444 15.67417717 7.89022777 15.67211799 5.74839592 15.67550087 C2.83307044 15.67937122 -0.08160443 15.66502058 -2.99685669 15.64596558 C-4.27913203 15.65426012 -4.27913203 15.65426012 -5.58731192 15.66272223 C-11.36172691 15.59720192 -11.36172691 15.59720192 -13.47209769 13.87853181 C-15.25923284 11.66410261 -15.58105566 10.08381821 -15.78318787 7.25396729 C-15.15818787 4.56646729 -15.15818787 4.56646729 -13.78318787 2.25396729 C-9.37743551 -0.18718029 -4.90188366 -0.02653699 0 0 Z " fill="#000000" transform="translate(144.78318786621094,328.74603271484375)"/>
<path d="M0 0 C11.42605266 9.74764945 19.19993398 23.19310646 20.59619141 38.26220703 C21.43993304 55.98078138 17.9361694 71.07940827 6.375 85 C-3.69858991 95.63229322 -17.7824268 103.25930952 -32.59377217 103.96938562 C-34.91560756 104.00943839 -37.23558635 104.01788341 -39.55776978 104.01544189 C-40.44620492 104.01841302 -41.33464007 104.02138414 -42.2499975 104.0244453 C-45.22087383 104.03310288 -48.19170972 104.03463802 -51.16259766 104.03613281 C-53.29489731 104.04076284 -55.42719615 104.04578775 -57.55949402 104.05117798 C-63.34641251 104.06428081 -69.13331941 104.07074208 -74.92025042 104.07518864 C-78.53417015 104.07812103 -82.14808671 104.08222602 -85.76200485 104.08669281 C-97.06541702 104.1003583 -108.36882195 104.11003123 -119.67224181 104.1138947 C-132.7289243 104.11838197 -145.78550244 104.13596485 -158.84215319 104.1648953 C-168.93227658 104.18647886 -179.02237052 104.1965971 -189.11251676 104.19793582 C-195.14103736 104.19898566 -201.16945974 104.20493224 -207.19795609 104.22275543 C-212.86309531 104.23917999 -218.52806185 104.24141903 -224.19321632 104.23261642 C-226.27496998 104.2318432 -228.35673271 104.23622613 -230.43846321 104.24607468 C-233.2745829 104.25870836 -236.1100829 104.25296443 -238.94619751 104.24249268 C-240.18908505 104.25457728 -240.18908505 104.25457728 -241.45708144 104.26690602 C-244.75213891 104.23834113 -247.18060817 104.11533153 -250.10883141 102.53171921 C-252.37272237 100.05796288 -252.55873393 98.18830341 -252.625 94.875 C-250.49456522 90.30978261 -250.49456522 90.30978261 -247.625 88.875 C-244.81760844 88.77562049 -242.0348151 88.73777926 -239.2270813 88.74369812 C-238.34770838 88.74158241 -237.46833545 88.73946669 -236.56231487 88.73728687 C-233.59768328 88.73126645 -230.63309401 88.73228849 -227.66845703 88.7331543 C-225.54972765 88.73012401 -223.43099893 88.72660292 -221.31227112 88.72262573 C-216.73911593 88.71472396 -212.16596858 88.70958691 -207.59280777 88.70633507 C-200.35586402 88.70043152 -193.11896963 88.68389557 -185.88204956 88.66499329 C-183.40513042 88.65865534 -180.92821124 88.65232973 -178.45129204 88.64601612 C-176.59016073 88.6412674 -176.59016073 88.6412674 -174.69143081 88.63642275 C-157.83856694 88.59434771 -140.98572536 88.56139197 -124.1328125 88.54907227 C-112.77277176 88.54068249 -101.41285251 88.51815388 -90.05287254 88.4797166 C-84.04191448 88.45997968 -78.03113794 88.44754341 -72.02014542 88.45255089 C-66.35823235 88.45720966 -60.69666256 88.44332444 -55.03481865 88.41553879 C-52.96289509 88.40864655 -50.8909359 88.40847913 -48.8190136 88.41573906 C-33.53500615 88.46386008 -20.64035224 87.43268386 -8.625 76.875 C0.18209343 67.62839711 3.66269982 57.54276988 4.375 44.875 C4.08859036 34.14145783 -0.57651342 22.77672256 -7.9375 14.875 C-17.33575163 6.58611883 -28.2926715 2.17785818 -40.8671875 2.58984375 C-52.69633925 3.81297134 -63.633242 8.98803489 -71.625 17.875 C-78.75155905 27.72936022 -81.98275253 37.6376273 -81.53515625 49.7421875 C-81.68072102 53.19776862 -83.23631709 55.48631709 -85.625 57.875 C-92.9494892 58.34754769 -92.9494892 58.34754769 -95.328125 56.68359375 C-99.09790234 51.42634402 -97.83624221 43.06606308 -96.97265625 37.0246582 C-94.63624852 23.41803652 -88.55962143 12.52321793 -78.625 2.875 C-78.08488281 2.31425781 -77.54476562 1.75351563 -76.98828125 1.17578125 C-55.98407533 -18.98190755 -21.93025545 -16.83019605 0 0 Z " fill="#000000" transform="translate(354.625,64.125)"/>
<path d="M0 0 C0.89674796 -0.00507454 1.79349593 -0.01014909 2.71741807 -0.0153774 C4.2045474 -0.01612404 4.2045474 -0.01612404 5.72171974 -0.01688576 C6.77007928 -0.02126801 7.81843883 -0.02565027 8.89856684 -0.03016531 C12.43464113 -0.04359041 15.97069048 -0.04974044 19.50678444 -0.0558567 C22.03257804 -0.06375461 24.5583705 -0.07202336 27.08416176 -0.08063698 C34.67999475 -0.10462196 42.27582653 -0.11978822 49.87168545 -0.13269705 C52.01612115 -0.136408 54.16055619 -0.1403813 56.30499125 -0.14444971 C69.61476911 -0.16968239 82.92454798 -0.1917407 96.23434448 -0.20417786 C99.31783362 -0.20710766 102.40132273 -0.21006931 105.48481178 -0.21308327 C106.25121953 -0.21382932 107.01762729 -0.21457537 107.80725951 -0.21534403 C120.2299306 -0.22800482 132.65245879 -0.2612373 145.07506303 -0.3028851 C157.82168652 -0.34526989 170.56823677 -0.36886877 183.31493056 -0.37409842 C190.47480842 -0.37751621 197.63446285 -0.38931445 204.79427147 -0.42220116 C211.52643902 -0.45307261 218.25814834 -0.45863807 224.99039841 -0.4468174 C227.46562272 -0.44659563 229.94086451 -0.45498489 232.41602707 -0.47247124 C235.78687501 -0.49499529 239.1562869 -0.48694489 242.52713966 -0.47098732 C244.00757682 -0.49181045 244.00757682 -0.49181045 245.51792181 -0.51305425 C252.09824334 -0.4359261 252.09824334 -0.4359261 255.3865242 2.448452 C257.27398465 6.16637678 256.99196772 8.19642992 255.75141335 12.13701439 C251.23407973 16.0913101 246.20856593 15.55432968 240.534235 15.51123619 C239.49556284 15.5152106 238.45689068 15.519185 237.38674361 15.52327985 C233.90130934 15.53291539 230.41627968 15.52107683 226.9308567 15.50932884 C224.43417649 15.51175637 221.93749725 15.51547531 219.44082069 15.52039146 C213.36073689 15.52883056 207.28081201 15.52328153 201.20074647 15.51112852 C194.12146971 15.49750544 187.04222121 15.49914663 179.96293468 15.50126185 C167.33307702 15.5044514 154.70327577 15.49278555 142.07343483 15.47319603 C129.81527934 15.45418798 117.55718994 15.44710958 105.29902077 15.45268822 C91.95226544 15.4587443 78.60553917 15.45857239 65.25878626 15.44720238 C63.83601066 15.44599508 62.41323505 15.4447891 60.99045944 15.44358444 C59.94039011 15.44267913 59.94039011 15.44267913 58.86910726 15.44175554 C53.93315872 15.43787445 48.997221 15.43827074 44.06127167 15.44017029 C37.4202665 15.44251239 30.77933441 15.43397268 24.13834381 15.41810989 C21.696999 15.41385755 19.25564557 15.41302284 16.81429863 15.41580009 C13.48997416 15.41900883 10.16590614 15.40997298 6.84160805 15.3977108 C5.86836914 15.40149012 4.89513024 15.40526945 3.89239925 15.4091633 C3.00273608 15.4033311 2.1130729 15.39749891 1.19645023 15.39148998 C0.42908777 15.39062321 -0.3382747 15.38975643 -1.12889057 15.38886338 C-3.60575414 15.09457799 -5.16465069 14.50687739 -7.24858665 13.13701439 C-8.68608665 9.82451439 -8.68608665 9.82451439 -9.24858665 6.13701439 C-7.0884181 1.1686267 -5.23257515 0.01567964 0 0 Z " fill="#000000" transform="translate(26.248586654663086,285.8629856109619)"/>
<path d="M0 0 C0.76084174 -0.0055344 1.52168348 -0.01106879 2.30558103 -0.0167709 C4.85691986 -0.03039235 7.40728294 -0.01540077 9.95860291 -0.00050354 C11.7868186 -0.00428615 13.61503144 -0.00978572 15.4432373 -0.01687622 C20.41010716 -0.03085466 25.37663154 -0.01964473 30.34348226 -0.00316501 C35.53643531 0.01066816 40.72936795 0.00422747 45.92233276 0.0007019 C54.64248738 -0.00200135 63.36250445 0.01148614 72.08262634 0.03465271 C82.17219637 0.06127148 92.26153648 0.06300732 102.35112959 0.05126435 C112.04850276 0.04049556 121.74579256 0.04666603 131.4431591 0.06081963 C135.57429913 0.0665864 139.70537829 0.06649135 143.83651924 0.06175423 C148.69813708 0.05699152 153.55950226 0.0670567 158.42107201 0.08870888 C160.20813266 0.09428627 161.99521754 0.09473335 163.78227997 0.08975601 C166.21605749 0.08382615 168.64905645 0.09626326 171.08276367 0.11352539 C172.15113774 0.10451032 172.15113774 0.10451032 173.24109513 0.09531313 C176.13956203 0.13286643 178.02721583 0.17479263 180.41518307 1.9043417 C181.73989736 3.89490761 181.87993541 5.12121028 181.85289001 7.50120544 C181.86062439 8.18183044 181.86835876 8.86245544 181.87632751 9.56370544 C181.33244368 12.20847392 180.67786695 12.91010751 178.47789001 14.50120544 C175.91747668 14.7979763 173.59934658 14.91035997 171.03807068 14.8888855 C170.27399981 14.89427104 169.50992894 14.89965657 168.72270441 14.90520531 C166.1546091 14.91954784 163.58702469 14.91236587 161.01890564 14.90525818 C159.18098535 14.91095843 157.3430686 14.91792134 155.50515747 14.92605591 C150.50730839 14.94403957 145.50963437 14.9428093 140.51176262 14.93711352 C136.34398644 14.93402952 132.17624427 14.94010524 128.00847292 14.94615227 C118.17940234 14.96021268 108.35041866 14.9586233 98.52134705 14.94725037 C88.36985116 14.93576417 78.21861931 14.94984983 68.06715822 14.97664684 C59.3605222 14.99877224 50.65396926 15.00544847 41.94730711 14.99957043 C36.74314777 14.99619248 31.53915776 14.99867145 26.33502197 15.01582146 C21.44301281 15.03123851 16.55139621 15.0273936 11.65940285 15.00851631 C9.86104726 15.00481601 8.06266292 15.00798058 6.26433372 15.0184021 C3.81500022 15.03151576 1.36698494 15.02015173 -1.08229065 15.00241089 C-2.15752432 15.0168184 -2.15752432 15.0168184 -3.25447989 15.03151697 C-6.4512084 14.98365616 -8.09638088 14.906321 -10.45975494 12.6573801 C-11.92045018 9.69272711 -11.99805425 7.76482327 -11.52210999 4.50120544 C-8.33035219 0.08177647 -5.11144149 -0.06914667 0 0 Z " fill="#000000" transform="translate(20.522109985351563,197.49879455566406)"/>
<path d="M0 0 C0.65564941 -0.0049649 1.31129883 -0.00992981 1.98681641 -0.01504517 C4.15414482 -0.02964072 6.32140006 -0.03646425 8.48876953 -0.04199219 C9.9970805 -0.04774561 11.50539145 -0.05350332 13.01370239 -0.05926514 C16.17613058 -0.06976758 19.33853339 -0.07561525 22.50097656 -0.07910156 C26.54848652 -0.08458599 30.59566004 -0.10861582 34.6430645 -0.13707352 C37.7589312 -0.15571866 40.87471714 -0.16090648 43.99063492 -0.16243744 C45.48254359 -0.16546006 46.97445097 -0.17347547 48.46630478 -0.18662262 C50.55592032 -0.20372377 52.64471741 -0.20179359 54.734375 -0.1953125 C56.51616653 -0.20078094 56.51616653 -0.20078094 58.33395386 -0.20635986 C61.8232323 0.19908909 63.7025744 1.06846617 66.49658203 3.16113281 C67.91700024 6.00196923 67.81110475 8.01590559 67.49658203 11.16113281 C65.27288955 14.20138027 64.06547843 15.07047802 60.30908203 15.66906738 C58.42189453 15.67384094 58.42189453 15.67384094 56.49658203 15.67871094 C55.80016602 15.68572021 55.10375 15.69272949 54.38623047 15.69995117 C52.08927272 15.71752477 49.79355182 15.70591201 47.49658203 15.69238281 C45.8976213 15.69507794 44.29866216 15.69896054 42.69970703 15.70397949 C39.35058977 15.70987363 36.0018996 15.70131474 32.65283203 15.68261719 C28.36179612 15.65982716 24.07176092 15.67295077 19.78076172 15.69690704 C16.47957837 15.71136761 13.17863193 15.70675796 9.87744141 15.69639587 C8.29540895 15.69372928 6.71335492 15.69699603 5.13134766 15.70631409 C2.9191804 15.7164846 0.70862903 15.70097471 -1.50341797 15.67871094 C-2.76154297 15.67552856 -4.01966797 15.67234619 -5.31591797 15.66906738 C-9.08199257 15.06893578 -10.28387122 14.21897428 -12.50341797 11.16113281 C-13.23476125 5.20590893 -13.23476125 5.20590893 -11.19091797 2.28613281 C-7.5717633 -0.12663697 -4.21853336 0.02428129 0 0 Z " fill="#000000" transform="translate(34.50341796875,328.8388671875)"/>
<path d="M0 0 C0.87032364 -0.00619858 1.74064728 -0.01239716 2.63734436 -0.01878357 C4.47558475 -0.02587832 6.31388943 -0.02271369 8.15209961 -0.01000977 C10.96002943 0.00384395 13.7646179 -0.03020195 16.57226562 -0.06835938 C18.3606779 -0.06931074 20.14909433 -0.06745083 21.9375 -0.0625 C23.19239479 -0.08238731 23.19239479 -0.08238731 24.47264099 -0.10267639 C28.78618496 -0.0340297 30.54843069 0.19910352 34.09985352 2.87915039 C36.03515625 5.56640625 36.03515625 5.56640625 36.09765625 9.19140625 C34.89195088 13.0212939 34.50463318 13.72528507 31.03515625 15.56640625 C28.0483107 15.8715627 25.27555625 16.01073437 22.2890625 16 C21.44093491 16.00524185 20.59280731 16.0104837 19.71897888 16.0158844 C17.9278167 16.0222988 16.13661237 16.02097511 14.34545898 16.01245117 C11.61039902 16.00394588 8.87743157 16.03270116 6.14257812 16.06445312 C4.39974021 16.06606545 2.6568986 16.06548702 0.9140625 16.0625 C-0.30802162 16.07935097 -0.30802162 16.07935097 -1.55479431 16.09654236 C-5.49276562 16.04841088 -7.53345013 15.82529823 -10.98461914 13.75415039 C-12.96484375 11.56640625 -12.96484375 11.56640625 -13.52734375 8.06640625 C-12.96484375 4.56640625 -12.96484375 4.56640625 -11.48999023 2.38305664 C-7.76681805 -0.29548191 -4.48392678 -0.02651937 0 0 Z " fill="#000000" transform="translate(34.96484375,152.43359375)"/>
<path d="M0 0 C0.80232056 -0.00524185 1.60464111 -0.0104837 2.43127441 -0.0158844 C4.12230271 -0.02228856 5.81337566 -0.02098842 7.50439453 -0.01245117 C10.08576968 -0.00393259 12.66493648 -0.03273572 15.24609375 -0.06445312 C16.89322851 -0.06606518 18.54036716 -0.06548753 20.1875 -0.0625 C20.95533813 -0.07373398 21.72317627 -0.08496796 22.51428223 -0.09654236 C26.19425623 -0.04887709 28.41181483 0.32333046 31.58398438 2.24584961 C33.59375 4.43359375 33.59375 4.43359375 34.15625 7.93359375 C33.59375 11.43359375 33.59375 11.43359375 32.12109375 13.61694336 C28.38891958 16.29962381 25.08719575 16.02647662 20.59375 16 C19.72105469 16.00619858 18.84835938 16.01239716 17.94921875 16.01878357 C16.10678217 16.02587763 14.26428143 16.02271491 12.421875 16.01000977 C9.6029676 15.99613911 6.78737724 16.03022327 3.96875 16.06835938 C2.17708252 16.06931056 0.38541089 16.0674518 -1.40625 16.0625 C-2.24800781 16.07575821 -3.08976562 16.08901642 -3.95703125 16.10267639 C-8.11059853 16.03658195 -9.78900671 15.9915275 -12.96484375 13.12084961 C-14.40625 10.43359375 -14.40625 10.43359375 -14.46875 6.80859375 C-13.40625 3.43359375 -13.40625 3.43359375 -11.36523438 1.74975586 C-7.55528815 0.05508424 -4.09434072 -0.01565369 0 0 Z " fill="#000000" transform="translate(78.40625,241.56640625)"/>
<path d="M0 0 C0.99773437 -0.01933594 1.99546875 -0.03867187 3.0234375 -0.05859375 C10.26301715 -0.0100711 10.26301715 -0.0100711 13.68359375 2.9375 C15.50554086 6.65708341 15.23324511 8.70763319 14 12.625 C9.66670734 16.27408855 5.38582803 16.07868905 0 16 C-0.7940625 16.01160156 -1.588125 16.02320313 -2.40625 16.03515625 C-7.03884569 16.01199327 -10.30945641 15.73282618 -14 12.625 C-15.23324511 8.70763319 -15.50554086 6.65708341 -13.68359375 2.9375 C-9.4944323 -0.67237421 -5.35024096 -0.10368684 0 0 Z " fill="#000000" transform="translate(321,285.375)"/>
<path d="M0 0 C1.00611328 -0.00708984 2.01222656 -0.01417969 3.04882812 -0.02148438 C10.43612607 0.04266718 10.43612607 0.04266718 12.72290039 1.84350586 C14.23753659 3.83125656 14.3406718 4.95838192 14.3125 7.4375 C14.32023437 8.118125 14.32796875 8.79875 14.3359375 9.5 C13.80862474 12.06418755 12.99415127 12.83215239 10.9375 14.4375 C7.13464947 15.07658587 3.28800963 14.90079513 -0.5625 14.875 C-2.14998047 14.9049707 -2.14998047 14.9049707 -3.76953125 14.93554688 C-5.29126953 14.93458008 -5.29126953 14.93458008 -6.84375 14.93359375 C-7.77251953 14.93544678 -8.70128906 14.9372998 -9.65820312 14.93920898 C-12.0625 14.4375 -12.0625 14.4375 -13.86132812 12.59399414 C-15.50806107 9.63757299 -15.54869147 7.77138436 -15.0625 4.4375 C-11.59046385 -1.17664032 -5.88159834 -0.11725373 0 0 Z " fill="#000000" transform="translate(241.0625,197.5625)"/>
</svg>
